SplineFontDB: 3.0
FontName: Oxygen
FullName: Oxygen
FamilyName: Oxygen
Weight: Book
Copyright: Copyright (c) 2011 by vernon adams. All rights reserved.
Version: 1.000
ItalicAngle: 0
UnderlinePosition: -103
UnderlineWidth: 102
Ascent: 1638
Descent: 410
sfntRevision: 0x00000000
LayerCount: 2
Layer: 0 1 "Back"  1
Layer: 1 1 "Fore"  0
XUID: [1021 14 500265001 13797155]
FSType: 0
OS2Version: 0
OS2_WeightWidthSlopeOnly: 0
OS2_UseTypoMetrics: 1
CreationTime: 1331825529
ModificationTime: 1331898714
PfmFamily: 17
TTFWeight: 400
TTFWidth: 5
LineGap: 0
VLineGap: 0
Panose: 2 0 5 3 0 0 0 9 0 4
OS2TypoAscent: 377
OS2TypoAOffset: 1
OS2TypoDescent: -262
OS2TypoDOffset: 1
OS2TypoLinegap: 0
OS2WinAscent: 0
OS2WinAOffset: 1
OS2WinDescent: 0
OS2WinDOffset: 1
HheadAscent: 0
HheadAOffset: 1
HheadDescent: 0
HheadDOffset: 1
OS2SubXSize: 1331
OS2SubYSize: 1433
OS2SubXOff: 0
OS2SubYOff: 286
OS2SupXSize: 1331
OS2SupYSize: 1433
OS2SupXOff: 0
OS2SupYOff: 983
OS2StrikeYSize: 102
OS2StrikeYPos: 530
OS2Vendor: 'newt'
OS2CodePages: 20000093.00000000
OS2UnicodeRanges: 800000ef.4000204b.00000000.00000000
Lookup: 4 0 1 "'liga' Standard Ligatures in Latin lookup 0"  {"'liga' Standard Ligatures in Latin lookup 0 subtable"  } ['liga' ('DFLT' <'dflt' > 'latn' <'dflt' > ) ]
Lookup: 258 0 0 "'kern' Horizontal Kerning in Latin lookup 0"  {"'kern' Horizontal Kerning in Latin lookup 0 per glyph data 0"  "'kern' Horizontal Kerning in Latin lookup 0 per glyph data 1"  "'kern' Horizontal Kerning in Latin lookup 0 kerning class 2"  } ['kern' ('DFLT' <'dflt' > 'latn' <'dflt' > ) ]
MarkAttachClasses: 1
DEI: 91125
KernClass2: 23 23 "'kern' Horizontal Kerning in Latin lookup 0 kerning class 2" 
 81 A Agrave Aacute Acircumflex Atilde Adieresis Aring Amacron Abreve Aogonek uni0202
 1 B
 75 D O Q Eth Ograve Oacute Ocircumflex Otilde Odieresis Oslash uni020C uni020E
 1 F
 1 K
 1 L
 1 P
 9 T uni021A
 45 U Ugrave Uacute Ucircumflex Udieresis uni0216
 1 V
 1 W
 18 Y Yacute Ydieresis

StartChar: .notdef
Encoding: 65536 -1 0
Width: 748
Flags: W
LayerCount: 2
Fore
SplineSet
68 0 m 1,0,-1
 68 1365 l 1,1,-1
 612 1365 l 1,2,-1
 612 0 l 1,3,-1
 68 0 l 1,0,-1
136 68 m 1,4,-1
 544 68 l 1,5,-1
 544 1297 l 1,6,-1
 136 1297 l 1,7,-1
 136 68 l 1,4,-1
EndSplineSet
EndChar

StartChar: exclam
Encoding: 33 33 4
Width: 586
GlyphClass: 2
Flags: W
LayerCount: 2
Fore
SplineSet
391 1496 m 1,0,-1
 391 1354 l 1,1,-1
 327 435 l 1,2,-1
 262 435 l 1,3,-1
 194 1354 l 1,4,-1
 194 1496 l 1,5,-1
 391 1496 l 1,0,-1
160 120 m 128,-1,7
 160 173 160 173 195.5 212.5 c 128,-1,8
 231 252 231 252 293 252 c 0,9,10
 356 252 356 252 391 213 c 128,-1,11
 426 174 426 174 426 120 c 128,-1,12
 426 66 426 66 391 27 c 128,-1,13
 356 -12 356 -12 293 -12 c 0,14,15
 231 -12 231 -12 195.5 27.5 c 128,-1,6
 160 67 160 67 160 120 c 128,-1,7
EndSplineSet
EndChar

StartChar: quotedbl
Encoding: 34 34 5
Width: 710
GlyphClass: 2
Flags: W
LayerCount: 2
Fore
SplineSet
160 1016 m 1,0,-1
 139 1510 l 1,1,-1
 290 1510 l 1,2,-1
 261 1016 l 1,3,-1
 160 1016 l 1,0,-1
446 1016 m 1,4,-1
 425 1510 l 1,5,-1
 576 1510 l 1,6,-1
 547 1016 l 1,7,-1
 446 1016 l 1,4,-1
EndSplineSet
EndChar

StartChar: numbersign
Encoding: 35 35 6
Width: 1134
GlyphClass: 2
Flags: W
LayerCount: 2
Fore
SplineSet
737 931 m 1,0,-1
 502 931 l 1,1,-1
 422 536 l 1,2,-1
 658 536 l 1,3,-1
 737 931 l 1,0,-1
1032 1055 m 1,4,-1
 1018 931 l 1,5,-1
 871 931 l 1,6,-1
 804 536 l 1,7,-1
 951 536 l 1,8,-1
 941 410 l 1,9,-1
 786 410 l 1,10,-1
 700 -23 l 1,11,-1
 549 -23 l 1,12,-1
 633 410 l 1,13,-1
 398 410 l 1,14,-1
 318 -23 l 1,15,-1
 189 -23 l 1,16,-1
 262 410 l 1,17,-1
 91 410 l 1,18,-1
 101 536 l 1,19,-1
 284 536 l 1,20,-1
 345 930 l 1,21,-1
 168 930 l 1,22,-1
 177 1055 l 1,23,-1
 370 1055 l 1,24,-1
 453 1462 l 1,25,-1
 606 1462 l 1,26,-1
 527 1055 l 1,27,-1
 761 1055 l 1,28,-1
 832 1462 l 1,29,-1
 960 1462 l 1,30,-1
 894 1055 l 1,31,-1
 1032 1055 l 1,4,-1
EndSplineSet
EndChar

StartChar: dollar
Encoding: 36 36 7
Width: 1227
GlyphClass: 2
Flags: W
LayerCount: 2
Fore
SplineSet
580 886 m 1,0,-1
 580 1370 l 1,1,2
 276 1352 276 1352 276 1121 c 0,3,4
 276 1036 276 1036 331.5 984.5 c 128,-1,5
 387 933 387 933 498 906 c 2,6,-1
 580 886 l 1,0,-1
675 131 m 1,7,-1
 678 131 l 1,8,9
 966 148 966 148 966 426 c 0,10,11
 966 522 966 522 914.5 581.5 c 128,-1,12
 863 641 863 641 727 675 c 2,13,-1
 675 688 l 1,14,-1
 675 131 l 1,7,-1
675 -195 m 1,15,-1
 580 -195 l 1,16,-1
 580 -22 l 1,17,18
 420 -17 420 -17 294.5 18.5 c 128,-1,19
 169 54 169 54 94 100 c 1,20,-1
 146 244 l 1,21,22
 348 145 348 145 580 132 c 1,23,-1
 580 712 l 1,24,-1
 433 749 l 2,25,26
 96 834 96 834 96 1109 c 0,27,28
 96 1306 96 1306 224 1408.5 c 128,-1,29
 352 1511 352 1511 580 1523 c 1,30,-1
 580 1693 l 1,31,-1
 675 1693 l 1,32,-1
 675 1525 l 1,33,34
 930 1517 930 1517 1089 1418 c 1,35,-1
 1039 1277 l 1,36,37
 978 1311 978 1311 878.5 1338.5 c 128,-1,38
 779 1366 779 1366 675 1371 c 1,39,-1
 675 863 l 1,40,-1
 779 838 l 2,41,42
 959 795 959 795 1052 700.5 c 128,-1,43
 1145 606 1145 606 1145 432 c 0,44,45
 1145 217 1145 217 1019.5 103 c 128,-1,46
 894 -11 894 -11 675 -22 c 1,47,-1
 675 -195 l 1,15,-1
EndSplineSet
EndChar

StartChar: percent
Encoding: 37 37 8
Width: 1877
GlyphClass: 2
Flags: W
LayerCount: 2
Fore
SplineSet
443 1403 m 0,0,1
 371 1403 371 1403 318.5 1362.5 c 128,-1,2
 266 1322 266 1322 241.5 1260.5 c 128,-1,3
 217 1199 217 1199 217 1126 c 0,4,5
 217 1010 217 1010 277 930 c 128,-1,6
 337 850 337 850 443 850 c 0,7,8
 550 850 550 850 609.5 931 c 128,-1,9
 669 1012 669 1012 669 1126 c 0,10,11
 669 1242 669 1242 609 1322.5 c 128,-1,12
 549 1403 549 1403 443 1403 c 0,0,1
443 1511 m 0,13,14
 612 1511 612 1511 704 1404.5 c 128,-1,15
 796 1298 796 1298 796 1126 c 0,16,17
 796 958 796 958 702.5 850 c 128,-1,18
 609 742 609 742 443 742 c 0,19,20
 275 742 275 742 183 849.5 c 128,-1,21
 91 957 91 957 91 1126 c 128,-1,22
 91 1295 91 1295 184 1403 c 128,-1,23
 277 1511 277 1511 443 1511 c 0,13,14
403 0 m 1,24,-1
 1331 1496 l 1,25,-1
 1475 1496 l 1,26,-1
 544 0 l 1,27,-1
 403 0 l 1,24,-1
1433 646 m 0,28,29
 1361 646 1361 646 1308.5 605.5 c 128,-1,30
 1256 565 1256 565 1231.5 503.5 c 128,-1,31
 1207 442 1207 442 1207 369 c 0,32,33
 1207 253 1207 253 1267 173 c 128,-1,34
 1327 93 1327 93 1433 93 c 0,35,36
 1540 93 1540 93 1599.5 174 c 128,-1,37
 1659 255 1659 255 1659 369 c 0,38,39
 1659 485 1659 485 1599 565.5 c 128,-1,40
 1539 646 1539 646 1433 646 c 0,28,29
1433 754 m 0,41,42
 1602 754 1602 754 1694 647.5 c 128,-1,43
 1786 541 1786 541 1786 369 c 0,44,45
 1786 201 1786 201 1692.5 93 c 128,-1,46
 1599 -15 1599 -15 1433 -15 c 0,47,48
 1265 -15 1265 -15 1173 92.5 c 128,-1,49
 1081 200 1081 200 1081 369 c 128,-1,50
 1081 538 1081 538 1174 646 c 128,-1,51
 1267 754 1267 754 1433 754 c 0,41,42
EndSplineSet
EndChar

StartChar: ampersand
Encoding: 38 38 9
Width: 1477
GlyphClass: 2
Flags: W
LayerCount: 2
Fore
SplineSet
660 1345 m 0,0,1
 567 1345 567 1345 511 1297.5 c 128,-1,2
 455 1250 455 1250 455 1165 c 0,3,4
 455 1097 455 1097 491.5 1040.5 c 128,-1,5
 528 984 528 984 605 910 c 1,6,7
 666 940 666 940 703.5 962 c 128,-1,8
 741 984 741 984 781 1016.5 c 128,-1,9
 821 1049 821 1049 839.5 1087 c 128,-1,10
 858 1125 858 1125 858 1171 c 0,11,12
 858 1254 858 1254 801 1299.5 c 128,-1,13
 744 1345 744 1345 660 1345 c 0,0,1
544 726 m 1,14,15
 418 662 418 662 349.5 586 c 128,-1,16
 281 510 281 510 281 406 c 0,17,18
 281 277 281 277 373 204.5 c 128,-1,19
 465 132 465 132 629 132 c 0,20,21
 825 132 825 132 985 259 c 1,22,23
 910 338 910 338 764.5 492.5 c 128,-1,24
 619 647 619 647 544 726 c 1,14,15
441 839 m 1,25,26
 348 940 348 940 308 1008 c 128,-1,27
 268 1076 268 1076 268 1165 c 0,28,29
 268 1314 268 1314 373.5 1401.5 c 128,-1,30
 479 1489 479 1489 657 1489 c 0,31,32
 762 1489 762 1489 848.5 1456.5 c 128,-1,33
 935 1424 935 1424 990.5 1352.5 c 128,-1,34
 1046 1281 1046 1281 1046 1182 c 0,35,36
 1046 1118 1046 1118 1020.5 1061.5 c 128,-1,37
 995 1005 995 1005 946.5 959 c 128,-1,38
 898 913 898 913 840.5 876 c 128,-1,39
 783 839 783 839 707 804 c 1,40,-1
 1108 375 l 1,41,42
 1188 459 1188 459 1250 599 c 1,43,-1
 1371 507 l 1,44,45
 1309 371 1309 371 1212 257 c 1,46,-1
 1393 41 l 1,47,48
 1319 13 1319 13 1236 -11 c 1,49,-1
 1100 143 l 1,50,51
 894 -23 894 -23 620 -23 c 0,52,53
 367 -23 367 -23 235.5 87.5 c 128,-1,54
 104 198 104 198 104 395 c 0,55,56
 104 548 104 548 190.5 652 c 128,-1,57
 277 756 277 756 441 839 c 1,25,26
EndSplineSet
EndChar

StartChar: quotesingle
Encoding: 39 39 10
Width: 393
GlyphClass: 2
Flags: W
LayerCount: 2
Fore
SplineSet
248 1016 m 1,0,-1
 143 1016 l 1,1,-1
 122 1510 l 1,2,-1
 277 1510 l 1,3,-1
 248 1016 l 1,0,-1
EndSplineSet
EndChar

StartChar: parenleft
Encoding: 40 40 11
Width: 612
GlyphClass: 2
Flags: W
LayerCount: 2
Fore
SplineSet
125 636 m 0,0,1
 125 1068 125 1068 370 1510 c 1,2,-1
 518 1510 l 1,3,4
 290 1090 290 1090 290 642 c 0,5,6
 290 430 290 430 351.5 201 c 128,-1,7
 413 -28 413 -28 520 -218 c 1,8,-1
 373 -218 l 1,9,10
 261 -27 261 -27 193 195 c 128,-1,11
 125 417 125 417 125 636 c 0,0,1
EndSplineSet
EndChar

StartChar: parenright
Encoding: 41 41 12
Width: 612
GlyphClass: 2
Flags: W
LayerCount: 2
Fore
SplineSet
238 -218 m 1,0,-1
 93 -218 l 1,1,2
 199 -27 199 -27 260.5 201.5 c 128,-1,3
 322 430 322 430 322 642 c 0,4,5
 322 1088 322 1088 93 1510 c 1,6,-1
 241 1510 l 1,7,8
 488 1056 488 1056 488 636 c 0,9,10
 488 418 488 418 419.5 198 c 128,-1,11
 351 -22 351 -22 238 -218 c 1,0,-1
EndSplineSet
EndChar

StartChar: asterisk
Encoding: 42 42 13
Width: 1081
GlyphClass: 2
Flags: W
LayerCount: 2
Fore
SplineSet
451 1489 m 1,0,-1
 629 1489 l 1,1,-1
 600 1062 l 1,2,-1
 921 1243 l 1,3,-1
 994 1083 l 1,4,-1
 641 958 l 1,5,-1
 907 617 l 1,6,-1
 772 523 l 1,7,-1
 537 886 l 1,8,-1
 310 523 l 1,9,-1
 174 617 l 1,10,-1
 438 958 l 1,11,-1
 89 1083 l 1,12,-1
 159 1243 l 1,13,-1
 483 1062 l 1,14,-1
 451 1489 l 1,0,-1
EndSplineSet
EndChar

StartChar: plus
Encoding: 43 43 14
Width: 1081
GlyphClass: 2
Flags: W
LayerCount: 2
Fore
SplineSet
101 646 m 1,0,-1
 487 646 l 1,1,-1
 487 1065 l 1,2,-1
 621 1065 l 1,3,-1
 621 646 l 1,4,-1
 989 646 l 1,5,-1
 989 512 l 1,6,-1
 619 512 l 1,7,-1
 619 80 l 1,8,-1
 484 80 l 1,9,-1
 484 512 l 1,10,-1
 101 512 l 1,11,-1
 101 646 l 1,0,-1
EndSplineSet
EndChar

StartChar: comma
Encoding: 44 44 15
Width: 508
GlyphClass: 2
Flags: W
LayerCount: 2
Fore
SplineSet
367 230 m 1,0,-1
 241 -292 l 1,1,-1
 135 -292 l 1,2,-1
 155 230 l 1,3,-1
 367 230 l 1,0,-1
EndSplineSet
EndChar

StartChar: hyphen
Encoding: 45 45 16
Width: 686
GlyphClass: 2
Flags: W
LayerCount: 2
Fore
SplineSet
89 521 m 1,0,-1
 89 663 l 1,1,-1
 597 663 l 1,2,-1
 597 521 l 1,3,-1
 89 521 l 1,0,-1
EndSplineSet
EndChar

StartChar: period
Encoding: 46 46 17
Width: 494
GlyphClass: 2
Flags: W
LayerCount: 2
Fore
SplineSet
261 -12 m 0,0,1
 199 -12 199 -12 163.5 27.5 c 128,-1,2
 128 67 128 67 128 120 c 0,3,4
 128 174 128 174 163 213 c 128,-1,5
 198 252 198 252 261 252 c 128,-1,6
 324 252 324 252 359 213 c 128,-1,7
 394 174 394 174 394 120 c 128,-1,8
 394 66 394 66 359 27 c 128,-1,9
 324 -12 324 -12 261 -12 c 0,0,1
EndSplineSet
EndChar

StartChar: slash
Encoding: 47 47 18
Width: 952
GlyphClass: 2
Flags: W
LayerCount: 2
Fore
SplineSet
194 -218 m 1,0,-1
 50 -218 l 1,1,-1
 726 1466 l 1,2,-1
 872 1466 l 1,3,-1
 194 -218 l 1,0,-1
EndSplineSet
EndChar

StartChar: zero
Encoding: 48 48 19
Width: 1241
GlyphClass: 2
Flags: W
LayerCount: 2
Fore
SplineSet
622 1373 m 128,-1,1
 520 1373 520 1373 447 1292.5 c 128,-1,2
 374 1212 374 1212 337.5 1074.5 c 128,-1,3
 301 937 301 937 301 757 c 0,4,5
 301 574 301 574 337.5 433.5 c 128,-1,6
 374 293 374 293 447 211 c 128,-1,7
 520 129 520 129 622 129 c 128,-1,8
 724 129 724 129 797 211 c 128,-1,9
 870 293 870 293 906.5 433.5 c 128,-1,10
 943 574 943 574 943 757 c 0,11,12
 943 937 943 937 906.5 1074.5 c 128,-1,13
 870 1212 870 1212 797 1292.5 c 128,-1,0
 724 1373 724 1373 622 1373 c 128,-1,1
622 -23 m 128,-1,15
 489 -23 489 -23 389 35.5 c 128,-1,16
 289 94 289 94 228.5 200 c 128,-1,17
 168 306 168 306 138.5 444 c 128,-1,18
 109 582 109 582 109 751 c 0,19,20
 109 890 109 890 128.5 1008 c 128,-1,21
 148 1126 148 1126 189 1222 c 128,-1,22
 230 1318 230 1318 290.5 1385 c 128,-1,23
 351 1452 351 1452 435 1488.5 c 128,-1,24
 519 1525 519 1525 622 1525 c 0,25,26
 750 1525 750 1525 848.5 1469 c 128,-1,27
 947 1413 947 1413 1008.5 1309.5 c 128,-1,28
 1070 1206 1070 1206 1101 1065.5 c 128,-1,29
 1132 925 1132 925 1132 751 c 0,30,31
 1132 582 1132 582 1103 444 c 128,-1,32
 1074 306 1074 306 1014 200 c 128,-1,33
 954 94 954 94 854.5 35.5 c 128,-1,14
 755 -23 755 -23 622 -23 c 128,-1,15
EndSplineSet
EndChar

StartChar: one
Encoding: 49 49 20
Width: 664
GlyphClass: 2
Flags: W
LayerCount: 2
Fore
SplineSet
324 1496 m 1,0,-1
 483 1496 l 1,1,-1
 483 0 l 1,2,-1
 306 0 l 1,3,-1
 306 1311 l 1,4,5
 177 1226 177 1226 89 1198 c 1,6,-1
 51 1343 l 1,7,8
 204 1411 204 1411 324 1496 c 1,0,-1
EndSplineSet
EndChar

StartChar: two
Encoding: 50 50 21
Width: 1116
GlyphClass: 2
Flags: W
LayerCount: 2
Fore
SplineSet
144 1395 m 1,0,1
 282 1525 282 1525 548 1525 c 0,2,3
 752 1525 752 1525 873 1414.5 c 128,-1,4
 994 1304 994 1304 994 1119 c 2,5,-1
 994 1113 l 1,6,7
 993 981 993 981 928 866 c 128,-1,8
 863 751 863 751 728 605 c 1,9,-1
 306 154 l 1,10,-1
 999 154 l 1,11,-1
 988 0 l 1,12,-1
 113 0 l 1,13,-1
 90 164 l 1,14,-1
 607 738 l 2,15,16
 702 843 702 843 750.5 928.5 c 128,-1,17
 799 1014 799 1014 801 1097 c 1,18,-1
 801 1107 l 2,19,20
 801 1231 801 1231 732 1299.5 c 128,-1,21
 663 1368 663 1368 536 1368 c 0,22,23
 324 1368 324 1368 202 1245 c 1,24,-1
 144 1395 l 1,0,1
EndSplineSet
EndChar

StartChar: three
Encoding: 51 51 22
Width: 1103
GlyphClass: 2
Flags: W
LayerCount: 2
Fore
SplineSet
824 412 m 0,0,1
 824 469 824 469 810.5 514 c 128,-1,2
 797 559 797 559 774 591 c 128,-1,3
 751 623 751 623 714.5 646.5 c 128,-1,4
 678 670 678 670 638 684.5 c 128,-1,5
 598 699 598 699 544 707.5 c 128,-1,6
 490 716 490 716 439 719 c 128,-1,7
 388 722 388 722 323 722 c 1,8,-1
 323 871 l 1,9,10
 378 871 378 871 420.5 873 c 128,-1,11
 463 875 463 875 511.5 881.5 c 128,-1,12
 560 888 560 888 596 899.5 c 128,-1,13
 632 911 632 911 666.5 931 c 128,-1,14
 701 951 701 951 723 978 c 128,-1,15
 745 1005 745 1005 758 1044.5 c 128,-1,16
 771 1084 771 1084 771 1133 c 0,17,18
 771 1373 771 1373 496 1373 c 0,19,20
 397 1373 397 1373 310 1344 c 128,-1,21
 223 1315 223 1315 161 1266 c 1,22,-1
 105 1412 l 1,23,24
 254 1525 254 1525 534 1525 c 0,25,26
 647 1525 647 1525 743 1483.5 c 128,-1,27
 839 1442 839 1442 901 1356.5 c 128,-1,28
 963 1271 963 1271 963 1156 c 0,29,30
 963 1016 963 1016 894 926 c 128,-1,31
 825 836 825 836 700 797 c 1,32,33
 840 767 840 767 919.5 666 c 128,-1,34
 999 565 999 565 999 410 c 0,35,36
 999 213 999 213 858 95 c 128,-1,37
 717 -23 717 -23 496 -23 c 0,38,39
 362 -23 362 -23 257.5 12 c 128,-1,40
 153 47 153 47 105 93 c 1,41,-1
 161 237 l 1,42,43
 298 129 298 129 494 129 c 0,44,45
 644 129 644 129 734 203.5 c 128,-1,46
 824 278 824 278 824 412 c 0,0,1
EndSplineSet
EndChar

StartChar: four
Encoding: 52 52 23
Width: 1211
GlyphClass: 2
Flags: W
LayerCount: 2
Fore
SplineSet
784 1269 m 1,0,-1
 284 516 l 1,1,-1
 784 516 l 1,2,-1
 784 1269 l 1,0,-1
1122 371 m 1,3,-1
 952 371 l 1,4,-1
 952 0 l 1,5,-1
 784 0 l 1,6,-1
 784 371 l 1,7,-1
 108 371 l 1,8,-1
 108 524 l 1,9,-1
 765 1496 l 1,10,-1
 952 1496 l 1,11,-1
 952 516 l 1,12,-1
 1136 516 l 1,13,-1
 1122 371 l 1,3,-1
EndSplineSet
EndChar

StartChar: five
Encoding: 53 53 24
Width: 1177
GlyphClass: 2
Flags: W
LayerCount: 2
Fore
SplineSet
1004 1496 m 1,0,-1
 987 1332 l 1,1,-1
 379 1332 l 1,2,3
 369 1041 369 1041 364 861 c 1,4,5
 477 933 477 933 609 933 c 0,6,7
 720 933 720 933 807.5 897.5 c 128,-1,8
 895 862 895 862 950.5 800 c 128,-1,9
 1006 738 1006 738 1035 655.5 c 128,-1,10
 1064 573 1064 573 1064 477 c 0,11,12
 1064 250 1064 250 918.5 113.5 c 128,-1,13
 773 -23 773 -23 523 -23 c 0,14,15
 272 -23 272 -23 121 114 c 1,16,-1
 186 255 l 1,17,18
 334 139 334 139 529 139 c 0,19,20
 693 139 693 139 788 232 c 128,-1,21
 883 325 883 325 883 475 c 0,22,23
 883 609 883 609 803 692.5 c 128,-1,24
 723 776 723 776 575 776 c 128,-1,25
 427 776 427 776 337 677 c 1,26,-1
 198 696 l 1,27,-1
 237 1496 l 1,28,-1
 1004 1496 l 1,0,-1
EndSplineSet
EndChar

StartChar: six
Encoding: 54 54 25
Width: 1199
GlyphClass: 2
Flags: W
LayerCount: 2
Fore
SplineSet
292 453 m 0,0,1
 292 364 292 364 325.5 292 c 128,-1,2
 359 220 359 220 430.5 174.5 c 128,-1,3
 502 129 502 129 601 129 c 0,4,5
 749 129 749 129 833.5 220 c 128,-1,6
 918 311 918 311 918 446 c 0,7,8
 918 588 918 588 833.5 679.5 c 128,-1,9
 749 771 749 771 601 771 c 0,10,11
 444 771 444 771 368 682 c 128,-1,12
 292 593 292 593 292 453 c 0,0,1
637 921 m 0,13,14
 763 921 763 921 870 861.5 c 128,-1,15
 977 802 977 802 1042 692.5 c 128,-1,16
 1107 583 1107 583 1107 449 c 0,17,18
 1107 245 1107 245 969.5 111 c 128,-1,19
 832 -23 832 -23 607 -23 c 0,20,21
 490 -23 490 -23 393.5 16.5 c 128,-1,22
 297 56 297 56 234.5 123.5 c 128,-1,23
 172 191 172 191 137.5 280.5 c 128,-1,24
 103 370 103 370 103 472 c 0,25,26
 103 635 103 635 162.5 763.5 c 128,-1,27
 222 892 222 892 378 1089 c 0,28,29
 416 1137 416 1137 498 1237 c 128,-1,30
 580 1337 580 1337 644 1413 c 2,31,-1
 707 1489 l 1,32,-1
 938 1489 l 1,33,-1
 412 861 l 1,34,35
 525 921 525 921 637 921 c 0,13,14
EndSplineSet
EndChar

StartChar: seven
Encoding: 55 55 26
Width: 1052
GlyphClass: 2
Flags: W
LayerCount: 2
Fore
SplineSet
261 0 m 1,0,-1
 775 1341 l 1,1,-1
 100 1341 l 1,2,-1
 111 1496 l 1,3,-1
 978 1496 l 1,4,-1
 978 1360 l 1,5,-1
 443 0 l 1,6,-1
 261 0 l 1,0,-1
EndSplineSet
EndChar

StartChar: eight
Encoding: 56 56 27
Width: 1182
GlyphClass: 2
Flags: W
LayerCount: 2
Fore
SplineSet
594 1379 m 128,-1,1
 478 1379 478 1379 396.5 1317.5 c 128,-1,2
 315 1256 315 1256 315 1152 c 0,3,4
 315 916 315 916 594 853 c 1,5,6
 869 915 869 915 869 1152 c 0,7,8
 869 1256 869 1256 789.5 1317.5 c 128,-1,0
 710 1379 710 1379 594 1379 c 128,-1,1
594 703 m 1,9,10
 451 670 451 670 365 592.5 c 128,-1,11
 279 515 279 515 279 397 c 0,12,13
 279 274 279 274 368 201.5 c 128,-1,14
 457 129 457 129 594 129 c 128,-1,15
 731 129 731 129 817.5 201.5 c 128,-1,16
 904 274 904 274 904 397 c 0,17,18
 904 516 904 516 820 593.5 c 128,-1,19
 736 671 736 671 594 703 c 1,9,10
594 -23 m 0,20,21
 458 -23 458 -23 348.5 22.5 c 128,-1,22
 239 68 239 68 171 162 c 128,-1,23
 103 256 103 256 103 385 c 0,24,25
 103 528 103 528 185 634 c 128,-1,26
 267 740 267 740 414 788 c 1,27,28
 138 885 138 885 138 1148 c 0,29,30
 138 1325 138 1325 264 1425 c 128,-1,31
 390 1525 390 1525 594 1525 c 0,32,33
 796 1525 796 1525 920.5 1425 c 128,-1,34
 1045 1325 1045 1325 1045 1148 c 0,35,36
 1045 887 1045 887 791 788 c 1,37,38
 926 740 926 740 1003 634 c 128,-1,39
 1080 528 1080 528 1080 385 c 0,40,41
 1080 193 1080 193 941.5 85 c 128,-1,42
 803 -23 803 -23 594 -23 c 0,20,21
EndSplineSet
EndChar

StartChar: nine
Encoding: 57 57 28
Width: 1165
GlyphClass: 2
Flags: W
LayerCount: 2
Fore
SplineSet
901 1061 m 0,0,1
 901 1198 901 1198 823.5 1285.5 c 128,-1,2
 746 1373 746 1373 598 1373 c 0,3,4
 449 1373 449 1373 362 1281.5 c 128,-1,5
 275 1190 275 1190 275 1056 c 0,6,7
 275 916 275 916 359 832 c 128,-1,8
 443 748 443 748 592 748 c 0,9,10
 750 748 750 748 825.5 835 c 128,-1,11
 901 922 901 922 901 1061 c 0,0,1
556 598 m 0,12,13
 429 598 429 598 322.5 653.5 c 128,-1,14
 216 709 216 709 151 814 c 128,-1,15
 86 919 86 919 86 1053 c 0,16,17
 86 1257 86 1257 226 1391 c 128,-1,18
 366 1525 366 1525 592 1525 c 0,19,20
 709 1525 709 1525 804.5 1487.5 c 128,-1,21
 900 1450 900 1450 961.5 1384.5 c 128,-1,22
 1023 1319 1023 1319 1056.5 1231.5 c 128,-1,23
 1090 1144 1090 1144 1090 1042 c 0,24,25
 1090 899 1090 899 1041 783 c 128,-1,26
 992 667 992 667 872 504 c 0,27,28
 829 447 829 447 728.5 321 c 128,-1,29
 628 195 628 195 549 98 c 2,30,-1
 470 0 l 1,31,-1
 250 0 l 1,32,-1
 781 658 l 1,33,34
 668 598 668 598 556 598 c 0,12,13
EndSplineSet
EndChar

StartChar: colon
Encoding: 58 58 29
Width: 494
GlyphClass: 2
Flags: W
LayerCount: 2
Fore
SplineSet
146 -25 m 1,0,-1
 146 208 l 1,1,-1
 352 208 l 1,2,-1
 352 -25 l 1,3,-1
 146 -25 l 1,0,-1
146 893 m 1,4,-1
 146 1124 l 1,5,-1
 352 1124 l 1,6,-1
 352 893 l 1,7,-1
 146 893 l 1,4,-1
EndSplineSet
EndChar

StartChar: semicolon
Encoding: 59 59 30
Width: 518
GlyphClass: 2
Flags: W
LayerCount: 2
Fore
SplineSet
376 197 m 1,0,-1
 251 -310 l 1,1,-1
 138 -310 l 1,2,-1
 194 197 l 1,3,-1
 376 197 l 1,0,-1
174 893 m 1,4,-1
 174 1124 l 1,5,-1
 380 1124 l 1,6,-1
 380 893 l 1,7,-1
 174 893 l 1,4,-1
EndSplineSet
EndChar

StartChar: less
Encoding: 60 60 31
Width: 1179
GlyphClass: 2
Flags: W
LayerCount: 2
Fore
SplineSet
1061 982 m 1,0,-1
 294 596 l 1,1,-1
 1057 216 l 1,2,-1
 1057 50 l 1,3,-1
 103 547 l 1,4,-1
 103 642 l 1,5,-1
 1061 1149 l 1,6,-1
 1061 982 l 1,0,-1
EndSplineSet
EndChar

StartChar: equal
Encoding: 61 61 32
Width: 1286
GlyphClass: 2
Flags: W
LayerCount: 2
Fore
SplineSet
145 452 m 1,0,-1
 1146 452 l 1,1,-1
 1146 305 l 1,2,-1
 145 305 l 1,3,-1
 145 452 l 1,0,-1
143 891 m 1,4,-1
 1146 891 l 1,5,-1
 1146 741 l 1,6,-1
 143 741 l 1,7,-1
 143 891 l 1,4,-1
EndSplineSet
EndChar

StartChar: greater
Encoding: 62 62 33
Width: 1182
GlyphClass: 2
Flags: W
LayerCount: 2
Fore
SplineSet
126 230 m 1,0,-1
 891 598 l 1,1,-1
 130 997 l 1,2,-1
 130 1160 l 1,3,-1
 1086 640 l 1,4,-1
 1086 544 l 1,5,-1
 126 62 l 1,6,-1
 126 230 l 1,0,-1
EndSplineSet
EndChar

StartChar: question
Encoding: 63 63 34
Width: 865
GlyphClass: 2
Flags: W
LayerCount: 2
Fore
SplineSet
242 120 m 128,-1,1
 242 173 242 173 277.5 212.5 c 128,-1,2
 313 252 313 252 375 252 c 0,3,4
 438 252 438 252 473 213 c 128,-1,5
 508 174 508 174 508 120 c 128,-1,6
 508 66 508 66 473 27 c 128,-1,7
 438 -12 438 -12 375 -12 c 0,8,9
 313 -12 313 -12 277.5 27.5 c 128,-1,0
 242 67 242 67 242 120 c 128,-1,1
404 435 m 1,10,-1
 317 435 l 1,11,12
 317 499 317 499 346.5 582 c 128,-1,13
 376 665 376 665 418 744.5 c 128,-1,14
 460 824 460 824 501.5 902 c 128,-1,15
 543 980 543 980 572.5 1056 c 128,-1,16
 602 1132 602 1132 602 1186 c 0,17,18
 601 1281 601 1281 541 1327 c 128,-1,19
 481 1373 481 1373 377 1373 c 0,20,21
 248 1373 248 1373 118 1292 c 1,22,-1
 73 1427 l 1,23,24
 196 1524 196 1524 404 1524 c 0,25,26
 566 1524 566 1524 665.5 1438.5 c 128,-1,27
 765 1353 765 1353 765 1200 c 0,28,29
 765 1123 765 1123 742.5 1050 c 128,-1,30
 720 977 720 977 680 907.5 c 128,-1,31
 640 838 640 838 596.5 772.5 c 128,-1,32
 553 707 553 707 498.5 615 c 128,-1,33
 444 523 444 523 404 435 c 1,10,-1
EndSplineSet
EndChar

StartChar: at
Encoding: 64 64 35
Width: 1788
GlyphClass: 2
Flags: W
LayerCount: 2
Fore
SplineSet
814 442 m 0,0,1
 933 442 933 442 1001 629 c 0,2,3
 1036 725 1036 725 1081 968 c 0,4,5
 1085 987 1085 987 1087 998 c 1,6,7
 1046 1019 1046 1019 952 1019 c 0,8,9
 877 1019 877 1019 821.5 984 c 128,-1,10
 766 949 766 949 735 890 c 128,-1,11
 704 831 704 831 689.5 763.5 c 128,-1,12
 675 696 675 696 675 621 c 0,13,14
 675 539 675 539 711.5 490.5 c 128,-1,15
 748 442 748 442 814 442 c 0,0,1
1212 297 m 0,16,17
 1051 297 1051 297 1028 455 c 1,18,19
 933 316 933 316 790 316 c 0,20,21
 680 316 680 316 611 401 c 128,-1,22
 542 486 542 486 542 631 c 0,23,24
 542 732 542 732 566 820.5 c 128,-1,25
 590 909 590 909 638 981 c 128,-1,26
 686 1053 686 1053 766 1095 c 128,-1,27
 846 1137 846 1137 949 1137 c 0,28,29
 1074 1137 1074 1137 1249 1075 c 1,30,31
 1238 1021 1238 1021 1220 938 c 128,-1,32
 1202 855 1202 855 1190.5 801 c 128,-1,33
 1179 747 1179 747 1167.5 687.5 c 128,-1,34
 1156 628 1156 628 1150 587.5 c 128,-1,35
 1144 547 1144 547 1144 524 c 0,36,37
 1144 418 1144 418 1233 418 c 0,38,39
 1282 418 1282 418 1339 451.5 c 128,-1,40
 1396 485 1396 485 1445 540.5 c 128,-1,41
 1494 596 1494 596 1527 676.5 c 128,-1,42
 1560 757 1560 757 1560 841 c 0,43,44
 1560 971 1560 971 1511 1077.5 c 128,-1,45
 1462 1184 1462 1184 1375.5 1255.5 c 128,-1,46
 1289 1327 1289 1327 1170 1366 c 128,-1,47
 1051 1405 1051 1405 911 1405 c 0,48,49
 773 1405 773 1405 647 1351.5 c 128,-1,50
 521 1298 521 1298 429.5 1207 c 128,-1,51
 338 1116 338 1116 284 989 c 128,-1,52
 230 862 230 862 230 720 c 0,53,54
 230 566 230 566 282 438 c 128,-1,55
 334 310 334 310 423 224.5 c 128,-1,56
 512 139 512 139 632 92.5 c 128,-1,57
 752 46 752 46 888 46 c 0,58,59
 1177 46 1177 46 1344 185 c 1,60,-1
 1414 97 l 1,61,62
 1322 12 1322 12 1185.5 -31.5 c 128,-1,63
 1049 -75 1049 -75 886 -75 c 0,64,65
 665 -75 665 -75 487 21.5 c 128,-1,66
 309 118 309 118 205 300.5 c 128,-1,67
 101 483 101 483 101 720 c 0,68,69
 101 885 101 885 165 1034 c 128,-1,70
 229 1183 229 1183 337.5 1291 c 128,-1,71
 446 1399 446 1399 597 1462 c 128,-1,72
 748 1525 748 1525 916 1525 c 0,73,74
 1131 1525 1131 1525 1305.5 1442 c 128,-1,75
 1480 1359 1480 1359 1583.5 1201 c 128,-1,76
 1687 1043 1687 1043 1687 839 c 0,77,78
 1687 715 1687 715 1642 609 c 128,-1,79
 1597 503 1597 503 1526.5 437 c 128,-1,80
 1456 371 1456 371 1373.5 334 c 128,-1,81
 1291 297 1291 297 1212 297 c 0,16,17
EndSplineSet
EndChar

StartChar: A
Encoding: 65 65 36
Width: 1309
GlyphClass: 2
Flags: W
LayerCount: 2
Fore
SplineSet
420 611 m 1,0,-1
 899 611 l 1,1,-1
 671 1324 l 1,2,-1
 420 611 l 1,0,-1
1123 0 m 1,3,-1
 958 473 l 1,4,-1
 365 473 l 1,5,-1
 187 0 l 1,6,-1
 6 0 l 1,7,-1
 564 1496 l 1,8,-1
 776 1496 l 1,9,-1
 1303 0 l 1,10,-1
 1123 0 l 1,3,-1
EndSplineSet
EndChar

StartChar: B
Encoding: 66 66 37
Width: 1286
GlyphClass: 2
Flags: W
LayerCount: 2
Fore
SplineSet
324 716 m 1,0,-1
 324 139 l 1,1,-1
 637 139 l 2,2,3
 835 139 835 139 934 209 c 128,-1,4
 1033 279 1033 279 1033 428 c 0,5,6
 1033 569 1033 569 944.5 642.5 c 128,-1,7
 856 716 856 716 688 716 c 2,8,-1
 324 716 l 1,0,-1
324 1352 m 1,9,-1
 324 850 l 1,10,-1
 678 850 l 2,11,12
 737 850 737 850 783 859.5 c 128,-1,13
 829 869 829 869 873 893.5 c 128,-1,14
 917 918 917 918 941.5 969.5 c 128,-1,15
 966 1021 966 1021 966 1096 c 0,16,17
 966 1162 966 1162 946 1209 c 128,-1,18
 926 1256 926 1256 893 1283.5 c 128,-1,19
 860 1311 860 1311 805 1326.5 c 128,-1,20
 750 1342 750 1342 693.5 1347 c 128,-1,21
 637 1352 637 1352 557 1352 c 2,22,-1
 324 1352 l 1,9,-1
147 0 m 1,23,-1
 147 1496 l 1,24,-1
 583 1496 l 2,25,26
 864 1496 864 1496 1007.5 1409.5 c 128,-1,27
 1151 1323 1151 1323 1151 1131 c 0,28,29
 1151 1016 1151 1016 1098.5 926.5 c 128,-1,30
 1046 837 1046 837 939 801 c 1,31,32
 1029 782 1029 782 1092.5 721.5 c 128,-1,33
 1156 661 1156 661 1184.5 585 c 128,-1,34
 1213 509 1213 509 1213 426 c 0,35,36
 1213 0 1213 0 670 0 c 2,37,-1
 147 0 l 1,23,-1
EndSplineSet
EndChar

StartChar: C
Encoding: 67 67 38
Width: 1289
GlyphClass: 2
Flags: W
LayerCount: 2
Fore
SplineSet
814 1525 m 0,0,1
 1084 1525 1084 1525 1251 1389 c 1,2,-1
 1187 1254 l 1,3,4
 1119 1307 1119 1307 1023.5 1340 c 128,-1,5
 928 1373 928 1373 819 1373 c 0,6,7
 687 1373 687 1373 583.5 1322 c 128,-1,8
 480 1271 480 1271 416.5 1183.5 c 128,-1,9
 353 1096 353 1096 320.5 984.5 c 128,-1,10
 288 873 288 873 288 746 c 0,11,12
 288 648 288 648 306 560 c 128,-1,13
 324 472 324 472 365.5 392 c 128,-1,14
 407 312 407 312 468 254.5 c 128,-1,15
 529 197 529 197 621.5 163 c 128,-1,16
 714 129 714 129 829 129 c 0,17,18
 935 129 935 129 1028 163.5 c 128,-1,19
 1121 198 1121 198 1188 252 c 1,20,-1
 1246 107 l 1,21,22
 1100 -23 1100 -23 815 -23 c 0,23,24
 643 -23 643 -23 505.5 37.5 c 128,-1,25
 368 98 368 98 280 203 c 128,-1,26
 192 308 192 308 145.5 446.5 c 128,-1,27
 99 585 99 585 99 745 c 0,28,29
 99 911 99 911 146.5 1053 c 128,-1,30
 194 1195 194 1195 283 1300.5 c 128,-1,31
 372 1406 372 1406 508.5 1465.5 c 128,-1,32
 645 1525 645 1525 814 1525 c 0,0,1
EndSplineSet
EndChar

StartChar: D
Encoding: 68 68 39
Width: 1511
GlyphClass: 2
Flags: W
LayerCount: 2
Fore
SplineSet
324 1341 m 1,0,-1
 324 155 l 1,1,-1
 639 155 l 2,2,3
 918 155 918 155 1070.5 301.5 c 128,-1,4
 1223 448 1223 448 1223 734 c 0,5,6
 1223 873 1223 873 1190.5 978 c 128,-1,7
 1158 1083 1158 1083 1101 1151.5 c 128,-1,8
 1044 1220 1044 1220 957 1263 c 128,-1,9
 870 1306 870 1306 769 1323.5 c 128,-1,10
 668 1341 668 1341 540 1341 c 2,11,-1
 324 1341 l 1,0,-1
147 0 m 1,12,-1
 147 1496 l 1,13,-1
 519 1496 l 2,14,15
 680 1496 680 1496 811 1473 c 128,-1,16
 942 1450 942 1450 1056 1395 c 128,-1,17
 1170 1340 1170 1340 1247 1254.5 c 128,-1,18
 1324 1169 1324 1169 1368 1038 c 128,-1,19
 1412 907 1412 907 1412 738 c 0,20,21
 1412 555 1412 555 1355 413.5 c 128,-1,22
 1298 272 1298 272 1193 182 c 128,-1,23
 1088 92 1088 92 944 46 c 128,-1,24
 800 0 800 0 621 0 c 2,25,-1
 147 0 l 1,12,-1
EndSplineSet
EndChar

StartChar: E
Encoding: 69 69 40
Width: 1148
GlyphClass: 2
Flags: W
LayerCount: 2
Fore
SplineSet
987 845 m 1,0,-1
 987 692 l 1,1,-1
 324 692 l 1,2,-1
 324 155 l 1,3,-1
 1058 155 l 1,4,-1
 1043 0 l 1,5,-1
 147 0 l 1,6,-1
 147 1496 l 1,7,-1
 1029 1496 l 1,8,-1
 1015 1341 l 1,9,-1
 324 1341 l 1,10,-1
 324 845 l 1,11,-1
 987 845 l 1,0,-1
EndSplineSet
EndChar

StartChar: F
Encoding: 70 70 41
Width: 1025
GlyphClass: 2
Flags: W
LayerCount: 2
Fore
SplineSet
940 838 m 1,0,-1
 940 695 l 1,1,-1
 324 695 l 1,2,-1
 324 0 l 1,3,-1
 147 0 l 1,4,-1
 147 1496 l 1,5,-1
 974 1496 l 1,6,-1
 960 1341 l 1,7,-1
 324 1341 l 1,8,-1
 324 838 l 1,9,-1
 940 838 l 1,0,-1
EndSplineSet
PairPos2: "'kern' Horizontal Kerning in Latin lookup 0 per glyph data 1" period dx=0 dy=0 dh=-140 dv=0 dx=0 dy=0 dh=0 dv=0
PairPos2: "'kern' Horizontal Kerning in Latin lookup 0 per glyph data 1" period dx=0 dy=0 dh=-140 dv=0 dx=0 dy=0 dh=0 dv=0
PairPos2: "'kern' Horizontal Kerning in Latin lookup 0 per glyph data 1" comma dx=0 dy=0 dh=-180 dv=0 dx=0 dy=0 dh=0 dv=0
PairPos2: "'kern' Horizontal Kerning in Latin lookup 0 per glyph data 1" comma dx=0 dy=0 dh=-180 dv=0 dx=0 dy=0 dh=0 dv=0
EndChar

StartChar: G
Encoding: 71 71 42
Width: 1432
GlyphClass: 2
Flags: W
LayerCount: 2
Fore
SplineSet
811 -23 m 0,0,1
 639 -23 639 -23 501.5 39 c 128,-1,2
 364 101 364 101 278 207.5 c 128,-1,3
 192 314 192 314 146.5 451.5 c 128,-1,4
 101 589 101 589 101 745 c 0,5,6
 101 905 101 905 146 1044 c 128,-1,7
 191 1183 191 1183 277 1291.5 c 128,-1,8
 363 1400 363 1400 502 1462.5 c 128,-1,9
 641 1525 641 1525 816 1525 c 0,10,11
 1095 1525 1095 1525 1275 1380 c 1,12,-1
 1210 1243 l 1,13,14
 1145 1296 1145 1296 1039.5 1334.5 c 128,-1,15
 934 1373 934 1373 830 1373 c 0,16,17
 719 1373 719 1373 628.5 1339 c 128,-1,18
 538 1305 538 1305 476 1246.5 c 128,-1,19
 414 1188 414 1188 371.5 1108 c 128,-1,20
 329 1028 329 1028 309.5 937 c 128,-1,21
 290 846 290 846 290 745 c 0,22,23
 290 617 290 617 322 508 c 128,-1,24
 354 399 354 399 417.5 313 c 128,-1,25
 481 227 481 227 586.5 178 c 128,-1,26
 692 129 692 129 830 129 c 0,27,28
 917 129 917 129 1014.5 157.5 c 128,-1,29
 1112 186 1112 186 1167 220 c 1,30,-1
 1167 615 l 1,31,-1
 797 615 l 1,32,-1
 809 764 l 1,33,-1
 1321 764 l 1,34,-1
 1321 123 l 1,35,36
 1188 43 1188 43 1072 10 c 128,-1,37
 956 -23 956 -23 811 -23 c 0,0,1
EndSplineSet
EndChar

StartChar: H
Encoding: 72 72 43
Width: 1465
GlyphClass: 2
Flags: W
LayerCount: 2
Fore
SplineSet
1141 696 m 1,0,-1
 324 696 l 1,1,-1
 324 0 l 1,2,-1
 147 0 l 1,3,-1
 147 1496 l 1,4,-1
 324 1496 l 1,5,-1
 324 848 l 1,6,-1
 1141 848 l 1,7,-1
 1141 1496 l 1,8,-1
 1318 1496 l 1,9,-1
 1318 0 l 1,10,-1
 1141 0 l 1,11,-1
 1141 696 l 1,0,-1
EndSplineSet
EndChar

StartChar: I
Encoding: 73 73 44
Width: 509
GlyphClass: 2
Flags: W
LayerCount: 2
Fore
SplineSet
340 1496 m 1,0,-1
 340 0 l 1,1,-1
 163 0 l 1,2,-1
 163 1496 l 1,3,-1
 340 1496 l 1,0,-1
EndSplineSet
EndChar

StartChar: J
Encoding: 74 74 45
Width: 550
GlyphClass: 2
Flags: W
LayerCount: 2
Fore
SplineSet
226 181 m 2,0,-1
 226 1496 l 1,1,-1
 403 1496 l 1,2,-1
 403 241 l 2,3,4
 403 168 403 168 400 118 c 128,-1,5
 397 68 397 68 388 16.5 c 128,-1,6
 379 -35 379 -35 361.5 -68 c 128,-1,7
 344 -101 344 -101 316 -131.5 c 128,-1,8
 288 -162 288 -162 246.5 -178.5 c 128,-1,9
 205 -195 205 -195 148 -204.5 c 128,-1,10
 91 -214 91 -214 16 -214 c 2,11,-1
 -19 -214 l 1,12,-1
 -40 -72 l 1,13,-1
 34 -72 l 2,14,15
 87 -72 87 -72 123.5 -59 c 128,-1,16
 160 -46 160 -46 180 -26.5 c 128,-1,17
 200 -7 200 -7 210.5 29 c 128,-1,18
 221 65 221 65 223.5 96.5 c 128,-1,19
 226 128 226 128 226 181 c 2,0,-1
EndSplineSet
EndChar

StartChar: K
Encoding: 75 75 46
Width: 1228
GlyphClass: 2
Flags: W
LayerCount: 2
Fore
SplineSet
582 799 m 1,0,-1
 1263 0 l 1,1,-1
 1040 0 l 1,2,-1
 440 703 l 1,3,-1
 323 602 l 1,4,-1
 323 0 l 1,5,-1
 146 0 l 1,6,-1
 146 1496 l 1,7,-1
 323 1496 l 1,8,-1
 323 770 l 1,9,-1
 961 1496 l 1,10,-1
 1194 1496 l 1,11,-1
 582 799 l 1,0,-1
EndSplineSet
EndChar

StartChar: L
Encoding: 76 76 47
Width: 980
GlyphClass: 2
Flags: W
LayerCount: 2
Fore
SplineSet
148 1496 m 1,0,-1
 325 1496 l 1,1,-1
 325 155 l 1,2,-1
 982 155 l 1,3,-1
 970 0 l 1,4,-1
 148 0 l 1,5,-1
 148 1496 l 1,0,-1
EndSplineSet
PairPos2: "'kern' Horizontal Kerning in Latin lookup 0 per glyph data 1" quotedblright dx=0 dy=0 dh=-200 dv=0 dx=0 dy=0 dh=0 dv=0
PairPos2: "'kern' Horizontal Kerning in Latin lookup 0 per glyph data 1" quotedblright dx=0 dy=0 dh=-200 dv=0 dx=0 dy=0 dh=0 dv=0
PairPos2: "'kern' Horizontal Kerning in Latin lookup 0 per glyph data 1" quoteright dx=0 dy=0 dh=-150 dv=0 dx=0 dy=0 dh=0 dv=0
PairPos2: "'kern' Horizontal Kerning in Latin lookup 0 per glyph data 1" quoteright dx=0 dy=0 dh=-150 dv=0 dx=0 dy=0 dh=0 dv=0
EndChar

StartChar: M
Encoding: 77 77 48
Width: 1785
GlyphClass: 2
Flags: W
LayerCount: 2
Fore
SplineSet
316 1181 m 1,0,-1
 316 0 l 1,1,-1
 149 0 l 1,2,-1
 149 1496 l 1,3,-1
 341 1496 l 1,4,-1
 900 347 l 1,5,-1
 1453 1496 l 1,6,-1
 1636 1496 l 1,7,-1
 1636 0 l 1,8,-1
 1470 0 l 1,9,-1
 1470 1175 l 1,10,-1
 998 183 l 1,11,-1
 797 183 l 1,12,-1
 316 1181 l 1,0,-1
EndSplineSet
EndChar

StartChar: N
Encoding: 78 78 49
Width: 1488
GlyphClass: 2
Flags: W
LayerCount: 2
Fore
SplineSet
1341 0 m 1,0,-1
 1144 0 l 1,1,-1
 314 1239 l 1,2,-1
 314 0 l 1,3,-1
 147 0 l 1,4,-1
 147 1496 l 1,5,-1
 341 1496 l 1,6,-1
 1178 253 l 1,7,-1
 1178 1496 l 1,8,-1
 1341 1496 l 1,9,-1
 1341 0 l 1,0,-1
EndSplineSet
EndChar

StartChar: O
Encoding: 79 79 50
Width: 1657
GlyphClass: 2
Flags: W
LayerCount: 2
Fore
SplineSet
829 1373 m 0,0,1
 565 1373 565 1373 426.5 1204.5 c 128,-1,2
 288 1036 288 1036 288 746 c 0,3,4
 288 614 288 614 320.5 504 c 128,-1,5
 353 394 353 394 417 309 c 128,-1,6
 481 224 481 224 586.5 176.5 c 128,-1,7
 692 129 692 129 829 129 c 0,8,9
 939 129 939 129 1029 160.5 c 128,-1,10
 1119 192 1119 192 1181.5 247 c 128,-1,11
 1244 302 1244 302 1286.5 380 c 128,-1,12
 1329 458 1329 458 1349 549.5 c 128,-1,13
 1369 641 1369 641 1369 746 c 0,14,15
 1369 935 1369 935 1310 1074.5 c 128,-1,16
 1251 1214 1251 1214 1128.5 1293.5 c 128,-1,17
 1006 1373 1006 1373 829 1373 c 0,0,1
829 -23 m 128,-1,19
 653 -23 653 -23 513 35.5 c 128,-1,20
 373 94 373 94 283 197.5 c 128,-1,21
 193 301 193 301 146 440.5 c 128,-1,22
 99 580 99 580 99 746 c 0,23,24
 99 1100 99 1100 293 1312.5 c 128,-1,25
 487 1525 487 1525 829 1525 c 128,-1,26
 1171 1525 1171 1525 1364.5 1312.5 c 128,-1,27
 1558 1100 1558 1100 1558 746 c 0,28,29
 1558 580 1558 580 1511 440.5 c 128,-1,30
 1464 301 1464 301 1374 197.5 c 128,-1,31
 1284 94 1284 94 1144.5 35.5 c 128,-1,18
 1005 -23 1005 -23 829 -23 c 128,-1,19
EndSplineSet
EndChar

StartChar: P
Encoding: 80 80 51
Width: 1159
GlyphClass: 2
Flags: W
LayerCount: 2
Fore
SplineSet
584 778 m 0,0,1
 682 778 682 778 752 797 c 128,-1,2
 822 816 822 816 859.5 844 c 128,-1,3
 897 872 897 872 918.5 917 c 128,-1,4
 940 962 940 962 945 999.5 c 128,-1,5
 950 1037 950 1037 950 1090 c 0,6,7
 950 1217 950 1217 864.5 1277 c 128,-1,8
 779 1337 779 1337 632 1337 c 2,9,-1
 323 1337 l 1,10,-1
 323 780 l 1,11,12
 516 778 516 778 584 778 c 0,0,1
323 0 m 1,13,-1
 146 0 l 1,14,-1
 146 1496 l 1,15,-1
 628 1496 l 2,16,17
 738 1496 738 1496 827 1473 c 128,-1,18
 916 1450 916 1450 985 1403 c 128,-1,19
 1054 1356 1054 1356 1092 1277 c 128,-1,20
 1130 1198 1130 1198 1130 1093 c 0,21,22
 1130 1006 1130 1006 1114 937.5 c 128,-1,23
 1098 869 1098 869 1059 809 c 128,-1,24
 1020 749 1020 749 957 709.5 c 128,-1,25
 894 670 894 670 795.5 647.5 c 128,-1,26
 697 625 697 625 567 625 c 0,27,28
 464 625 464 625 323 638 c 1,29,-1
 323 0 l 1,13,-1
EndSplineSet
EndChar

StartChar: Q
Encoding: 81 81 52
Width: 1657
GlyphClass: 2
Flags: W
LayerCount: 2
Fore
SplineSet
829 1373 m 0,0,1
 565 1373 565 1373 426.5 1204.5 c 128,-1,2
 288 1036 288 1036 288 746 c 0,3,4
 288 614 288 614 320.5 504 c 128,-1,5
 353 394 353 394 417 309 c 128,-1,6
 481 224 481 224 586.5 176.5 c 128,-1,7
 692 129 692 129 829 129 c 0,8,9
 939 129 939 129 1029 160.5 c 128,-1,10
 1119 192 1119 192 1181.5 247 c 128,-1,11
 1244 302 1244 302 1286.5 380 c 128,-1,12
 1329 458 1329 458 1349 549.5 c 128,-1,13
 1369 641 1369 641 1369 746 c 0,14,15
 1369 935 1369 935 1310 1074.5 c 128,-1,16
 1251 1214 1251 1214 1128.5 1293.5 c 128,-1,17
 1006 1373 1006 1373 829 1373 c 0,0,1
1267 -470 m 1,18,19
 1218 -421 1218 -421 1107.5 -276 c 128,-1,20
 997 -131 997 -131 942 -17 c 1,21,22
 943 -16 943 -16 944 -16 c 1,23,24
 879 -23 879 -23 829 -23 c 0,25,26
 653 -23 653 -23 513 35.5 c 128,-1,27
 373 94 373 94 283 197.5 c 128,-1,28
 193 301 193 301 146 440.5 c 128,-1,29
 99 580 99 580 99 746 c 0,30,31
 99 1100 99 1100 293 1312.5 c 128,-1,32
 487 1525 487 1525 829 1525 c 128,-1,33
 1171 1525 1171 1525 1364.5 1312.5 c 128,-1,34
 1558 1100 1558 1100 1558 746 c 0,35,36
 1558 485 1558 485 1443 292.5 c 128,-1,37
 1328 100 1328 100 1112 23 c 1,38,39
 1155 -72 1155 -72 1250 -193 c 128,-1,40
 1345 -314 1345 -314 1385 -350 c 1,41,-1
 1267 -470 l 1,18,19
EndSplineSet
EndChar

StartChar: R
Encoding: 82 82 53
Width: 1339
GlyphClass: 2
Flags: W
LayerCount: 2
Fore
SplineSet
324 1341 m 1,0,-1
 324 841 l 1,1,-1
 679 837 l 2,2,3
 780 836 780 836 848 851.5 c 128,-1,4
 916 867 916 867 955.5 901.5 c 128,-1,5
 995 936 995 936 1011.5 984 c 128,-1,6
 1028 1032 1028 1032 1028 1102 c 0,7,8
 1028 1223 1028 1223 957.5 1282 c 128,-1,9
 887 1341 887 1341 720 1341 c 2,10,-1
 324 1341 l 1,0,-1
1272 0 m 1,11,-1
 1072 0 l 1,12,-1
 868 464 l 2,13,14
 785 651 785 651 762 689 c 1,15,16
 690 684 690 684 589 684 c 1,17,-1
 324 692 l 1,18,-1
 324 0 l 1,19,-1
 147 0 l 1,20,-1
 147 1496 l 1,21,-1
 620 1496 l 2,22,23
 702 1496 702 1496 765 1492 c 128,-1,24
 828 1488 828 1488 890.5 1477.5 c 128,-1,25
 953 1467 953 1467 999 1448.5 c 128,-1,26
 1045 1430 1045 1430 1085 1400.5 c 128,-1,27
 1125 1371 1125 1371 1149.5 1330 c 128,-1,28
 1174 1289 1174 1289 1188 1232.5 c 128,-1,29
 1202 1176 1202 1176 1202 1105 c 0,30,31
 1202 962 1202 962 1131.5 862 c 128,-1,32
 1061 762 1061 762 920 724 c 0,33,34
 919 724 919 724 938.5 690.5 c 128,-1,35
 958 657 958 657 986.5 606 c 128,-1,36
 1015 555 1015 555 1030 522 c 2,37,-1
 1272 0 l 1,11,-1
EndSplineSet
EndChar

StartChar: S
Encoding: 83 83 54
Width: 1227
GlyphClass: 2
Flags: W
LayerCount: 2
Fore
SplineSet
146 244 m 1,0,1
 377 130 377 130 641 130 c 0,2,3
 966 130 966 130 966 426 c 0,4,5
 966 522 966 522 914.5 581.5 c 128,-1,6
 863 641 863 641 727 675 c 2,7,-1
 433 749 l 2,8,9
 96 834 96 834 96 1109 c 0,10,11
 96 1320 96 1320 241 1422.5 c 128,-1,12
 386 1525 386 1525 642 1525 c 0,13,14
 776 1525 776 1525 893 1496 c 128,-1,15
 1010 1467 1010 1467 1089 1418 c 1,16,-1
 1039 1277 l 1,17,18
 972 1314 972 1314 861.5 1343 c 128,-1,19
 751 1372 751 1372 638 1372 c 0,20,21
 276 1372 276 1372 276 1121 c 0,22,23
 276 1036 276 1036 331.5 984.5 c 128,-1,24
 387 933 387 933 498 906 c 2,25,-1
 779 838 l 2,26,27
 959 795 959 795 1052 700.5 c 128,-1,28
 1145 606 1145 606 1145 432 c 0,29,30
 1145 206 1145 206 1006.5 91.5 c 128,-1,31
 868 -23 868 -23 630 -23 c 0,32,33
 452 -23 452 -23 313.5 13.5 c 128,-1,34
 175 50 175 50 94 100 c 1,35,-1
 146 244 l 1,0,1
EndSplineSet
EndChar

StartChar: T
Encoding: 84 84 55
Width: 1066
GlyphClass: 2
Flags: W
LayerCount: 2
Fore
SplineSet
-3 1341 m 1,0,-1
 -3 1496 l 1,1,-1
 1069 1496 l 1,2,-1
 1069 1341 l 1,3,-1
 621 1341 l 1,4,-1
 621 0 l 1,5,-1
 444 0 l 1,6,-1
 444 1341 l 1,7,-1
 -3 1341 l 1,0,-1
EndSplineSet
EndChar

StartChar: U
Encoding: 85 85 56
Width: 1386
GlyphClass: 2
Flags: W
LayerCount: 2
Fore
SplineSet
688 -23 m 128,-1,1
 528 -23 528 -23 417.5 12.5 c 128,-1,2
 307 48 307 48 244 119 c 128,-1,3
 181 190 181 190 154 282 c 128,-1,4
 127 374 127 374 127 500 c 2,5,-1
 127 1496 l 1,6,-1
 304 1496 l 1,7,-1
 304 506 l 2,8,9
 304 396 304 396 325.5 323 c 128,-1,10
 347 250 347 250 395 206 c 128,-1,11
 443 162 443 162 513.5 143.5 c 128,-1,12
 584 125 584 125 688 125 c 0,13,14
 895 125 895 125 984 208.5 c 128,-1,15
 1073 292 1073 292 1073 506 c 2,16,-1
 1073 1496 l 1,17,-1
 1250 1496 l 1,18,-1
 1250 500 l 2,19,20
 1250 374 1250 374 1223 282 c 128,-1,21
 1196 190 1196 190 1133 119 c 128,-1,22
 1070 48 1070 48 959 12.5 c 128,-1,0
 848 -23 848 -23 688 -23 c 128,-1,1
EndSplineSet
EndChar

StartChar: V
Encoding: 86 86 57
Width: 1265
GlyphClass: 2
Flags: W
LayerCount: 2
Fore
SplineSet
632 194 m 1,0,1
 930 1053 930 1053 1089 1496 c 1,2,-1
 1275 1496 l 1,3,-1
 728 0 l 1,4,-1
 536 0 l 1,5,-1
 -10 1496 l 1,6,-1
 181 1496 l 1,7,-1
 632 194 l 1,0,1
EndSplineSet
EndChar

StartChar: W
Encoding: 87 87 58
Width: 2131
GlyphClass: 2
Flags: W
LayerCount: 2
Fore
SplineSet
1541 195 m 1,0,-1
 1976 1496 l 1,1,-1
 2158 1496 l 1,2,-1
 1645 0 l 1,3,-1
 1435 0 l 1,4,-1
 1084 1225 l 1,5,-1
 684 0 l 1,6,-1
 476 0 l 1,7,-1
 -27 1496 l 1,8,-1
 156 1496 l 1,9,-1
 586 197 l 1,10,-1
 976 1442 l 1,11,-1
 1186 1442 l 1,12,-1
 1541 195 l 1,0,-1
EndSplineSet
EndChar

StartChar: X
Encoding: 88 88 59
Width: 1299
GlyphClass: 2
Flags: W
LayerCount: 2
Fore
SplineSet
11 0 m 1,0,-1
 536 781 l 1,1,-1
 43 1496 l 1,2,-1
 257 1496 l 1,3,-1
 660 892 l 1,4,-1
 1090 1496 l 1,5,-1
 1280 1496 l 1,6,-1
 781 781 l 1,7,-1
 1288 0 l 1,8,-1
 1083 0 l 1,9,-1
 653 680 l 1,10,-1
 206 0 l 1,11,-1
 11 0 l 1,0,-1
EndSplineSet
EndChar

StartChar: Y
Encoding: 89 89 60
Width: 1242
GlyphClass: 2
Flags: W
LayerCount: 2
Fore
SplineSet
1243 1496 m 1,0,-1
 687 614 l 1,1,-1
 687 0 l 1,2,-1
 510 0 l 1,3,-1
 510 614 l 1,4,-1
 -1 1496 l 1,5,-1
 187 1496 l 1,6,-1
 610 778 l 1,7,-1
 1051 1496 l 1,8,-1
 1243 1496 l 1,0,-1
EndSplineSet
EndChar

StartChar: Z
Encoding: 90 90 61
Width: 1200
GlyphClass: 2
Flags: W
LayerCount: 2
Fore
SplineSet
1157 1496 m 1,0,-1
 1157 1372 l 1,1,-1
 315 155 l 1,2,-1
 1149 155 l 1,3,-1
 1137 0 l 1,4,-1
 91 0 l 1,5,-1
 91 139 l 1,6,-1
 922 1341 l 1,7,-1
 125 1341 l 1,8,-1
 125 1496 l 1,9,-1
 1157 1496 l 1,0,-1
EndSplineSet
EndChar

StartChar: bracketleft
Encoding: 91 91 62
Width: 678
GlyphClass: 2
Flags: W
LayerCount: 2
Fore
SplineSet
570 -139 m 1,0,-1
 570 -261 l 1,1,-1
 121 -261 l 1,2,-1
 121 1505 l 1,3,-1
 570 1505 l 1,4,-1
 570 1381 l 1,5,-1
 299 1381 l 1,6,-1
 299 -139 l 1,7,-1
 570 -139 l 1,0,-1
EndSplineSet
EndChar

StartChar: backslash
Encoding: 92 92 63
Width: 935
GlyphClass: 2
Flags: W
LayerCount: 2
Fore
SplineSet
881 -120 m 1,0,-1
 735 -120 l 1,1,-1
 82 1466 l 1,2,-1
 230 1466 l 1,3,-1
 881 -120 l 1,0,-1
EndSplineSet
EndChar

StartChar: bracketright
Encoding: 93 93 64
Width: 678
GlyphClass: 2
Flags: W
LayerCount: 2
Fore
SplineSet
109 -139 m 1,0,-1
 380 -139 l 1,1,-1
 380 1381 l 1,2,-1
 109 1381 l 1,3,-1
 109 1505 l 1,4,-1
 558 1505 l 1,5,-1
 558 -261 l 1,6,-1
 109 -261 l 1,7,-1
 109 -139 l 1,0,-1
EndSplineSet
EndChar

StartChar: asciicircum
Encoding: 94 94 65
Width: 1204
GlyphClass: 2
Flags: W
LayerCount: 2
Fore
SplineSet
227 627 m 1,0,-1
 90 627 l 1,1,-1
 546 1559 l 1,2,-1
 651 1559 l 1,3,-1
 1113 627 l 1,4,-1
 979 627 l 1,5,-1
 595 1375 l 1,6,-1
 227 627 l 1,0,-1
EndSplineSet
EndChar

StartChar: underscore
Encoding: 95 95 66
Width: 1252
GlyphClass: 2
Flags: W
LayerCount: 2
Fore
SplineSet
1102 -156 m 1,0,-1
 1102 -292 l 1,1,-1
 150 -292 l 1,2,-1
 150 -156 l 1,3,-1
 1102 -156 l 1,0,-1
EndSplineSet
EndChar

StartChar: grave
Encoding: 96 96 67
Width: 643
GlyphClass: 2
Flags: W
LayerCount: 2
Fore
SplineSet
408 1251 m 1,0,-1
 85 1638 l 1,1,-1
 335 1638 l 1,2,-1
 520 1251 l 1,3,-1
 408 1251 l 1,0,-1
EndSplineSet
EndChar

StartChar: a
Encoding: 97 97 68
Width: 1046
GlyphClass: 2
Flags: W
LayerCount: 2
Fore
SplineSet
437 107 m 0,0,1
 519 107 519 107 612.5 152 c 128,-1,2
 706 197 706 197 757 269 c 1,3,-1
 757 539 l 2,4,5
 757 538 757 538 708.5 531.5 c 128,-1,6
 660 525 660 525 657 525 c 0,7,8
 560 512 560 512 495 498 c 128,-1,9
 430 484 430 484 381 465.5 c 128,-1,10
 332 447 332 447 305.5 421 c 128,-1,11
 279 395 279 395 266.5 361 c 128,-1,12
 254 327 254 327 254 280 c 0,13,14
 254 192 254 192 303.5 149.5 c 128,-1,15
 353 107 353 107 437 107 c 0,0,1
762 120 m 1,16,17
 633 -25 633 -25 419 -25 c 0,18,19
 350 -25 350 -25 290.5 -6.5 c 128,-1,20
 231 12 231 12 185 48 c 128,-1,21
 139 84 139 84 112.5 142 c 128,-1,22
 86 200 86 200 86 275 c 0,23,24
 86 466 86 466 258 550 c 1,25,26
 358 600 358 600 582 634 c 0,27,28
 602 637 602 637 647 643 c 2,29,-1
 757 656 l 1,30,-1
 757 781 l 2,31,32
 757 882 757 882 705 932.5 c 128,-1,33
 653 983 653 983 541 983 c 0,34,35
 452 983 452 983 359.5 962.5 c 128,-1,36
 267 942 267 942 198 909 c 1,37,-1
 152 1041 l 1,38,39
 217 1077 217 1077 321 1100.5 c 128,-1,40
 425 1124 425 1124 537 1124 c 0,41,42
 924 1124 924 1124 924 806 c 2,43,-1
 924 0 l 1,44,-1
 787 0 l 1,45,-1
 762 120 l 1,16,17
EndSplineSet
EndChar

StartChar: b
Encoding: 98 98 69
Width: 1171
GlyphClass: 2
Flags: W
LayerCount: 2
Fore
SplineSet
628 -25 m 0,0,1
 518 -25 518 -25 426.5 25 c 128,-1,2
 335 75 335 75 285 163 c 1,3,-1
 285 0 l 1,4,-1
 119 0 l 1,5,-1
 119 1490 l 1,6,-1
 287 1510 l 1,7,-1
 287 930 l 1,8,9
 347 1029 347 1029 440.5 1076.5 c 128,-1,10
 534 1124 534 1124 632 1124 c 0,11,12
 743 1124 743 1124 832.5 1077.5 c 128,-1,13
 922 1031 922 1031 978 952 c 128,-1,14
 1034 873 1034 873 1064 773 c 128,-1,15
 1094 673 1094 673 1094 562 c 0,16,17
 1094 441 1094 441 1064.5 336 c 128,-1,18
 1035 231 1035 231 978.5 149.5 c 128,-1,19
 922 68 922 68 832 21.5 c 128,-1,20
 742 -25 742 -25 628 -25 c 0,0,1
616 113 m 0,21,22
 684 113 684 113 738 139.5 c 128,-1,23
 792 166 792 166 825.5 209 c 128,-1,24
 859 252 859 252 881 310.5 c 128,-1,25
 903 369 903 369 912 428 c 128,-1,26
 921 487 921 487 921 551 c 0,27,28
 921 631 921 631 906 703 c 128,-1,29
 891 775 891 775 859 841 c 128,-1,30
 827 907 827 907 765.5 946.5 c 128,-1,31
 704 986 704 986 621 986 c 1,32,33
 475 984 475 984 380 863.5 c 128,-1,34
 285 743 285 743 285 551 c 0,35,36
 285 460 285 460 304.5 382.5 c 128,-1,37
 324 305 324 305 363 243.5 c 128,-1,38
 402 182 402 182 467 147.5 c 128,-1,39
 532 113 532 113 616 113 c 0,21,22
EndSplineSet
PairPos2: "'kern' Horizontal Kerning in Latin lookup 0 per glyph data 1" b dx=0 dy=0 dh=-19 dv=0 dx=0 dy=0 dh=0 dv=0
PairPos2: "'kern' Horizontal Kerning in Latin lookup 0 per glyph data 1" b dx=0 dy=0 dh=-19 dv=0 dx=0 dy=0 dh=0 dv=0
EndChar

StartChar: c
Encoding: 99 99 70
Width: 953
GlyphClass: 2
Flags: W
LayerCount: 2
Fore
SplineSet
904 75 m 1,0,1
 852 26 852 26 772 0.5 c 128,-1,2
 692 -25 692 -25 607 -25 c 0,3,4
 483 -25 483 -25 381 21.5 c 128,-1,5
 279 68 279 68 213.5 147.5 c 128,-1,6
 148 227 148 227 112.5 330 c 128,-1,7
 77 433 77 433 77 549 c 1,8,9
 78 663 78 663 115 766.5 c 128,-1,10
 152 870 152 870 218 950 c 128,-1,11
 284 1030 284 1030 384.5 1077 c 128,-1,12
 485 1124 485 1124 604 1124 c 0,13,14
 699 1124 699 1124 777.5 1099 c 128,-1,15
 856 1074 856 1074 903 1029 c 1,16,-1
 861 910 l 1,17,18
 747 986 747 986 602 986 c 0,19,20
 451 986 451 986 349.5 860.5 c 128,-1,21
 248 735 248 735 248 545 c 128,-1,22
 248 355 248 355 349.5 234 c 128,-1,23
 451 113 451 113 615 113 c 0,24,25
 746 113 746 113 862 195 c 1,26,-1
 904 75 l 1,0,1
EndSplineSet
PairPos2: "'kern' Horizontal Kerning in Latin lookup 0 per glyph data 1" c dx=0 dy=0 dh=-12 dv=0 dx=0 dy=0 dh=0 dv=0
PairPos2: "'kern' Horizontal Kerning in Latin lookup 0 per glyph data 1" c dx=0 dy=0 dh=-12 dv=0 dx=0 dy=0 dh=0 dv=0
EndChar

StartChar: d
Encoding: 100 100 71
Width: 1173
GlyphClass: 2
Flags: W
LayerCount: 2
Fore
SplineSet
557 124 m 0,0,1
 718 124 718 124 802.5 244 c 128,-1,2
 887 364 887 364 887 551 c 0,3,4
 887 641 887 641 867.5 717 c 128,-1,5
 848 793 848 793 809 852 c 128,-1,6
 770 911 770 911 705 944 c 128,-1,7
 640 977 640 977 555 977 c 0,8,9
 475 977 475 977 413.5 940 c 128,-1,10
 352 903 352 903 318 841 c 128,-1,11
 284 779 284 779 267 707.5 c 128,-1,12
 250 636 250 636 250 557 c 0,13,14
 250 471 250 471 266.5 396.5 c 128,-1,15
 283 322 283 322 317.5 259.5 c 128,-1,16
 352 197 352 197 413.5 160.5 c 128,-1,17
 475 124 475 124 557 124 c 0,0,1
546 -24 m 0,18,19
 328 -24 328 -24 202.5 138 c 128,-1,20
 77 300 77 300 77 562 c 0,21,22
 77 717 77 717 134 845 c 128,-1,23
 191 973 191 973 297.5 1049 c 128,-1,24
 404 1125 404 1125 540 1125 c 0,25,26
 651 1125 651 1125 747.5 1074 c 128,-1,27
 844 1023 844 1023 886 937 c 1,28,-1
 886 1490 l 1,29,-1
 1054 1510 l 1,30,-1
 1054 0 l 1,31,-1
 905 0 l 1,32,-1
 884 172 l 1,33,34
 835 84 835 84 745.5 30 c 128,-1,35
 656 -24 656 -24 546 -24 c 0,18,19
EndSplineSet
PairPos2: "'kern' Horizontal Kerning in Latin lookup 0 per glyph data 1" d dx=0 dy=0 dh=-17 dv=0 dx=0 dy=0 dh=0 dv=0
PairPos2: "'kern' Horizontal Kerning in Latin lookup 0 per glyph data 1" d dx=0 dy=0 dh=-17 dv=0 dx=0 dy=0 dh=0 dv=0
EndChar

StartChar: e
Encoding: 101 101 72
Width: 1085
GlyphClass: 2
Flags: W
LayerCount: 2
Fore
SplineSet
582 -25 m 0,0,1
 348 -25 348 -25 213 130 c 128,-1,2
 78 285 78 285 78 551 c 0,3,4
 78 797 78 797 213 957.5 c 128,-1,5
 348 1118 348 1118 562 1124 c 1,6,7
 766 1124 766 1124 884.5 981 c 128,-1,8
 1003 838 1003 838 1003 594 c 0,9,10
 1003 586 1003 586 1002 557.5 c 128,-1,11
 1001 529 1001 529 1001 519 c 1,12,-1
 250 519 l 1,13,14
 250 337 250 337 345 228 c 128,-1,15
 440 119 440 119 587 119 c 0,16,17
 773 119 773 119 935 229 c 1,18,-1
 987 107 l 1,19,20
 833 -25 833 -25 582 -25 c 0,0,1
256 635 m 1,21,-1
 841 635 l 1,22,23
 841 805 841 805 764 896.5 c 128,-1,24
 687 988 687 988 561 988 c 0,25,26
 436 988 436 988 353 892.5 c 128,-1,27
 270 797 270 797 256 635 c 1,21,-1
EndSplineSet
PairPos2: "'kern' Horizontal Kerning in Latin lookup 0 per glyph data 1" o dx=0 dy=0 dh=-12 dv=0 dx=0 dy=0 dh=0 dv=0
PairPos2: "'kern' Horizontal Kerning in Latin lookup 0 per glyph data 1" o dx=0 dy=0 dh=-12 dv=0 dx=0 dy=0 dh=0 dv=0
EndChar

StartChar: f
Encoding: 102 102 73
Width: 641
GlyphClass: 2
Flags: W
LayerCount: 2
Fore
SplineSet
39 980 m 1,0,-1
 39 1098 l 1,1,-1
 200 1098 l 1,2,-1
 200 1130 l 1,3,4
 202 1254 202 1254 220 1331 c 128,-1,5
 238 1408 238 1408 282 1454.5 c 128,-1,6
 326 1501 326 1501 390.5 1518.5 c 128,-1,7
 455 1536 455 1536 558 1536 c 2,8,-1
 631 1536 l 1,9,-1
 651 1408 l 1,10,-1
 557 1408 l 2,11,12
 504 1408 504 1408 470.5 1398 c 128,-1,13
 437 1388 437 1388 416 1371 c 128,-1,14
 395 1354 395 1354 385 1316.5 c 128,-1,15
 375 1279 375 1279 371.5 1239.5 c 128,-1,16
 368 1200 368 1200 368 1130 c 2,17,-1
 368 1098 l 1,18,-1
 617 1098 l 1,19,-1
 617 980 l 1,20,-1
 368 980 l 1,21,-1
 368 0 l 1,22,-1
 200 0 l 1,23,-1
 200 980 l 1,24,-1
 39 980 l 1,0,-1
EndSplineSet
PairPos2: "'kern' Horizontal Kerning in Latin lookup 0 per glyph data 1" f dx=0 dy=0 dh=-50 dv=0 dx=0 dy=0 dh=0 dv=0
PairPos2: "'kern' Horizontal Kerning in Latin lookup 0 per glyph data 1" f dx=0 dy=0 dh=-50 dv=0 dx=0 dy=0 dh=0 dv=0
PairPos2: "'kern' Horizontal Kerning in Latin lookup 0 per glyph data 1" comma dx=0 dy=0 dh=-60 dv=0 dx=0 dy=0 dh=0 dv=0
PairPos2: "'kern' Horizontal Kerning in Latin lookup 0 per glyph data 1" comma dx=0 dy=0 dh=-60 dv=0 dx=0 dy=0 dh=0 dv=0
EndChar

StartChar: g
Encoding: 103 103 74
Width: 1165
GlyphClass: 2
Flags: W
LayerCount: 2
Fore
SplineSet
324 -502 m 1,0,-1
 302 -351 l 1,1,-1
 506 -351 l 2,2,3
 591 -351 591 -351 654 -339 c 128,-1,4
 717 -327 717 -327 759 -299.5 c 128,-1,5
 801 -272 801 -272 827 -238.5 c 128,-1,6
 853 -205 853 -205 866.5 -151.5 c 128,-1,7
 880 -98 880 -98 884.5 -45.5 c 128,-1,8
 889 7 889 7 889 83 c 2,9,-1
 889 180 l 1,10,11
 829 93 829 93 750.5 47 c 128,-1,12
 672 1 672 1 551 1 c 0,13,14
 457 1 457 1 378 33.5 c 128,-1,15
 299 66 299 66 245 120 c 128,-1,16
 191 174 191 174 153 245 c 128,-1,17
 115 316 115 316 97.5 392 c 128,-1,18
 80 468 80 468 80 545 c 0,19,20
 80 640 80 640 98 725 c 128,-1,21
 116 810 116 810 154.5 883.5 c 128,-1,22
 193 957 193 957 249 1010 c 128,-1,23
 305 1063 305 1063 385.5 1093.5 c 128,-1,24
 466 1124 466 1124 563 1124 c 0,25,26
 767 1124 767 1124 894 951 c 1,27,-1
 894 1098 l 1,28,-1
 1057 1098 l 1,29,-1
 1057 79 l 2,30,31
 1057 9 1057 9 1053.5 -43.5 c 128,-1,32
 1050 -96 1050 -96 1036.5 -160 c 128,-1,33
 1023 -224 1023 -224 1000 -270 c 128,-1,34
 977 -316 977 -316 935.5 -362.5 c 128,-1,35
 894 -409 894 -409 836.5 -437.5 c 128,-1,36
 779 -466 779 -466 694 -484 c 128,-1,37
 609 -502 609 -502 502 -502 c 2,38,-1
 324 -502 l 1,0,-1
576 143 m 0,39,40
 645 143 645 143 699.5 163 c 128,-1,41
 754 183 754 183 790 217.5 c 128,-1,42
 826 252 826 252 849.5 300 c 128,-1,43
 873 348 873 348 883.5 401.5 c 128,-1,44
 894 455 894 455 894 516 c 2,45,-1
 894 597 l 2,46,47
 894 678 894 678 876 745.5 c 128,-1,48
 858 813 858 813 821 867 c 128,-1,49
 784 921 784 921 721.5 951.5 c 128,-1,50
 659 982 659 982 577 982 c 0,51,52
 493 982 493 982 427.5 942.5 c 128,-1,53
 362 903 362 903 325.5 838.5 c 128,-1,54
 289 774 289 774 270.5 701.5 c 128,-1,55
 252 629 252 629 252 554 c 0,56,57
 252 496 252 496 263.5 439 c 128,-1,58
 275 382 275 382 301 328 c 128,-1,59
 327 274 327 274 364 233.5 c 128,-1,60
 401 193 401 193 456 168 c 128,-1,61
 511 143 511 143 576 143 c 0,39,40
EndSplineSet
PairPos2: "'kern' Horizontal Kerning in Latin lookup 0 per glyph data 1" g dx=0 dy=0 dh=-14 dv=0 dx=0 dy=0 dh=0 dv=0
PairPos2: "'kern' Horizontal Kerning in Latin lookup 0 per glyph data 1" g dx=0 dy=0 dh=-14 dv=0 dx=0 dy=0 dh=0 dv=0
EndChar

StartChar: h
Encoding: 104 104 75
Width: 1112
GlyphClass: 2
Flags: W
LayerCount: 2
Fore
SplineSet
282 0 m 1,0,-1
 282 768 l 1,1,2
 303 850 303 850 399.5 915 c 128,-1,3
 496 980 496 980 619 980 c 0,4,5
 675 980 675 980 714 965.5 c 128,-1,6
 753 951 753 951 777.5 924.5 c 128,-1,7
 802 898 802 898 815.5 851.5 c 128,-1,8
 829 805 829 805 834 751 c 128,-1,9
 839 697 839 697 839 617 c 2,10,-1
 839 0 l 1,11,-1
 1007 0 l 1,12,-1
 1007 664 l 2,13,14
 1007 1124 1007 1124 674 1124 c 0,15,16
 550 1124 550 1124 448 1081 c 128,-1,17
 346 1038 346 1038 282 961 c 1,18,-1
 282 1510 l 1,19,-1
 114 1490 l 1,20,-1
 114 0 l 1,21,-1
 282 0 l 1,0,-1
EndSplineSet
EndChar

StartChar: i
Encoding: 105 105 76
Width: 476
GlyphClass: 2
Flags: W
LayerCount: 2
Fore
SplineSet
327 1496 m 1,0,-1
 327 1298 l 1,1,-1
 159 1298 l 1,2,-1
 159 1496 l 1,3,-1
 327 1496 l 1,0,-1
327 1098 m 1,4,-1
 327 0 l 1,5,-1
 159 0 l 1,6,-1
 159 1098 l 1,7,-1
 327 1098 l 1,4,-1
EndSplineSet
EndChar

StartChar: j
Encoding: 106 106 77
Width: 445
GlyphClass: 2
Flags: W
LayerCount: 2
Fore
SplineSet
330 1496 m 1,0,-1
 330 1298 l 1,1,-1
 162 1298 l 1,2,-1
 162 1496 l 1,3,-1
 330 1496 l 1,0,-1
330 1098 m 1,4,-1
 330 -139 l 2,5,6
 330 -245 330 -245 316.5 -310 c 128,-1,7
 303 -375 303 -375 265.5 -420.5 c 128,-1,8
 228 -466 228 -466 164 -484 c 128,-1,9
 100 -502 100 -502 -3 -502 c 2,10,-1
 -55 -502 l 1,11,-1
 -77 -351 l 1,12,-1
 -25 -351 l 2,13,14
 14 -351 14 -351 42.5 -346.5 c 128,-1,15
 71 -342 71 -342 91.5 -335 c 128,-1,16
 112 -328 112 -328 125 -312 c 128,-1,17
 138 -296 138 -296 145.5 -281.5 c 128,-1,18
 153 -267 153 -267 156.5 -238 c 128,-1,19
 160 -209 160 -209 161 -186 c 128,-1,20
 162 -163 162 -163 162 -121 c 2,21,-1
 162 1098 l 1,22,-1
 330 1098 l 1,4,-1
EndSplineSet
EndChar

StartChar: k
Encoding: 107 107 78
Width: 1006
GlyphClass: 2
Flags: W
LayerCount: 2
Fore
SplineSet
114 1490 m 1,0,-1
 282 1510 l 1,1,-1
 282 632 l 1,2,-1
 771 1098 l 1,3,-1
 998 1098 l 1,4,-1
 529 642 l 1,5,-1
 1031 0 l 1,6,-1
 816 0 l 1,7,-1
 401 563 l 1,8,-1
 282 461 l 1,9,-1
 282 0 l 1,10,-1
 114 0 l 1,11,-1
 114 1490 l 1,0,-1
EndSplineSet
PairPos2: "'kern' Horizontal Kerning in Latin lookup 0 per glyph data 1" o dx=0 dy=0 dh=-21 dv=0 dx=0 dy=0 dh=0 dv=0
PairPos2: "'kern' Horizontal Kerning in Latin lookup 0 per glyph data 1" o dx=0 dy=0 dh=-21 dv=0 dx=0 dy=0 dh=0 dv=0
EndChar

StartChar: l
Encoding: 108 108 79
Width: 550
GlyphClass: 2
Flags: W
LayerCount: 2
Fore
SplineSet
311 1510 m 1,0,-1
 311 431 l 2,1,2
 311 363 311 363 312 324 c 128,-1,3
 313 285 313 285 317 244.5 c 128,-1,4
 321 204 321 204 328.5 184 c 128,-1,5
 336 164 336 164 350 146.5 c 128,-1,6
 364 129 364 129 383.5 123 c 128,-1,7
 403 117 403 117 432 117 c 0,8,9
 444 117 444 117 522 123 c 1,10,-1
 533 -8 l 1,11,12
 459 -21 459 -21 419 -21 c 0,13,14
 361 -21 361 -21 319 -11.5 c 128,-1,15
 277 -2 277 -2 246.5 11 c 128,-1,16
 216 24 216 24 197 58 c 128,-1,17
 178 92 178 92 166.5 121.5 c 128,-1,18
 155 151 155 151 150 213.5 c 128,-1,19
 145 276 145 276 144 325 c 128,-1,20
 143 374 143 374 143 468 c 2,21,-1
 143 1490 l 1,22,-1
 311 1510 l 1,0,-1
EndSplineSet
EndChar

StartChar: m
Encoding: 109 109 80
Width: 1773
GlyphClass: 2
Flags: W
LayerCount: 2
Fore
SplineSet
114 0 m 1,0,-1
 282 0 l 1,1,-1
 282 769 l 1,2,3
 311 859 311 859 400.5 919 c 128,-1,4
 490 979 490 979 626 979 c 0,5,6
 743 979 743 979 784 895 c 128,-1,7
 825 811 825 811 825 628 c 2,8,-1
 825 0 l 1,9,-1
 993 0 l 1,10,-1
 993 761 l 1,11,12
 1026 861 1026 861 1111.5 920 c 128,-1,13
 1197 979 1197 979 1303 979 c 0,14,15
 1342 979 1342 979 1372.5 969 c 128,-1,16
 1403 959 1403 959 1423.5 943 c 128,-1,17
 1444 927 1444 927 1459 899 c 128,-1,18
 1474 871 1474 871 1481.5 845 c 128,-1,19
 1489 819 1489 819 1493.5 779 c 128,-1,20
 1498 739 1498 739 1499 707.5 c 128,-1,21
 1500 676 1500 676 1500 630 c 2,22,-1
 1500 0 l 1,23,-1
 1668 0 l 1,24,-1
 1668 667 l 2,25,26
 1668 1124 1668 1124 1338 1124 c 0,27,28
 1091 1124 1091 1124 938 932 c 1,29,30
 863 1124 863 1124 634 1124 c 0,31,32
 529 1124 529 1124 433 1083 c 128,-1,33
 337 1042 337 1042 271 954 c 1,34,-1
 255 1098 l 1,35,-1
 111 1098 l 1,36,37
 114 913 114 913 114 820 c 2,38,-1
 114 0 l 1,0,-1
EndSplineSet
EndChar

StartChar: n
Encoding: 110 110 81
Width: 1112
GlyphClass: 2
Flags: W
LayerCount: 2
Fore
SplineSet
661 1124 m 0,0,1
 839 1124 839 1124 923 1007.5 c 128,-1,2
 1007 891 1007 891 1007 657 c 2,3,-1
 1007 0 l 1,4,-1
 839 0 l 1,5,-1
 839 551 l 2,6,7
 839 622 839 622 838 665.5 c 128,-1,8
 837 709 837 709 832.5 760 c 128,-1,9
 828 811 828 811 819 840.5 c 128,-1,10
 810 870 810 870 794.5 900 c 128,-1,11
 779 930 779 930 756 945.5 c 128,-1,12
 733 961 733 961 700.5 970.5 c 128,-1,13
 668 980 668 980 625 980 c 0,14,15
 495 980 495 980 399.5 916 c 128,-1,16
 304 852 304 852 282 771 c 1,17,-1
 282 0 l 1,18,-1
 114 0 l 1,19,-1
 114 831 l 1,20,-1
 111 1098 l 1,21,-1
 255 1098 l 1,22,-1
 271 956 l 1,23,24
 332 1040 332 1040 436 1082 c 128,-1,25
 540 1124 540 1124 661 1124 c 0,0,1
EndSplineSet
EndChar

StartChar: o
Encoding: 111 111 82
Width: 1179
GlyphClass: 2
Flags: W
LayerCount: 2
Fore
SplineSet
928 547 m 0,0,1
 928 638 928 638 910 714.5 c 128,-1,2
 892 791 892 791 854 853.5 c 128,-1,3
 816 916 816 916 749.5 951 c 128,-1,4
 683 986 683 986 594 986 c 0,5,6
 509 986 509 986 441.5 949 c 128,-1,7
 374 912 374 912 333 849 c 128,-1,8
 292 786 292 786 271 708 c 128,-1,9
 250 630 250 630 250 544 c 0,10,11
 250 459 250 459 271 383 c 128,-1,12
 292 307 292 307 333 246 c 128,-1,13
 374 185 374 185 442 149 c 128,-1,14
 510 113 510 113 597 113 c 0,15,16
 683 113 683 113 748.5 149 c 128,-1,17
 814 185 814 185 852 246.5 c 128,-1,18
 890 308 890 308 909 384 c 128,-1,19
 928 460 928 460 928 547 c 0,0,1
1102 549 m 0,20,21
 1102 434 1102 434 1068.5 331 c 128,-1,22
 1035 228 1035 228 972 148 c 128,-1,23
 909 68 909 68 811.5 21.5 c 128,-1,24
 714 -25 714 -25 594 -25 c 0,25,26
 433 -25 433 -25 314 53 c 128,-1,27
 195 131 195 131 136 259 c 128,-1,28
 77 387 77 387 77 547 c 0,29,30
 77 706 77 706 136.5 835.5 c 128,-1,31
 196 965 196 965 316 1044.5 c 128,-1,32
 436 1124 436 1124 597 1124 c 0,33,34
 696 1124 696 1124 778.5 1094.5 c 128,-1,35
 861 1065 861 1065 920 1012.5 c 128,-1,36
 979 960 979 960 1020.5 888 c 128,-1,37
 1062 816 1062 816 1082 730.5 c 128,-1,38
 1102 645 1102 645 1102 549 c 0,20,21
EndSplineSet
EndChar

StartChar: p
Encoding: 112 112 83
Width: 1167
GlyphClass: 2
Flags: W
LayerCount: 2
Fore
SplineSet
288 548 m 0,0,1
 288 457 288 457 306 381 c 128,-1,2
 324 305 324 305 360.5 245 c 128,-1,3
 397 185 397 185 459.5 151.5 c 128,-1,4
 522 118 522 118 605 118 c 0,5,6
 687 118 687 118 750 156.5 c 128,-1,7
 813 195 813 195 848 259 c 128,-1,8
 883 323 883 323 900 396 c 128,-1,9
 917 469 917 469 917 548 c 0,10,11
 917 610 917 610 907 669.5 c 128,-1,12
 897 729 897 729 873 786.5 c 128,-1,13
 849 844 849 844 814 887 c 128,-1,14
 779 930 779 930 725 956 c 128,-1,15
 671 982 671 982 605 982 c 0,16,17
 522 982 522 982 459.5 948 c 128,-1,18
 397 914 397 914 360.5 853.5 c 128,-1,19
 324 793 324 793 306 716.5 c 128,-1,20
 288 640 288 640 288 548 c 0,0,1
123 -459 m 1,21,-1
 123 1098 l 1,22,-1
 281 1098 l 1,23,-1
 291 951 l 1,24,25
 420 1124 420 1124 630 1124 c 0,26,27
 748 1124 748 1124 838 1077.5 c 128,-1,28
 928 1031 928 1031 982 949 c 128,-1,29
 1036 867 1036 867 1063 763 c 128,-1,30
 1090 659 1090 659 1090 537 c 0,31,32
 1090 425 1090 425 1058 323.5 c 128,-1,33
 1026 222 1026 222 968 144.5 c 128,-1,34
 910 67 910 67 822 21 c 128,-1,35
 734 -25 734 -25 630 -25 c 0,36,37
 402 -25 402 -25 291 160 c 1,38,-1
 291 -437 l 1,39,-1
 123 -459 l 1,21,-1
EndSplineSet
EndChar

StartChar: q
Encoding: 113 113 84
Width: 1172
GlyphClass: 2
Flags: W
LayerCount: 2
Fore
SplineSet
886 551 m 0,0,1
 886 672 886 672 853.5 765 c 128,-1,2
 821 858 821 858 745.5 917 c 128,-1,3
 670 976 670 976 558 976 c 0,4,5
 490 976 490 976 435.5 950.5 c 128,-1,6
 381 925 381 925 347 883.5 c 128,-1,7
 313 842 313 842 290.5 785.5 c 128,-1,8
 268 729 268 729 259 671 c 128,-1,9
 250 613 250 613 250 551 c 0,10,11
 250 486 250 486 259 427.5 c 128,-1,12
 268 369 268 369 291 312 c 128,-1,13
 314 255 314 255 348 214 c 128,-1,14
 382 173 382 173 436.5 148 c 128,-1,15
 491 123 491 123 559 123 c 128,-1,16
 627 123 627 123 682.5 145 c 128,-1,17
 738 167 738 167 775.5 206 c 128,-1,18
 813 245 813 245 838 299.5 c 128,-1,19
 863 354 863 354 874.5 416.5 c 128,-1,20
 886 479 886 479 886 551 c 0,0,1
539 -25 m 0,21,22
 428 -25 428 -25 338.5 21.5 c 128,-1,23
 249 68 249 68 193 146.5 c 128,-1,24
 137 225 137 225 107 325.5 c 128,-1,25
 77 426 77 426 77 538 c 0,26,27
 77 659 77 659 106.5 763.5 c 128,-1,28
 136 868 136 868 193 949.5 c 128,-1,29
 250 1031 250 1031 342 1077.5 c 128,-1,30
 434 1124 434 1124 551 1124 c 0,31,32
 767 1124 767 1124 886 938 c 1,33,-1
 886 1098 l 1,34,-1
 1051 1098 l 1,35,-1
 1051 -439 l 1,36,-1
 883 -459 l 1,37,-1
 883 171 l 1,38,39
 830 79 830 79 741 27 c 128,-1,40
 652 -25 652 -25 539 -25 c 0,21,22
EndSplineSet
EndChar

StartChar: r
Encoding: 114 114 85
Width: 654
GlyphClass: 2
Flags: W
LayerCount: 2
Fore
SplineSet
123 0 m 1,0,-1
 123 845 l 2,1,2
 123 889 123 889 121.5 973 c 128,-1,3
 120 1057 120 1057 120 1098 c 1,4,-1
 262 1098 l 1,5,-1
 275 908 l 1,6,7
 379 1098 379 1098 595 1098 c 2,8,-1
 627 1098 l 1,9,-1
 639 945 l 1,10,-1
 599 945 l 2,11,12
 452 945 452 945 371.5 859.5 c 128,-1,13
 291 774 291 774 291 644 c 2,14,-1
 291 0 l 1,15,-1
 123 0 l 1,0,-1
EndSplineSet
EndChar

StartChar: s
Encoding: 115 115 86
Width: 936
GlyphClass: 2
Flags: W
LayerCount: 2
Fore
SplineSet
854 294 m 1,0,1
 849 143 849 143 750 59 c 128,-1,2
 651 -25 651 -25 491 -25 c 0,3,4
 374 -25 374 -25 270 6 c 128,-1,5
 166 37 166 37 111 78 c 1,6,-1
 154 206 l 1,7,8
 183 187 183 187 220 169.5 c 128,-1,9
 257 152 257 152 327 133 c 128,-1,10
 397 114 397 114 465 114 c 2,11,-1
 482 114 l 2,12,13
 577 114 577 114 633.5 159.5 c 128,-1,14
 690 205 690 205 697 290 c 1,15,-1
 697 302 l 2,16,17
 697 425 697 425 531 471 c 2,18,-1
 384 512 l 2,19,20
 229 555 229 555 165.5 631 c 128,-1,21
 102 707 102 707 100 816 c 1,22,23
 100 875 100 875 123.5 929 c 128,-1,24
 147 983 147 983 191 1026.5 c 128,-1,25
 235 1070 235 1070 306.5 1096.5 c 128,-1,26
 378 1123 378 1123 467 1124 c 1,27,28
 660 1124 660 1124 799 1053 c 1,29,-1
 759 932 l 1,30,31
 611 991 611 991 479 991 c 1,32,33
 385 990 385 990 327 944 c 128,-1,34
 269 898 269 898 269 815 c 1,35,36
 270 761 270 761 306 723 c 128,-1,37
 342 685 342 685 426 663 c 2,38,-1
 577 622 l 2,39,40
 715 585 715 585 784.5 508 c 128,-1,41
 854 431 854 431 854 299 c 2,42,-1
 854 294 l 1,0,1
EndSplineSet
EndChar

StartChar: t
Encoding: 116 116 87
Width: 691
GlyphClass: 2
Flags: W
LayerCount: 2
Fore
SplineSet
358 980 m 1,0,-1
 358 367 l 2,1,2
 358 212 358 212 387.5 165 c 128,-1,3
 417 118 417 118 517 118 c 0,4,5
 525 118 525 118 541 119.5 c 128,-1,6
 557 121 557 121 590 124 c 128,-1,7
 623 127 623 127 653 129 c 1,8,-1
 668 -7 l 1,9,10
 520 -20 520 -20 478 -20 c 0,11,12
 433 -20 433 -20 397.5 -14.5 c 128,-1,13
 362 -9 362 -9 334 0 c 128,-1,14
 306 9 306 9 285 26.5 c 128,-1,15
 264 44 264 44 248.5 63.5 c 128,-1,16
 233 83 233 83 222.5 114 c 128,-1,17
 212 145 212 145 205.5 175.5 c 128,-1,18
 199 206 199 206 195.5 252 c 128,-1,19
 192 298 192 298 191 340.5 c 128,-1,20
 190 383 190 383 190 445 c 2,21,-1
 190 980 l 1,22,-1
 23 980 l 1,23,-1
 36 1098 l 1,24,-1
 190 1098 l 1,25,-1
 234 1453 l 1,26,-1
 358 1462 l 1,27,-1
 358 1098 l 1,28,-1
 649 1098 l 1,29,-1
 649 980 l 1,30,-1
 358 980 l 1,0,-1
EndSplineSet
EndChar

StartChar: u
Encoding: 117 117 88
Width: 1098
GlyphClass: 2
Flags: W
LayerCount: 2
Fore
SplineSet
108 378 m 2,0,-1
 108 1098 l 1,1,-1
 276 1098 l 1,2,-1
 276 376 l 2,3,4
 276 227 276 227 340 170 c 128,-1,5
 404 113 404 113 550 113 c 0,6,7
 694 113 694 113 757.5 170.5 c 128,-1,8
 821 228 821 228 821 376 c 2,9,-1
 821 1098 l 1,10,-1
 989 1098 l 1,11,-1
 989 378 l 2,12,13
 989 163 989 163 879 69 c 128,-1,14
 769 -25 769 -25 550 -25 c 128,-1,15
 331 -25 331 -25 219.5 70 c 128,-1,16
 108 165 108 165 108 378 c 2,0,-1
EndSplineSet
EndChar

StartChar: v
Encoding: 118 118 89
Width: 1036
GlyphClass: 2
Flags: W
LayerCount: 2
Fore
SplineSet
433 0 m 1,0,-1
 -1 1098 l 1,1,-1
 179 1098 l 1,2,-1
 525 184 l 1,3,-1
 852 1098 l 1,4,-1
 1031 1098 l 1,5,-1
 602 0 l 1,6,-1
 433 0 l 1,0,-1
EndSplineSet
EndChar

StartChar: w
Encoding: 119 119 90
Width: 1619
GlyphClass: 2
Flags: W
LayerCount: 2
Fore
SplineSet
15 1098 m 1,0,-1
 188 1098 l 1,1,-1
 433 223 l 1,2,-1
 722 1098 l 1,3,-1
 919 1098 l 1,4,-1
 1199 227 l 1,5,-1
 1434 1098 l 1,6,-1
 1604 1098 l 1,7,-1
 1275 0 l 1,8,-1
 1109 0 l 1,9,-1
 818 928 l 1,10,-1
 511 0 l 1,11,-1
 342 0 l 1,12,-1
 15 1098 l 1,0,-1
EndSplineSet
EndChar

StartChar: x
Encoding: 120 120 91
Width: 1042
GlyphClass: 2
Flags: W
LayerCount: 2
Fore
SplineSet
823 1098 m 1,0,-1
 1018 1098 l 1,1,-1
 624 552 l 1,2,-1
 1018 0 l 1,3,-1
 836 0 l 1,4,-1
 526 439 l 1,5,-1
 217 0 l 1,6,-1
 24 0 l 1,7,-1
 426 556 l 1,8,-1
 34 1098 l 1,9,-1
 227 1098 l 1,10,-1
 524 682 l 1,11,-1
 823 1098 l 1,0,-1
EndSplineSet
EndChar

StartChar: y
Encoding: 121 121 92
Width: 1012
GlyphClass: 2
Flags: W
LayerCount: 2
Fore
SplineSet
180 1098 m 1,0,-1
 526 207 l 1,1,2
 563 318 563 318 636.5 545.5 c 128,-1,3
 710 773 710 773 763 936 c 2,4,-1
 816 1098 l 1,5,-1
 993 1098 l 1,6,-1
 593 -48 l 2,7,8
 567 -122 567 -122 544.5 -175 c 128,-1,9
 522 -228 522 -228 491 -283.5 c 128,-1,10
 460 -339 460 -339 423 -375.5 c 128,-1,11
 386 -412 386 -412 338 -442.5 c 128,-1,12
 290 -473 290 -473 227.5 -487.5 c 128,-1,13
 165 -502 165 -502 89 -502 c 2,14,-1
 36 -502 l 1,15,-1
 17 -351 l 1,16,-1
 46 -351 l 2,17,18
 110 -351 110 -351 149 -347.5 c 128,-1,19
 188 -344 188 -344 225 -328 c 128,-1,20
 262 -312 262 -312 284 -291 c 128,-1,21
 306 -270 306 -270 332.5 -223 c 128,-1,22
 359 -176 359 -176 379 -122.5 c 128,-1,23
 399 -69 399 -69 431 23 c 1,24,-1
 4 1098 l 1,25,-1
 180 1098 l 1,0,-1
EndSplineSet
EndChar

StartChar: z
Encoding: 122 122 93
Width: 861
GlyphClass: 2
Flags: W
LayerCount: 2
Fore
SplineSet
86 139 m 1,0,-1
 611 964 l 1,1,-1
 80 964 l 1,2,-1
 80 1098 l 1,3,-1
 803 1098 l 1,4,-1
 803 964 l 1,5,-1
 273 136 l 1,6,-1
 823 136 l 1,7,-1
 823 0 l 1,8,-1
 86 0 l 1,9,-1
 86 139 l 1,0,-1
EndSplineSet
EndChar

StartChar: braceleft
Encoding: 123 123 94
Width: 690
GlyphClass: 2
Flags: W
LayerCount: 2
Fore
SplineSet
286 689 m 1,0,1
 342 662 342 662 377 606 c 128,-1,2
 412 550 412 550 422.5 498 c 128,-1,3
 433 446 433 446 433 390 c 2,4,-1
 433 156 l 2,5,6
 433 110 433 110 433.5 86.5 c 128,-1,7
 434 63 434 63 436 31.5 c 128,-1,8
 438 0 438 0 441.5 -14 c 128,-1,9
 445 -28 445 -28 452 -47 c 128,-1,10
 459 -66 459 -66 469 -73 c 128,-1,11
 479 -80 479 -80 495 -88.5 c 128,-1,12
 511 -97 511 -97 531 -99 c 128,-1,13
 551 -101 551 -101 578 -101 c 1,14,-1
 578 -238 l 1,15,16
 415 -238 415 -238 343.5 -170 c 128,-1,17
 272 -102 272 -102 272 53 c 2,18,-1
 272 335 l 2,19,20
 272 369 272 369 271.5 392 c 128,-1,21
 271 415 271 415 268.5 446.5 c 128,-1,22
 266 478 266 478 261 499.5 c 128,-1,23
 256 521 256 521 247 544.5 c 128,-1,24
 238 568 238 568 225 582 c 128,-1,25
 212 596 212 596 193 605 c 128,-1,26
 174 614 174 614 149 614 c 2,27,-1
 89 614 l 1,28,-1
 89 764 l 1,29,-1
 149 764 l 2,30,31
 174 764 174 764 193 773 c 128,-1,32
 212 782 212 782 225 796 c 128,-1,33
 238 810 238 810 247 833.5 c 128,-1,34
 256 857 256 857 261 878.5 c 128,-1,35
 266 900 266 900 268.5 931.5 c 128,-1,36
 271 963 271 963 271.5 986 c 128,-1,37
 272 1009 272 1009 272 1043 c 2,38,-1
 272 1326 l 2,39,40
 272 1481 272 1481 343.5 1548.5 c 128,-1,41
 415 1616 415 1616 578 1616 c 1,42,-1
 578 1479 l 1,43,44
 554 1479 554 1479 535.5 1476.5 c 128,-1,45
 517 1474 517 1474 502 1470.5 c 128,-1,46
 487 1467 487 1467 476.5 1457 c 128,-1,47
 466 1447 466 1447 458.5 1439 c 128,-1,48
 451 1431 451 1431 446.5 1412 c 128,-1,49
 442 1393 442 1393 439 1379 c 128,-1,50
 436 1365 436 1365 435 1335.5 c 128,-1,51
 434 1306 434 1306 433.5 1285 c 128,-1,52
 433 1264 433 1264 433 1223 c 2,53,-1
 433 988 l 2,54,55
 433 932 433 932 422.5 880 c 128,-1,56
 412 828 412 828 377 772 c 128,-1,57
 342 716 342 716 286 689 c 1,0,1
EndSplineSet
EndChar

StartChar: bar
Encoding: 124 124 95
Width: 470
GlyphClass: 2
Flags: W
LayerCount: 2
Fore
SplineSet
310 1603 m 1,0,-1
 310 -303 l 1,1,-1
 160 -303 l 1,2,-1
 160 1603 l 1,3,-1
 310 1603 l 1,0,-1
EndSplineSet
EndChar

StartChar: braceright
Encoding: 125 125 96
Width: 700
GlyphClass: 2
Flags: W
LayerCount: 2
Fore
SplineSet
411 689 m 1,0,1
 355 716 355 716 320.5 772 c 128,-1,2
 286 828 286 828 276 880 c 128,-1,3
 266 932 266 932 266 988 c 2,4,-1
 266 1223 l 2,5,6
 266 1267 266 1267 265.5 1292 c 128,-1,7
 265 1317 265 1317 263 1347 c 128,-1,8
 261 1377 261 1377 257 1392.5 c 128,-1,9
 253 1408 253 1408 245.5 1426 c 128,-1,10
 238 1444 238 1444 227.5 1451.5 c 128,-1,11
 217 1459 217 1459 201.5 1466.5 c 128,-1,12
 186 1474 186 1474 165.5 1476.5 c 128,-1,13
 145 1479 145 1479 118 1479 c 1,14,-1
 118 1616 l 1,15,16
 281 1616 281 1616 354 1548.5 c 128,-1,17
 427 1481 427 1481 427 1326 c 2,18,-1
 427 1043 l 2,19,20
 427 996 427 996 428.5 963.5 c 128,-1,21
 430 931 430 931 437 890 c 128,-1,22
 444 849 444 849 456.5 824 c 128,-1,23
 469 799 469 799 493 781.5 c 128,-1,24
 517 764 517 764 551 764 c 2,25,-1
 610 764 l 1,26,-1
 610 614 l 1,27,-1
 551 614 l 2,28,29
 517 614 517 614 493 596.5 c 128,-1,30
 469 579 469 579 456.5 554 c 128,-1,31
 444 529 444 529 437 488 c 128,-1,32
 430 447 430 447 428.5 414.5 c 128,-1,33
 427 382 427 382 427 335 c 2,34,-1
 427 53 l 2,35,36
 427 -102 427 -102 354 -170 c 128,-1,37
 281 -238 281 -238 118 -238 c 1,38,-1
 118 -101 l 1,39,40
 154 -101 154 -101 178.5 -97 c 128,-1,41
 203 -93 203 -93 220 -78.5 c 128,-1,42
 237 -64 237 -64 246 -49 c 128,-1,43
 255 -34 255 -34 259.5 1 c 128,-1,44
 264 36 264 36 265 66.5 c 128,-1,45
 266 97 266 97 266 156 c 2,46,-1
 266 390 l 2,47,48
 266 446 266 446 276 498 c 128,-1,49
 286 550 286 550 320.5 606 c 128,-1,50
 355 662 355 662 411 689 c 1,0,1
EndSplineSet
EndChar

StartChar: asciitilde
Encoding: 126 126 97
Width: 1340
GlyphClass: 2
Flags: W
LayerCount: 2
Fore
SplineSet
435 760 m 0,0,1
 488 760 488 760 562.5 733 c 128,-1,2
 637 706 637 706 698 673.5 c 128,-1,3
 759 641 759 641 822.5 614 c 128,-1,4
 886 587 886 587 918 587 c 0,5,6
 983 587 983 587 1031 643 c 128,-1,7
 1079 699 1079 699 1097 778 c 1,8,-1
 1209 737 l 1,9,10
 1184 602 1184 602 1109 522 c 128,-1,11
 1034 442 1034 442 915 442 c 0,12,13
 863 442 863 442 770.5 485 c 128,-1,14
 678 528 678 528 584.5 571 c 128,-1,15
 491 614 491 614 436 614 c 0,16,17
 360 614 360 614 308.5 556 c 128,-1,18
 257 498 257 498 240 415 c 1,19,-1
 137 474 l 1,20,21
 147 531 147 531 170.5 581.5 c 128,-1,22
 194 632 194 632 230 672.5 c 128,-1,23
 266 713 266 713 319 736.5 c 128,-1,24
 372 760 372 760 435 760 c 0,0,1
EndSplineSet
EndChar

StartChar: exclamdown
Encoding: 161 161 99
Width: 586
GlyphClass: 2
Flags: W
LayerCount: 2
Fore
SplineSet
195 -1 m 1,0,-1
 195 141 l 1,1,-1
 259 1060 l 1,2,-1
 324 1060 l 1,3,-1
 392 141 l 1,4,-1
 392 -1 l 1,5,-1
 195 -1 l 1,0,-1
426 1375 m 128,-1,7
 426 1322 426 1322 390.5 1282.5 c 128,-1,8
 355 1243 355 1243 293 1243 c 0,9,10
 230 1243 230 1243 195 1282 c 128,-1,11
 160 1321 160 1321 160 1375 c 128,-1,12
 160 1429 160 1429 195 1468 c 128,-1,13
 230 1507 230 1507 293 1507 c 0,14,15
 355 1507 355 1507 390.5 1467.5 c 128,-1,6
 426 1428 426 1428 426 1375 c 128,-1,7
EndSplineSet
EndChar

StartChar: cent
Encoding: 162 162 100
Width: 1080
GlyphClass: 2
Flags: W
LayerCount: 2
Fore
SplineSet
889 371 m 1,0,-1
 930 264 l 1,1,2
 780 180 780 180 637 174 c 1,3,-1
 637 7 l 1,4,-1
 548 7 l 1,5,-1
 548 177 l 1,6,7
 345 202 345 202 224 365 c 128,-1,8
 103 528 103 528 103 748 c 1,9,10
 105 968 105 968 227 1127.5 c 128,-1,11
 349 1287 349 1287 548 1317 c 1,12,-1
 548 1503 l 1,13,-1
 637 1503 l 1,14,-1
 637 1323 l 1,15,16
 786 1318 786 1318 929 1231 c 1,17,-1
 887 1112 l 1,18,19
 755 1182 755 1182 637 1185 c 1,20,-1
 637 307 l 1,21,22
 754 309 754 309 889 371 c 1,0,-1
548 316 m 1,23,-1
 548 1178 l 1,24,25
 460 1162 460 1162 396 1095.5 c 128,-1,26
 332 1029 332 1029 302.5 939 c 128,-1,27
 273 849 273 849 273 746 c 0,28,29
 273 644 273 644 302.5 554.5 c 128,-1,30
 332 465 332 465 396 398.5 c 128,-1,31
 460 332 460 332 548 316 c 1,23,-1
EndSplineSet
EndChar

StartChar: sterling
Encoding: 163 163 101
Width: 1127
GlyphClass: 2
Flags: W
LayerCount: 2
Fore
SplineSet
103 707 m 1,0,-1
 103 849 l 1,1,-1
 277 849 l 1,2,-1
 277 935 l 2,3,4
 277 1008 277 1008 280.5 1066 c 128,-1,5
 284 1124 284 1124 295.5 1187 c 128,-1,6
 307 1250 307 1250 326.5 1297.5 c 128,-1,7
 346 1345 346 1345 379.5 1389.5 c 128,-1,8
 413 1434 413 1434 458.5 1462.5 c 128,-1,9
 504 1491 504 1491 569 1508 c 128,-1,10
 634 1525 634 1525 716 1525 c 0,11,12
 948 1525 948 1525 1070 1349 c 1,13,-1
 975 1242 l 1,14,15
 918 1308 918 1308 857 1340.5 c 128,-1,16
 796 1373 796 1373 716 1373 c 0,17,18
 453 1373 453 1373 453 1008 c 2,19,-1
 453 849 l 1,20,-1
 851 849 l 1,21,-1
 851 707 l 1,22,-1
 453 707 l 1,23,-1
 453 530 l 2,24,25
 453 259 453 259 348 152 c 1,26,27
 428 162 428 162 437 162 c 2,28,-1
 1051 162 l 1,29,-1
 1039 0 l 1,30,-1
 135 0 l 1,31,-1
 113 137 l 1,32,33
 209 188 209 188 243 264 c 128,-1,34
 277 340 277 340 277 467 c 2,35,-1
 277 707 l 1,36,-1
 103 707 l 1,0,-1
EndSplineSet
EndChar

StartChar: currency
Encoding: 164 164 102
Width: 1298
GlyphClass: 2
Flags: W
LayerCount: 2
Fore
SplineSet
305 741 m 128,-1,1
 305 598 305 598 406.5 497 c 128,-1,2
 508 396 508 396 650 396 c 128,-1,3
 792 396 792 396 893.5 497 c 128,-1,4
 995 598 995 598 995 741 c 128,-1,5
 995 884 995 884 893.5 985 c 128,-1,6
 792 1086 792 1086 650 1086 c 128,-1,7
 508 1086 508 1086 406.5 985 c 128,-1,0
 305 884 305 884 305 741 c 128,-1,1
358 1064 m 1,8,9
 481 1176 481 1176 650 1176 c 0,10,11
 820 1176 820 1176 945 1061 c 1,12,-1
 1182 1280 l 1,13,-1
 1227 1224 l 1,14,-1
 993 1008 l 1,15,16
 1085 889 1085 889 1085 741 c 128,-1,17
 1085 593 1085 593 994 475 c 1,18,-1
 1227 259 l 1,19,-1
 1182 203 l 1,20,-1
 945 422 l 1,21,22
 819 306 819 306 650 306 c 128,-1,23
 481 306 481 306 357 419 c 1,24,-1
 124 203 l 1,25,-1
 71 254 l 1,26,-1
 308 472 l 1,27,28
 215 591 215 591 215 741 c 128,-1,29
 215 891 215 891 308 1010 c 1,30,-1
 71 1229 l 1,31,-1
 124 1280 l 1,32,-1
 358 1064 l 1,8,9
EndSplineSet
EndChar

StartChar: yen
Encoding: 165 165 103
Width: 1129
GlyphClass: 2
Flags: W
LayerCount: 2
Fore
SplineSet
640 330 m 1,0,-1
 640 0 l 1,1,-1
 488 0 l 1,2,-1
 488 330 l 1,3,-1
 97 330 l 1,4,-1
 97 452 l 1,5,-1
 487 452 l 1,6,-1
 487 646 l 1,7,-1
 100 646 l 1,8,-1
 100 767 l 1,9,-1
 451 767 l 1,10,-1
 34 1496 l 1,11,-1
 213 1496 l 1,12,-1
 565 875 l 1,13,-1
 925 1496 l 1,14,-1
 1095 1496 l 1,15,-1
 665 767 l 1,16,-1
 1014 767 l 1,17,-1
 1014 646 l 1,18,-1
 639 646 l 1,19,-1
 639 452 l 1,20,-1
 1017 452 l 1,21,-1
 1017 330 l 1,22,-1
 640 330 l 1,0,-1
EndSplineSet
EndChar

StartChar: brokenbar
Encoding: 166 166 104
Width: 449
GlyphClass: 2
Flags: W
LayerCount: 2
Fore
SplineSet
301 -301 m 1,0,-1
 151 -301 l 1,1,-1
 151 339 l 1,2,-1
 301 339 l 1,3,-1
 301 -301 l 1,0,-1
301 964 m 1,4,-1
 151 964 l 1,5,-1
 151 1603 l 1,6,-1
 301 1603 l 1,7,-1
 301 964 l 1,4,-1
EndSplineSet
EndChar

StartChar: section
Encoding: 167 167 105
Width: 978
GlyphClass: 2
Flags: W
LayerCount: 2
Fore
SplineSet
536 589 m 1,0,1
 602 631 602 631 643.5 676 c 128,-1,2
 685 721 685 721 685 778 c 0,3,4
 685 814 685 814 668.5 842 c 128,-1,5
 652 870 652 870 621.5 890.5 c 128,-1,6
 591 911 591 911 563 924.5 c 128,-1,7
 535 938 535 938 495 954.5 c 128,-1,8
 455 971 455 971 436 980 c 1,9,10
 374 941 374 941 337 898.5 c 128,-1,11
 300 856 300 856 300 798 c 0,12,13
 300 767 300 767 312 741 c 128,-1,14
 324 715 324 715 341.5 696 c 128,-1,15
 359 677 359 677 393 657 c 128,-1,16
 427 637 427 637 456 623.5 c 128,-1,17
 485 610 485 610 536 589 c 1,0,1
773 1563 m 1,18,-1
 774 1405 l 1,19,20
 733 1429 733 1429 669.5 1444.5 c 128,-1,21
 606 1460 606 1460 556 1460 c 0,22,23
 454 1460 454 1460 392.5 1424 c 128,-1,24
 331 1388 331 1388 331 1314 c 0,25,26
 331 1249 331 1249 379.5 1203 c 128,-1,27
 428 1157 428 1157 558 1100 c 1,28,29
 625 1068 625 1068 671 1041 c 128,-1,30
 717 1014 717 1014 758.5 977 c 128,-1,31
 800 940 800 940 820.5 894.5 c 128,-1,32
 841 849 841 849 841 794 c 0,33,34
 841 711 841 711 795 640.5 c 128,-1,35
 749 570 749 570 676 517 c 1,36,37
 747 472 747 472 784.5 416 c 128,-1,38
 822 360 822 360 822 272 c 0,39,40
 822 121 822 121 709 35.5 c 128,-1,41
 596 -50 596 -50 424 -50 c 0,42,43
 272 -50 272 -50 167 4 c 1,44,-1
 167 166 l 1,45,46
 295 95 295 95 419 95 c 0,47,48
 533 95 533 95 600 142.5 c 128,-1,49
 667 190 667 190 667 262 c 0,50,51
 667 285 667 285 661.5 303 c 128,-1,52
 656 321 656 321 642.5 337 c 128,-1,53
 629 353 629 353 615 365 c 128,-1,54
 601 377 601 377 574 391 c 128,-1,55
 547 405 547 405 525 415.5 c 128,-1,56
 503 426 503 426 464 443 c 0,57,58
 454 448 454 448 448 450 c 2,59,-1
 360 490 l 1,60,61
 253 542 253 542 198.5 613.5 c 128,-1,62
 144 685 144 685 144 785 c 0,63,64
 144 872 144 872 190 939.5 c 128,-1,65
 236 1007 236 1007 311 1050 c 1,66,67
 242 1102 242 1102 209 1161 c 128,-1,68
 176 1220 176 1220 176 1310 c 0,69,70
 176 1455 176 1455 277.5 1531.5 c 128,-1,71
 379 1608 379 1608 550 1608 c 0,72,73
 659 1608 659 1608 773 1563 c 1,18,-1
EndSplineSet
EndChar

StartChar: dieresis
Encoding: 168 168 106
Width: 770
GlyphClass: 2
Flags: W
LayerCount: 2
Fore
SplineSet
272 1254 m 1,0,-1
 118 1254 l 1,1,-1
 118 1466 l 1,2,-1
 272 1466 l 1,3,-1
 272 1254 l 1,0,-1
663 1254 m 1,4,-1
 508 1254 l 1,5,-1
 508 1466 l 1,6,-1
 663 1466 l 1,7,-1
 663 1254 l 1,4,-1
EndSplineSet
EndChar

StartChar: copyright
Encoding: 169 169 107
Width: 1841
GlyphClass: 2
Flags: W
LayerCount: 2
Fore
SplineSet
1191 459 m 1,0,-1
 1230 352 l 1,1,2
 1175 317 1175 317 1087 293.5 c 128,-1,3
 999 270 999 270 909 270 c 0,4,5
 703 270 703 270 568.5 416 c 128,-1,6
 434 562 434 562 434 785 c 0,7,8
 434 1010 434 1010 568 1155.5 c 128,-1,9
 702 1301 702 1301 919 1301 c 0,10,11
 1098 1301 1098 1301 1227 1211 c 1,12,-1
 1167 1114 l 1,13,14
 1122 1146 1122 1146 1052 1164 c 128,-1,15
 982 1182 982 1182 910 1182 c 0,16,17
 825 1182 825 1182 758.5 1150 c 128,-1,18
 692 1118 692 1118 651.5 1063 c 128,-1,19
 611 1008 611 1008 590.5 938.5 c 128,-1,20
 570 869 570 869 570 789 c 0,21,22
 570 610 570 610 661 498.5 c 128,-1,23
 752 387 752 387 929 387 c 0,24,25
 997 387 997 387 1072.5 408 c 128,-1,26
 1148 429 1148 429 1191 459 c 1,0,-1
902 67 m 0,27,28
 1067 67 1067 67 1199 123 c 128,-1,29
 1331 179 1331 179 1415 276.5 c 128,-1,30
 1499 374 1499 374 1543.5 502 c 128,-1,31
 1588 630 1588 630 1588 778 c 128,-1,32
 1588 926 1588 926 1543 1054.5 c 128,-1,33
 1498 1183 1498 1183 1413 1281.5 c 128,-1,34
 1328 1380 1328 1380 1195 1436.5 c 128,-1,35
 1062 1493 1062 1493 897 1493 c 0,36,37
 740 1493 740 1493 612.5 1436.5 c 128,-1,38
 485 1380 485 1380 402 1282.5 c 128,-1,39
 319 1185 319 1185 274.5 1057 c 128,-1,40
 230 929 230 929 230 783 c 0,41,42
 230 634 230 634 275 504.5 c 128,-1,43
 320 375 320 375 403 277.5 c 128,-1,44
 486 180 486 180 615 123.5 c 128,-1,45
 744 67 744 67 902 67 c 0,27,28
1701 781 m 0,46,47
 1701 624 1701 624 1657.5 491 c 128,-1,48
 1614 358 1614 358 1539 263.5 c 128,-1,49
 1464 169 1464 169 1362.5 103 c 128,-1,50
 1261 37 1261 37 1144.5 5.5 c 128,-1,51
 1028 -26 1028 -26 902 -26 c 0,52,53
 783 -26 783 -26 670 5.5 c 128,-1,54
 557 37 557 37 456.5 103.5 c 128,-1,55
 356 170 356 170 280.5 263.5 c 128,-1,56
 205 357 205 357 161 490.5 c 128,-1,57
 117 624 117 624 117 781 c 0,58,59
 117 937 117 937 160.5 1070 c 128,-1,60
 204 1203 204 1203 278.5 1297 c 128,-1,61
 353 1391 353 1391 453 1457 c 128,-1,62
 553 1523 553 1523 665.5 1554.5 c 128,-1,63
 778 1586 778 1586 897 1586 c 0,64,65
 1023 1586 1023 1586 1140 1554 c 128,-1,66
 1257 1522 1257 1522 1359.5 1456 c 128,-1,67
 1462 1390 1462 1390 1537.5 1296 c 128,-1,68
 1613 1202 1613 1202 1657 1069.5 c 128,-1,69
 1701 937 1701 937 1701 781 c 0,46,47
EndSplineSet
EndChar

StartChar: ordfeminine
Encoding: 170 170 108
Width: 1105
GlyphClass: 2
Flags: W
LayerCount: 2
Fore
SplineSet
332 247 m 0,0,1
 332 169 332 169 375.5 131.5 c 128,-1,2
 419 94 419 94 493 94 c 0,3,4
 565 94 565 94 647.5 134 c 128,-1,5
 730 174 730 174 776 237 c 1,6,-1
 776 475 l 1,7,8
 690 464 690 464 687 464 c 0,9,10
 479 437 479 437 405.5 392.5 c 128,-1,11
 332 348 332 348 332 247 c 0,0,1
780 106 m 1,12,13
 668 -22 668 -22 477 -22 c 0,14,15
 350 -22 350 -22 267 46 c 128,-1,16
 184 114 184 114 184 243 c 0,17,18
 184 415 184 415 342 489 c 0,19,20
 431 531 431 531 635 561 c 0,21,22
 648 563 648 563 678 567 c 2,23,-1
 776 579 l 1,24,-1
 776 689 l 2,25,26
 776 779 776 779 730 823 c 128,-1,27
 684 867 684 867 585 867 c 0,28,29
 415 867 415 867 282 802 c 1,30,-1
 242 919 l 1,31,32
 300 951 300 951 391.5 971.5 c 128,-1,33
 483 992 483 992 582 992 c 0,34,35
 923 992 923 992 923 711 c 2,36,-1
 923 0 l 1,37,-1
 802 0 l 1,38,-1
 780 106 l 1,12,13
EndSplineSet
EndChar

StartChar: guillemotleft
Encoding: 171 171 109
Width: 983
GlyphClass: 2
Flags: W
LayerCount: 2
Fore
SplineSet
462 583 m 1,0,-1
 726 982 l 1,1,-1
 864 982 l 1,2,-1
 633 583 l 1,3,-1
 858 182 l 1,4,-1
 722 182 l 1,5,-1
 462 583 l 1,0,-1
119 583 m 1,6,-1
 363 982 l 1,7,-1
 529 982 l 1,8,-1
 270 583 l 1,9,-1
 520 182 l 1,10,-1
 357 182 l 1,11,-1
 119 583 l 1,6,-1
EndSplineSet
EndChar

StartChar: logicalnot
Encoding: 172 172 110
Width: 1280
GlyphClass: 2
Flags: W
LayerCount: 2
Fore
SplineSet
1136 256 m 1,0,-1
 1003 256 l 1,1,-1
 1003 709 l 1,2,-1
 115 709 l 1,3,-1
 115 860 l 1,4,-1
 1136 860 l 1,5,-1
 1136 256 l 1,0,-1
EndSplineSet
EndChar

StartChar: uni00AD
Encoding: 173 173 111
Width: 1234
GlyphClass: 2
Flags: W
LayerCount: 2
Fore
SplineSet
1111 0 m 1,0,-1
 133 0 l 1,1,-1
 133 148 l 1,2,-1
 1111 148 l 1,3,-1
 1111 0 l 1,0,-1
EndSplineSet
EndChar

StartChar: registered
Encoding: 174 174 112
Width: 1824
GlyphClass: 2
Flags: W
LayerCount: 2
Fore
SplineSet
914 716 m 1,0,-1
 731 716 l 1,1,-1
 731 301 l 1,2,-1
 599 301 l 1,3,-1
 599 1277 l 1,4,-1
 857 1277 l 2,5,6
 1300 1277 1300 1277 1300 1007 c 0,7,8
 1300 899 1300 899 1239 825.5 c 128,-1,9
 1178 752 1178 752 1040 735 c 1,10,11
 1073 709 1073 709 1105 665.5 c 128,-1,12
 1137 622 1137 622 1161 579.5 c 128,-1,13
 1185 537 1185 537 1232 452.5 c 128,-1,14
 1279 368 1279 368 1320 301 c 1,15,-1
 1171 301 l 1,16,-1
 1046 525 l 2,17,18
 1014 584 1014 584 998 611 c 128,-1,19
 982 638 982 638 959 668.5 c 128,-1,20
 936 699 936 699 914 716 c 1,0,-1
857 843 m 2,21,22
 1005 843 1005 843 1073 875.5 c 128,-1,23
 1141 908 1141 908 1141 999 c 0,24,25
 1141 1093 1141 1093 1077.5 1121 c 128,-1,26
 1014 1149 1014 1149 847 1149 c 2,27,-1
 731 1149 l 1,28,-1
 731 843 l 1,29,-1
 857 843 l 2,21,22
902 67 m 0,30,31
 1067 67 1067 67 1199 123 c 128,-1,32
 1331 179 1331 179 1415 276.5 c 128,-1,33
 1499 374 1499 374 1543.5 502 c 128,-1,34
 1588 630 1588 630 1588 778 c 128,-1,35
 1588 926 1588 926 1543 1054.5 c 128,-1,36
 1498 1183 1498 1183 1413 1281.5 c 128,-1,37
 1328 1380 1328 1380 1195 1436.5 c 128,-1,38
 1062 1493 1062 1493 897 1493 c 0,39,40
 740 1493 740 1493 612.5 1436.5 c 128,-1,41
 485 1380 485 1380 402 1282.5 c 128,-1,42
 319 1185 319 1185 274.5 1057 c 128,-1,43
 230 929 230 929 230 783 c 0,44,45
 230 634 230 634 275 504.5 c 128,-1,46
 320 375 320 375 403 277.5 c 128,-1,47
 486 180 486 180 615 123.5 c 128,-1,48
 744 67 744 67 902 67 c 0,30,31
1701 781 m 0,49,50
 1701 624 1701 624 1657.5 491 c 128,-1,51
 1614 358 1614 358 1539 263.5 c 128,-1,52
 1464 169 1464 169 1362.5 103 c 128,-1,53
 1261 37 1261 37 1144.5 5.5 c 128,-1,54
 1028 -26 1028 -26 902 -26 c 0,55,56
 783 -26 783 -26 670 5.5 c 128,-1,57
 557 37 557 37 456.5 103.5 c 128,-1,58
 356 170 356 170 280.5 263.5 c 128,-1,59
 205 357 205 357 161 490.5 c 128,-1,60
 117 624 117 624 117 781 c 0,61,62
 117 937 117 937 160.5 1070 c 128,-1,63
 204 1203 204 1203 278.5 1297 c 128,-1,64
 353 1391 353 1391 453 1457 c 128,-1,65
 553 1523 553 1523 665.5 1554.5 c 128,-1,66
 778 1586 778 1586 897 1586 c 0,67,68
 1023 1586 1023 1586 1140 1554 c 128,-1,69
 1257 1522 1257 1522 1359.5 1456 c 128,-1,70
 1462 1390 1462 1390 1537.5 1296 c 128,-1,71
 1613 1202 1613 1202 1657 1069.5 c 128,-1,72
 1701 937 1701 937 1701 781 c 0,49,50
EndSplineSet
EndChar

StartChar: macron
Encoding: 175 175 113
Width: 1062
GlyphClass: 2
Flags: W
LayerCount: 2
Fore
SplineSet
933 1625 m 1,0,-1
 933 1486 l 1,1,-1
 133 1486 l 1,2,-1
 133 1625 l 1,3,-1
 933 1625 l 1,0,-1
EndSplineSet
EndChar

StartChar: degree
Encoding: 176 176 114
Width: 816
GlyphClass: 2
Flags: W
LayerCount: 2
Fore
SplineSet
409 919 m 128,-1,1
 295 919 295 919 211.5 1014 c 128,-1,2
 128 1109 128 1109 128 1239 c 0,3,4
 128 1368 128 1368 211.5 1461.5 c 128,-1,5
 295 1555 295 1555 409 1555 c 0,6,7
 524 1555 524 1555 607 1462 c 128,-1,8
 690 1369 690 1369 690 1239 c 128,-1,9
 690 1109 690 1109 606.5 1014 c 128,-1,0
 523 919 523 919 409 919 c 128,-1,1
409 1430 m 0,10,11
 340 1430 340 1430 289 1374.5 c 128,-1,12
 238 1319 238 1319 238 1239 c 0,13,14
 238 1158 238 1158 288 1102 c 128,-1,15
 338 1046 338 1046 409 1046 c 128,-1,16
 480 1046 480 1046 530.5 1102 c 128,-1,17
 581 1158 581 1158 581 1239 c 0,18,19
 581 1319 581 1319 530 1374.5 c 128,-1,20
 479 1430 479 1430 409 1430 c 0,10,11
EndSplineSet
EndChar

StartChar: plusminus
Encoding: 177 177 115
Width: 1234
GlyphClass: 2
Flags: W
LayerCount: 2
Fore
SplineSet
133 789 m 1,0,-1
 550 789 l 1,1,-1
 550 1193 l 1,2,-1
 683 1193 l 1,3,-1
 683 789 l 1,4,-1
 1108 789 l 1,5,-1
 1108 642 l 1,6,-1
 687 642 l 1,7,-1
 687 240 l 1,8,-1
 553 240 l 1,9,-1
 553 642 l 1,10,-1
 133 642 l 1,11,-1
 133 789 l 1,0,-1
1111 0 m 1,12,-1
 133 0 l 1,13,-1
 133 148 l 1,14,-1
 1111 148 l 1,15,-1
 1111 0 l 1,12,-1
EndSplineSet
EndChar

StartChar: uni00B2
Encoding: 178 178 116
Width: 836
GlyphClass: 2
Flags: W
LayerCount: 2
Fore
SplineSet
164 641 m 1,0,-1
 143 750 l 1,1,2
 169 780 169 780 231 848.5 c 128,-1,3
 293 917 293 917 318 946 c 128,-1,4
 343 975 343 975 389.5 1029.5 c 128,-1,5
 436 1084 436 1084 456 1113 c 128,-1,6
 476 1142 476 1142 501 1181 c 128,-1,7
 526 1220 526 1220 535.5 1249 c 128,-1,8
 545 1278 545 1278 545 1303 c 0,9,10
 545 1358 545 1358 509.5 1391 c 128,-1,11
 474 1424 474 1424 415 1424 c 0,12,13
 372 1424 372 1424 315.5 1407.5 c 128,-1,14
 259 1391 259 1391 219 1360 c 1,15,-1
 172 1477 l 1,16,17
 223 1513 223 1513 293 1532 c 128,-1,18
 363 1551 363 1551 422 1551 c 0,19,20
 532 1551 532 1551 608 1493 c 128,-1,21
 684 1435 684 1435 685 1318 c 0,22,23
 685 1257 685 1257 661 1194.5 c 128,-1,24
 637 1132 637 1132 574.5 1052 c 128,-1,25
 512 972 512 972 477 932.5 c 128,-1,26
 442 893 442 893 347 795 c 0,27,28
 337 784 337 784 329.5 776.5 c 128,-1,29
 322 769 322 769 315 761 c 1,30,-1
 688 761 l 1,31,-1
 677 641 l 1,32,-1
 164 641 l 1,0,-1
EndSplineSet
EndChar

StartChar: uni00B3
Encoding: 179 179 117
Width: 756
GlyphClass: 2
Flags: W
LayerCount: 2
Fore
SplineSet
352 1441 m 0,0,1
 239 1441 239 1441 149 1377 c 1,2,-1
 102 1476 l 1,3,4
 144 1509 144 1509 216.5 1530 c 128,-1,5
 289 1551 289 1551 354 1551 c 0,6,7
 471 1551 471 1551 546.5 1493.5 c 128,-1,8
 622 1436 622 1436 622 1329 c 0,9,10
 622 1263 622 1263 583 1210 c 128,-1,11
 544 1157 544 1157 462 1136 c 1,12,13
 544 1115 544 1115 592 1053.5 c 128,-1,14
 640 992 640 992 640 915 c 0,15,16
 640 800 640 800 555.5 733.5 c 128,-1,17
 471 667 471 667 350 667 c 0,18,19
 195 667 195 667 112 750 c 1,20,-1
 158 847 l 1,21,22
 232 784 232 784 354 784 c 0,23,24
 407 784 407 784 452.5 819.5 c 128,-1,25
 498 855 498 855 498 916 c 0,26,27
 498 981 498 981 445.5 1030 c 128,-1,28
 393 1079 393 1079 308 1079 c 2,29,-1
 260 1079 l 1,30,-1
 260 1196 l 1,31,-1
 304 1196 l 2,32,33
 386 1196 386 1196 435.5 1224 c 128,-1,34
 485 1252 485 1252 485 1315 c 0,35,36
 485 1375 485 1375 442.5 1408 c 128,-1,37
 400 1441 400 1441 352 1441 c 0,0,1
EndSplineSet
EndChar

StartChar: acute
Encoding: 180 180 118
Width: 639
GlyphClass: 2
Flags: W
LayerCount: 2
Fore
SplineSet
567 1638 m 1,0,-1
 242 1250 l 1,1,-1
 128 1250 l 1,2,-1
 314 1638 l 1,3,-1
 567 1638 l 1,0,-1
EndSplineSet
EndChar

StartChar: uni00B5
Encoding: 181 181 119
Width: 1112
GlyphClass: 2
Flags: W
LayerCount: 2
Fore
SplineSet
105 -274 m 2,0,-1
 105 1098 l 1,1,-1
 273 1098 l 1,2,-1
 273 547 l 2,3,4
 273 476 273 476 274 432.5 c 128,-1,5
 275 389 275 389 279.5 338 c 128,-1,6
 284 287 284 287 293 257.5 c 128,-1,7
 302 228 302 228 317.5 198 c 128,-1,8
 333 168 333 168 356 152.5 c 128,-1,9
 379 137 379 137 411.5 127.5 c 128,-1,10
 444 118 444 118 487 118 c 0,11,12
 615 118 615 118 711 191 c 128,-1,13
 807 264 807 264 830 348 c 1,14,-1
 830 1098 l 1,15,-1
 998 1098 l 1,16,-1
 998 267 l 1,17,-1
 1001 0 l 1,18,-1
 857 0 l 1,19,-1
 841 163 l 1,20,21
 784 77 784 77 689 26.5 c 128,-1,22
 594 -24 594 -24 491 -24 c 0,23,24
 411 -24 411 -24 342 11.5 c 128,-1,25
 273 47 273 47 241 112 c 1,26,-1
 285 -274 l 1,27,-1
 285 -287 l 2,28,29
 285 -335 285 -335 259 -363 c 128,-1,30
 233 -391 233 -391 198 -391 c 0,31,32
 160 -391 160 -391 132.5 -360.5 c 128,-1,33
 105 -330 105 -330 105 -274 c 2,0,-1
EndSplineSet
EndChar

StartChar: paragraph
Encoding: 182 182 120
Width: 1068
GlyphClass: 2
Flags: W
LayerCount: 2
Fore
SplineSet
518 -158 m 1,0,-1
 393 -158 l 1,1,-1
 393 957 l 1,2,3
 343 958 343 958 297 968 c 128,-1,4
 251 978 251 978 206.5 1001 c 128,-1,5
 162 1024 162 1024 129.5 1057.5 c 128,-1,6
 97 1091 97 1091 77 1142.5 c 128,-1,7
 57 1194 57 1194 57 1258 c 0,8,9
 57 1315 57 1315 72.5 1360.5 c 128,-1,10
 88 1406 88 1406 113 1437 c 128,-1,11
 138 1468 138 1468 177.5 1491 c 128,-1,12
 217 1514 217 1514 257.5 1527.5 c 128,-1,13
 298 1541 298 1541 352.5 1548.5 c 128,-1,14
 407 1556 407 1556 454.5 1558.5 c 128,-1,15
 502 1561 502 1561 561 1561 c 2,16,-1
 937 1561 l 1,17,-1
 927 1430 l 1,18,-1
 852 1430 l 1,19,-1
 852 -158 l 1,20,-1
 737 -158 l 1,21,-1
 737 1430 l 1,22,-1
 518 1430 l 1,23,-1
 518 -158 l 1,0,-1
EndSplineSet
EndChar

StartChar: periodcentered
Encoding: 183 183 121
Width: 468
GlyphClass: 2
Flags: W
LayerCount: 2
Fore
SplineSet
237 796 m 0,0,1
 300 796 300 796 335 757 c 128,-1,2
 370 718 370 718 370 664 c 128,-1,3
 370 610 370 610 335 571 c 128,-1,4
 300 532 300 532 237 532 c 0,5,6
 175 532 175 532 139.5 571.5 c 128,-1,7
 104 611 104 611 104 664 c 128,-1,8
 104 717 104 717 139.5 756.5 c 128,-1,9
 175 796 175 796 237 796 c 0,0,1
EndSplineSet
EndChar

StartChar: cedilla
Encoding: 184 184 122
Width: 596
GlyphClass: 2
Flags: W
LayerCount: 2
Fore
SplineSet
114 -403 m 1,0,-1
 122 -312 l 1,1,2
 207 -337 207 -337 256 -337 c 0,3,4
 356 -337 356 -337 356 -260 c 0,5,6
 356 -180 356 -180 259 -180 c 0,7,8
 257 -180 257 -180 227 -182 c 2,9,-1
 198 -184 l 1,10,-1
 226 16 l 1,11,-1
 312 16 l 1,12,-1
 298 -97 l 1,13,-1
 305 -97 l 2,14,15
 380 -97 380 -97 431 -138 c 128,-1,16
 482 -179 482 -179 482 -257 c 0,17,18
 482 -340 482 -340 422.5 -382.5 c 128,-1,19
 363 -425 363 -425 268 -425 c 0,20,21
 211 -425 211 -425 114 -403 c 1,0,-1
EndSplineSet
EndChar

StartChar: uni00B9
Encoding: 185 185 123
Width: 613
GlyphClass: 2
Flags: W
LayerCount: 2
Fore
SplineSet
407 650 m 1,0,-1
 269 650 l 1,1,-1
 269 1369 l 1,2,3
 215 1334 215 1334 136 1294 c 1,4,-1
 106 1424 l 1,5,6
 212 1480 212 1480 285 1538 c 1,7,-1
 407 1538 l 1,8,-1
 407 650 l 1,0,-1
EndSplineSet
EndChar

StartChar: ordmasculine
Encoding: 186 186 124
Width: 1084
GlyphClass: 2
Flags: W
LayerCount: 2
Fore
SplineSet
549 992 m 0,0,1
 655 992 655 992 739.5 952 c 128,-1,2
 824 912 824 912 877.5 842.5 c 128,-1,3
 931 773 931 773 959 681.5 c 128,-1,4
 987 590 987 590 987 484 c 0,5,6
 987 347 987 347 937.5 234 c 128,-1,7
 888 121 888 121 786 49.5 c 128,-1,8
 684 -22 684 -22 546 -22 c 0,9,10
 406 -22 406 -22 302.5 47 c 128,-1,11
 199 116 199 116 148 229 c 128,-1,12
 97 342 97 342 97 483 c 0,13,14
 97 623 97 623 149 737.5 c 128,-1,15
 201 852 201 852 305 922 c 128,-1,16
 409 992 409 992 549 992 c 0,0,1
549 100 m 0,17,18
 609 100 609 100 657.5 121 c 128,-1,19
 706 142 706 142 739 177.5 c 128,-1,20
 772 213 772 213 794 262.5 c 128,-1,21
 816 312 816 312 826 367 c 128,-1,22
 836 422 836 422 836 483 c 0,23,24
 836 547 836 547 826.5 602.5 c 128,-1,25
 817 658 817 658 795.5 707.5 c 128,-1,26
 774 757 774 757 741 793 c 128,-1,27
 708 829 708 829 658 849.5 c 128,-1,28
 608 870 608 870 546 870 c 0,29,30
 448 870 448 870 378.5 812.5 c 128,-1,31
 309 755 309 755 278.5 669 c 128,-1,32
 248 583 248 583 248 480 c 0,33,34
 248 378 248 378 278.5 294.5 c 128,-1,35
 309 211 309 211 379 155.5 c 128,-1,36
 449 100 449 100 549 100 c 0,17,18
EndSplineSet
EndChar

StartChar: guillemotright
Encoding: 187 187 125
Width: 1007
GlyphClass: 2
Flags: W
LayerCount: 2
Fore
SplineSet
528 585 m 1,0,-1
 263 182 l 1,1,-1
 124 182 l 1,2,-1
 356 585 l 1,3,-1
 129 982 l 1,4,-1
 266 982 l 1,5,-1
 528 585 l 1,0,-1
895 585 m 1,6,-1
 653 182 l 1,7,-1
 491 182 l 1,8,-1
 744 585 l 1,9,-1
 501 982 l 1,10,-1
 659 982 l 1,11,-1
 895 585 l 1,6,-1
EndSplineSet
EndChar

StartChar: onequarter
Encoding: 188 188 126
Width: 1632
GlyphClass: 3
Flags: W
LayerCount: 2
Fore
SplineSet
1208 1495 m 1,0,-1
 1342 1495 l 1,1,-1
 279 0 l 1,2,-1
 130 0 l 1,3,-1
 1208 1495 l 1,0,-1
991 319 m 1,4,-1
 1211 319 l 1,5,-1
 1211 687 l 1,6,-1
 991 319 l 1,4,-1
1349 -1 m 1,7,-1
 1211 -1 l 1,8,-1
 1211 212 l 1,9,-1
 860 212 l 1,10,-1
 860 332 l 1,11,-1
 1201 887 l 1,12,-1
 1349 887 l 1,13,-1
 1349 319 l 1,14,-1
 1443 319 l 1,15,-1
 1453 212 l 1,16,-1
 1349 212 l 1,17,-1
 1349 -1 l 1,7,-1
407 650 m 1,18,-1
 269 650 l 1,19,-1
 269 1369 l 1,20,21
 215 1334 215 1334 136 1294 c 1,22,-1
 106 1424 l 1,23,24
 212 1480 212 1480 285 1538 c 1,25,-1
 407 1538 l 1,26,-1
 407 650 l 1,18,-1
EndSplineSet
Ligature2: "'liga' Standard Ligatures in Latin lookup 0 subtable" one slash four
EndChar

StartChar: onehalf
Encoding: 189 189 127
Width: 1597
GlyphClass: 3
Flags: W
LayerCount: 2
Fore
SplineSet
1188 1495 m 1,0,-1
 1322 1495 l 1,1,-1
 259 0 l 1,2,-1
 110 0 l 1,3,-1
 1188 1495 l 1,0,-1
407 608 m 1,4,-1
 269 608 l 1,5,-1
 269 1327 l 1,6,7
 215 1292 215 1292 136 1252 c 1,8,-1
 106 1382 l 1,9,10
 212 1438 212 1438 285 1496 c 1,11,-1
 407 1496 l 1,12,-1
 407 608 l 1,4,-1
967 0 m 1,13,-1
 946 109 l 1,14,15
 972 139 972 139 1034 207.5 c 128,-1,16
 1096 276 1096 276 1121 305 c 128,-1,17
 1146 334 1146 334 1192.5 388.5 c 128,-1,18
 1239 443 1239 443 1259 472 c 128,-1,19
 1279 501 1279 501 1304 540 c 128,-1,20
 1329 579 1329 579 1338.5 608 c 128,-1,21
 1348 637 1348 637 1348 662 c 0,22,23
 1348 717 1348 717 1312.5 750 c 128,-1,24
 1277 783 1277 783 1218 783 c 0,25,26
 1175 783 1175 783 1118.5 766.5 c 128,-1,27
 1062 750 1062 750 1022 719 c 1,28,-1
 975 836 l 1,29,30
 1026 872 1026 872 1096 891 c 128,-1,31
 1166 910 1166 910 1225 910 c 0,32,33
 1335 910 1335 910 1411 852 c 128,-1,34
 1487 794 1487 794 1488 677 c 0,35,36
 1488 616 1488 616 1464 553.5 c 128,-1,37
 1440 491 1440 491 1377.5 411 c 128,-1,38
 1315 331 1315 331 1280 291.5 c 128,-1,39
 1245 252 1245 252 1150 154 c 0,40,41
 1140 143 1140 143 1132.5 135.5 c 128,-1,42
 1125 128 1125 128 1118 120 c 1,43,-1
 1491 120 l 1,44,-1
 1480 0 l 1,45,-1
 967 0 l 1,13,-1
EndSplineSet
Ligature2: "'liga' Standard Ligatures in Latin lookup 0 subtable" one slash two
EndChar

StartChar: threequarters
Encoding: 190 190 128
Width: 1649
GlyphClass: 3
Flags: W
LayerCount: 2
Fore
SplineSet
1342 1495 m 1,0,-1
 1476 1495 l 1,1,-1
 413 0 l 1,2,-1
 264 0 l 1,3,-1
 1342 1495 l 1,0,-1
356 1441 m 0,4,5
 243 1441 243 1441 153 1377 c 1,6,-1
 106 1476 l 1,7,8
 148 1509 148 1509 220.5 1530 c 128,-1,9
 293 1551 293 1551 358 1551 c 0,10,11
 475 1551 475 1551 550.5 1493.5 c 128,-1,12
 626 1436 626 1436 626 1329 c 0,13,14
 626 1263 626 1263 587 1210 c 128,-1,15
 548 1157 548 1157 466 1136 c 1,16,17
 548 1115 548 1115 596 1053.5 c 128,-1,18
 644 992 644 992 644 915 c 0,19,20
 644 800 644 800 559.5 733.5 c 128,-1,21
 475 667 475 667 354 667 c 0,22,23
 199 667 199 667 116 750 c 1,24,-1
 162 847 l 1,25,26
 236 784 236 784 358 784 c 0,27,28
 411 784 411 784 456.5 819.5 c 128,-1,29
 502 855 502 855 502 916 c 0,30,31
 502 981 502 981 449.5 1030 c 128,-1,32
 397 1079 397 1079 312 1079 c 2,33,-1
 264 1079 l 1,34,-1
 264 1196 l 1,35,-1
 308 1196 l 2,36,37
 390 1196 390 1196 439.5 1224 c 128,-1,38
 489 1252 489 1252 489 1315 c 0,39,40
 489 1375 489 1375 446.5 1408 c 128,-1,41
 404 1441 404 1441 356 1441 c 0,4,5
1121 319 m 1,42,-1
 1341 319 l 1,43,-1
 1341 687 l 1,44,-1
 1121 319 l 1,42,-1
1479 -1 m 1,45,-1
 1341 -1 l 1,46,-1
 1341 212 l 1,47,-1
 990 212 l 1,48,-1
 990 332 l 1,49,-1
 1331 887 l 1,50,-1
 1479 887 l 1,51,-1
 1479 319 l 1,52,-1
 1573 319 l 1,53,-1
 1583 212 l 1,54,-1
 1479 212 l 1,55,-1
 1479 -1 l 1,45,-1
EndSplineSet
Ligature2: "'liga' Standard Ligatures in Latin lookup 0 subtable" three slash four
EndChar

StartChar: AE
Encoding: 198 198 136
Width: 1866
GlyphClass: 2
Flags: W
LayerCount: 2
Fore
SplineSet
954 589 m 1,0,-1
 900 1361 l 1,1,-1
 511 589 l 1,2,-1
 954 589 l 1,0,-1
208 0 m 1,3,-1
 0 0 l 1,4,-1
 800 1496 l 1,5,-1
 1700 1496 l 1,6,-1
 1687 1337 l 1,7,-1
 1072 1337 l 1,8,-1
 1104 882 l 1,9,-1
 1715 882 l 1,10,-1
 1715 724 l 1,11,-1
 1124 724 l 1,12,-1
 1166 158 l 1,13,-1
 1826 158 l 1,14,-1
 1812 0 l 1,15,-1
 1007 0 l 1,16,-1
 976 427 l 1,17,-1
 427 427 l 1,18,-1
 208 0 l 1,3,-1
EndSplineSet
EndChar

StartChar: Eth
Encoding: 208 208 146
Width: 1522
GlyphClass: 2
Flags: W
LayerCount: 2
Fore
SplineSet
324 832 m 1,0,-1
 566 832 l 1,1,-1
 566 697 l 1,2,-1
 324 697 l 1,3,-1
 324 155 l 1,4,-1
 639 155 l 2,5,6
 918 155 918 155 1070.5 301.5 c 128,-1,7
 1223 448 1223 448 1223 734 c 0,8,9
 1223 873 1223 873 1190.5 978 c 128,-1,10
 1158 1083 1158 1083 1101 1151.5 c 128,-1,11
 1044 1220 1044 1220 957 1263 c 128,-1,12
 870 1306 870 1306 769 1323.5 c 128,-1,13
 668 1341 668 1341 540 1341 c 2,14,-1
 324 1341 l 1,15,-1
 324 832 l 1,0,-1
29 697 m 1,16,-1
 29 832 l 1,17,-1
 147 832 l 1,18,-1
 147 1496 l 1,19,-1
 519 1496 l 2,20,21
 680 1496 680 1496 811 1473 c 128,-1,22
 942 1450 942 1450 1056 1395 c 128,-1,23
 1170 1340 1170 1340 1247 1254.5 c 128,-1,24
 1324 1169 1324 1169 1368 1038 c 128,-1,25
 1412 907 1412 907 1412 738 c 0,26,27
 1412 555 1412 555 1355 413.5 c 128,-1,28
 1298 272 1298 272 1193 182 c 128,-1,29
 1088 92 1088 92 944 46 c 128,-1,30
 800 0 800 0 621 0 c 2,31,-1
 147 0 l 1,32,-1
 147 697 l 1,33,-1
 29 697 l 1,16,-1
EndSplineSet
EndChar

StartChar: multiply
Encoding: 215 215 153
Width: 1134
GlyphClass: 2
Flags: W
LayerCount: 2
Fore
SplineSet
238 159 m 1,0,-1
 145 257 l 1,1,-1
 472 580 l 1,2,-1
 145 906 l 1,3,-1
 238 999 l 1,4,-1
 567 674 l 1,5,-1
 896 999 l 1,6,-1
 989 906 l 1,7,-1
 662 580 l 1,8,-1
 989 257 l 1,9,-1
 896 159 l 1,10,-1
 567 486 l 1,11,-1
 238 159 l 1,0,-1
EndSplineSet
EndChar

StartChar: Oslash
Encoding: 216 216 154
Width: 1657
GlyphClass: 2
Flags: W
LayerCount: 2
Fore
SplineSet
1558 746 m 0,0,1
 1558 995 1558 995 1459.5 1178.5 c 128,-1,2
 1361 1362 1361 1362 1178 1451 c 1,3,-1
 1280 1690 l 1,4,-1
 1190 1725 l 1,5,-1
 1089 1487 l 1,6,7
 970 1525 970 1525 829 1525 c 0,8,9
 487 1525 487 1525 293 1312.5 c 128,-1,10
 99 1100 99 1100 99 746 c 0,11,12
 99 497 99 497 203.5 310.5 c 128,-1,13
 308 124 308 124 505 39 c 1,14,-1
 407 -199 l 1,15,-1
 491 -231 l 1,16,-1
 591 8 l 1,17,18
 701 -23 701 -23 829 -23 c 0,19,20
 1005 -23 1005 -23 1144.5 35.5 c 128,-1,21
 1284 94 1284 94 1374 197.5 c 128,-1,22
 1464 301 1464 301 1511 440.5 c 128,-1,23
 1558 580 1558 580 1558 746 c 0,0,1
829 129 m 0,24,25
 730 129 730 129 650 153 c 1,26,-1
 1117 1301 l 1,27,28
 1241 1226 1241 1226 1305 1083 c 128,-1,29
 1369 940 1369 940 1369 746 c 0,30,31
 1369 641 1369 641 1349 549.5 c 128,-1,32
 1329 458 1329 458 1286.5 380 c 128,-1,33
 1244 302 1244 302 1181.5 247 c 128,-1,34
 1119 192 1119 192 1029 160.5 c 128,-1,35
 939 129 939 129 829 129 c 0,24,25
829 1373 m 0,36,37
 940 1373 940 1373 1031 1341 c 1,38,-1
 565 187 l 1,39,40
 427 258 427 258 357.5 405 c 128,-1,41
 288 552 288 552 288 746 c 0,42,43
 288 1036 288 1036 426.5 1204.5 c 128,-1,44
 565 1373 565 1373 829 1373 c 0,36,37
EndSplineSet
EndChar

StartChar: Thorn
Encoding: 222 222 160
Width: 1291
GlyphClass: 2
Flags: W
LayerCount: 2
Fore
SplineSet
324 1068 m 1,0,-1
 324 493 l 1,1,-1
 708 493 l 2,2,3
 1040 493 1040 493 1040 782 c 0,4,5
 1040 932 1040 932 954.5 1000 c 128,-1,6
 869 1068 869 1068 666 1068 c 2,7,-1
 324 1068 l 1,0,-1
147 0 m 1,8,-1
 147 1496 l 1,9,-1
 324 1496 l 1,10,-1
 324 1217 l 1,11,-1
 648 1217 l 2,12,13
 929 1217 929 1217 1069 1118.5 c 128,-1,14
 1209 1020 1209 1020 1209 791 c 0,15,16
 1209 581 1209 581 1089 461.5 c 128,-1,17
 969 342 969 342 719 342 c 1,18,-1
 324 349 l 1,19,-1
 324 0 l 1,20,-1
 147 0 l 1,8,-1
EndSplineSet
EndChar

StartChar: germandbls
Encoding: 223 223 161
Width: 1222
GlyphClass: 2
Flags: W
LayerCount: 2
Fore
SplineSet
771 148 m 2,0,1
 868 148 868 148 922.5 200.5 c 128,-1,2
 977 253 977 253 977 343 c 0,3,4
 977 393 977 393 951 438.5 c 128,-1,5
 925 484 925 484 877 522 c 128,-1,6
 829 560 829 560 785 588.5 c 128,-1,7
 741 617 741 617 680 651.5 c 128,-1,8
 619 686 619 686 591 705 c 0,9,10
 509 761 509 761 509 822 c 0,11,12
 509 880 509 880 574 934 c 0,13,14
 600 955 600 955 649 986.5 c 128,-1,15
 698 1018 698 1018 725.5 1038 c 128,-1,16
 753 1058 753 1058 776 1096 c 128,-1,17
 799 1134 799 1134 799 1182 c 0,18,19
 799 1269 799 1269 732 1321 c 128,-1,20
 665 1373 665 1373 568 1373 c 0,21,22
 286 1373 286 1373 286 1056 c 2,23,-1
 286 0 l 1,24,-1
 118 0 l 1,25,-1
 118 1046 l 2,26,27
 118 1275 118 1275 230 1400 c 128,-1,28
 342 1525 342 1525 568 1525 c 0,29,30
 758 1525 758 1525 873 1433.5 c 128,-1,31
 988 1342 988 1342 988 1182 c 0,32,33
 988 1142 988 1142 980 1108.5 c 128,-1,34
 972 1075 972 1075 953 1046.5 c 128,-1,35
 934 1018 934 1018 916.5 997.5 c 128,-1,36
 899 977 899 977 866 953 c 128,-1,37
 833 929 833 929 811 915 c 128,-1,38
 789 901 789 901 747 876 c 128,-1,39
 705 851 705 851 683 838 c 1,40,41
 721 811 721 811 783 773.5 c 128,-1,42
 845 736 845 736 892.5 708 c 128,-1,43
 940 680 940 680 994 639.5 c 128,-1,44
 1048 599 1048 599 1083.5 559.5 c 128,-1,45
 1119 520 1119 520 1142.5 465 c 128,-1,46
 1166 410 1166 410 1166 348 c 0,47,48
 1166 255 1166 255 1137.5 186.5 c 128,-1,49
 1109 118 1109 118 1056.5 78 c 128,-1,50
 1004 38 1004 38 937 19 c 128,-1,51
 870 0 870 0 786 0 c 2,52,-1
 443 0 l 1,53,-1
 459 148 l 1,54,-1
 771 148 l 2,0,1
EndSplineSet
EndChar

StartChar: ae
Encoding: 230 230 168
Width: 1657
GlyphClass: 2
Flags: W
LayerCount: 2
Fore
SplineSet
86 300 m 0,0,1
 86 355 86 355 102.5 399.5 c 128,-1,2
 119 444 119 444 145.5 474.5 c 128,-1,3
 172 505 172 505 216.5 528.5 c 128,-1,4
 261 552 261 552 304.5 566 c 128,-1,5
 348 580 348 580 412.5 590 c 128,-1,6
 477 600 477 600 529.5 604.5 c 128,-1,7
 582 609 582 609 657 613 c 2,8,-1
 720 616 l 1,9,-1
 720 781 l 2,10,11
 720 883 720 883 677 929.5 c 128,-1,12
 634 976 634 976 530 976 c 0,13,14
 432 976 432 976 336 952.5 c 128,-1,15
 240 929 240 929 174 894 c 1,16,-1
 138 1032 l 1,17,18
 203 1069 203 1069 311.5 1096.5 c 128,-1,19
 420 1124 420 1124 526 1124 c 0,20,21
 650 1124 650 1124 735.5 1075 c 128,-1,22
 821 1026 821 1026 843 932 c 1,23,24
 896 1027 896 1027 990.5 1075.5 c 128,-1,25
 1085 1124 1085 1124 1198 1124 c 0,26,27
 1297 1124 1297 1124 1371 1087.5 c 128,-1,28
 1445 1051 1445 1051 1488 988 c 128,-1,29
 1531 925 1531 925 1551.5 848.5 c 128,-1,30
 1572 772 1572 772 1572 684 c 0,31,32
 1572 606 1572 606 1535.5 573 c 128,-1,33
 1499 540 1499 540 1385 534 c 2,34,-1
 888 509 l 1,35,36
 901 322 901 322 974.5 220.5 c 128,-1,37
 1048 119 1048 119 1200 119 c 0,38,39
 1288 119 1288 119 1374 152 c 128,-1,40
 1460 185 1460 185 1523 229 c 1,41,-1
 1575 108 l 1,42,43
 1421 -25 1421 -25 1189 -25 c 0,44,45
 987 -25 987 -25 862 112 c 1,46,47
 767 53 767 53 644 13.5 c 128,-1,48
 521 -26 521 -26 410 -26 c 0,49,50
 267 -26 267 -26 176.5 52.5 c 128,-1,51
 86 131 86 131 86 300 c 0,0,1
422 113 m 0,52,53
 454 113 454 113 489.5 118.5 c 128,-1,54
 525 124 525 124 571 136.5 c 128,-1,55
 617 149 617 149 642.5 157 c 128,-1,56
 668 165 668 165 724.5 184.5 c 128,-1,57
 781 204 781 204 793 208 c 1,58,59
 726 330 726 330 717 499 c 1,60,61
 673 497 673 497 653 495 c 0,62,63
 495 483 495 483 407 457 c 128,-1,64
 319 431 319 431 286.5 392.5 c 128,-1,65
 254 354 254 354 254 291 c 0,66,67
 254 113 254 113 422 113 c 0,52,53
1195 984 m 0,68,69
 1052 984 1052 984 977.5 882.5 c 128,-1,70
 903 781 903 781 894 615 c 1,71,-1
 1410 644 l 1,72,-1
 1410 654 l 1,73,74
 1408 825 1408 825 1356.5 904.5 c 128,-1,75
 1305 984 1305 984 1195 984 c 0,68,69
EndSplineSet
EndChar

StartChar: eth
Encoding: 240 240 178
Width: 1184
GlyphClass: 2
Flags: W
LayerCount: 2
Fore
SplineSet
834 877 m 1,0,1
 747 1041 747 1041 544 1247 c 1,2,-1
 292 1143 l 1,3,-1
 230 1257 l 1,4,-1
 453 1344 l 1,5,-1
 288 1510 l 1,6,-1
 506 1510 l 1,7,-1
 605 1411 l 1,8,-1
 856 1512 l 1,9,-1
 917 1403 l 1,10,-1
 697 1312 l 1,11,12
 908 1066 908 1066 1005 884 c 1,13,14
 1107 696 1107 696 1107 492 c 0,15,16
 1107 381 1107 381 1074 287.5 c 128,-1,17
 1041 194 1041 194 978 124 c 128,-1,18
 915 54 915 54 816.5 14.5 c 128,-1,19
 718 -25 718 -25 593 -25 c 0,20,21
 472 -25 472 -25 373 16 c 128,-1,22
 274 57 274 57 210 127.5 c 128,-1,23
 146 198 146 198 111.5 290 c 128,-1,24
 77 382 77 382 77 486 c 0,25,26
 77 698 77 698 213.5 835 c 128,-1,27
 350 972 350 972 549 972 c 0,28,29
 707 972 707 972 834 877 c 1,0,1
259 485 m 0,30,31
 259 386 259 386 295.5 304 c 128,-1,32
 332 222 332 222 411 168 c 128,-1,33
 490 114 490 114 599 114 c 0,34,35
 756 114 756 114 845.5 215 c 128,-1,36
 935 316 935 316 935 472 c 0,37,38
 935 541 935 541 912.5 605 c 128,-1,39
 890 669 890 669 848 720 c 128,-1,40
 806 771 806 771 739.5 802 c 128,-1,41
 673 833 673 833 593 833 c 0,42,43
 439 833 439 833 349 733 c 128,-1,44
 259 633 259 633 259 485 c 0,30,31
EndSplineSet
EndChar

StartChar: divide
Encoding: 247 247 185
Width: 1211
GlyphClass: 2
Flags: W
LayerCount: 2
Fore
SplineSet
682 249 m 1,0,-1
 682 22 l 1,1,-1
 491 22 l 1,2,-1
 491 249 l 1,3,-1
 682 249 l 1,0,-1
716 1166 m 1,4,-1
 716 939 l 1,5,-1
 491 939 l 1,6,-1
 491 1166 l 1,7,-1
 716 1166 l 1,4,-1
1098 523 m 1,8,-1
 97 523 l 1,9,-1
 97 672 l 1,10,-1
 1098 672 l 1,11,-1
 1098 523 l 1,8,-1
EndSplineSet
EndChar

StartChar: oslash
Encoding: 248 248 186
Width: 1179
GlyphClass: 2
Flags: W
LayerCount: 2
Fore
SplineSet
392 182 m 1,0,-1
 723 963 l 1,1,2
 666 986 666 986 594 986 c 0,3,4
 509 986 509 986 441.5 949 c 128,-1,5
 374 912 374 912 333 849 c 128,-1,6
 292 786 292 786 271 708 c 128,-1,7
 250 630 250 630 250 544 c 0,8,9
 250 432 250 432 286 336 c 128,-1,10
 322 240 322 240 392 182 c 1,0,-1
462 139 m 1,11,12
 522 113 522 113 597 113 c 0,13,14
 683 113 683 113 748.5 149 c 128,-1,15
 814 185 814 185 852 246.5 c 128,-1,16
 890 308 890 308 909 384 c 128,-1,17
 928 460 928 460 928 547 c 0,18,19
 928 811 928 811 794 921 c 1,20,-1
 462 139 l 1,11,12
894 1367 m 1,21,-1
 971 1336 l 1,22,-1
 854 1060 l 1,23,24
 975 990 975 990 1038.5 854.5 c 128,-1,25
 1102 719 1102 719 1102 549 c 0,26,27
 1102 434 1102 434 1068.5 331 c 128,-1,28
 1035 228 1035 228 972 148 c 128,-1,29
 909 68 909 68 811.5 21.5 c 128,-1,30
 714 -25 714 -25 594 -25 c 0,31,32
 491 -25 491 -25 406 7 c 1,33,-1
 286 -275 l 1,34,-1
 215 -237 l 1,35,-1
 333 41 l 1,36,37
 210 112 210 112 143.5 246 c 128,-1,38
 77 380 77 380 77 547 c 0,39,40
 77 706 77 706 136.5 835.5 c 128,-1,41
 196 965 196 965 316 1044.5 c 128,-1,42
 436 1124 436 1124 597 1124 c 0,43,44
 694 1124 694 1124 779 1094 c 1,45,-1
 894 1367 l 1,21,-1
EndSplineSet
EndChar

StartChar: thorn
Encoding: 254 254 192
Width: 1205
GlyphClass: 2
Flags: W
LayerCount: 2
Fore
SplineSet
624 113 m 0,0,1
 691 113 691 113 745 140.5 c 128,-1,2
 799 168 799 168 832 212 c 128,-1,3
 865 256 865 256 887 315 c 128,-1,4
 909 374 909 374 917.5 432 c 128,-1,5
 926 490 926 490 926 551 c 0,6,7
 926 629 926 629 911.5 701 c 128,-1,8
 897 773 897 773 865 839.5 c 128,-1,9
 833 906 833 906 773 946 c 128,-1,10
 713 986 713 986 631 986 c 0,11,12
 522 986 522 986 443 924.5 c 128,-1,13
 364 863 364 863 327 766 c 128,-1,14
 290 669 290 669 290 551 c 0,15,16
 290 461 290 461 309 384.5 c 128,-1,17
 328 308 328 308 367 246 c 128,-1,18
 406 184 406 184 471.5 148.5 c 128,-1,19
 537 113 537 113 624 113 c 0,0,1
292 162 m 1,20,-1
 292 -437 l 1,21,-1
 124 -459 l 1,22,-1
 124 1262 l 1,23,-1
 124 1496 l 1,24,-1
 292 1510 l 1,25,-1
 292 933 l 1,26,27
 421 1124 421 1124 643 1124 c 1,28,29
 778 1123 778 1123 882.5 1048.5 c 128,-1,30
 987 974 987 974 1043 846.5 c 128,-1,31
 1099 719 1099 719 1099 560 c 0,32,33
 1099 471 1099 471 1081.5 387 c 128,-1,34
 1064 303 1064 303 1027 228 c 128,-1,35
 990 153 990 153 937 97 c 128,-1,36
 884 41 884 41 808.5 8 c 128,-1,37
 733 -25 733 -25 643 -25 c 0,38,39
 402 -25 402 -25 292 162 c 1,20,-1
EndSplineSet
EndChar

StartChar: dcroat
Encoding: 273 273 211
Width: 1174
GlyphClass: 2
Flags: W
LayerCount: 2
Fore
SplineSet
557 124 m 0,0,1
 718 124 718 124 802.5 244 c 128,-1,2
 887 364 887 364 887 551 c 0,3,4
 887 641 887 641 867.5 717 c 128,-1,5
 848 793 848 793 809 852 c 128,-1,6
 770 911 770 911 705 944 c 128,-1,7
 640 977 640 977 555 977 c 0,8,9
 475 977 475 977 413.5 940 c 128,-1,10
 352 903 352 903 318 841 c 128,-1,11
 284 779 284 779 267 707.5 c 128,-1,12
 250 636 250 636 250 557 c 0,13,14
 250 471 250 471 266.5 396.5 c 128,-1,15
 283 322 283 322 317.5 259.5 c 128,-1,16
 352 197 352 197 413.5 160.5 c 128,-1,17
 475 124 475 124 557 124 c 0,0,1
884 172 m 1,18,19
 835 84 835 84 745.5 30 c 128,-1,20
 656 -24 656 -24 546 -24 c 0,21,22
 328 -24 328 -24 202.5 138 c 128,-1,23
 77 300 77 300 77 562 c 0,24,25
 77 717 77 717 134 845 c 128,-1,26
 191 973 191 973 297.5 1049 c 128,-1,27
 404 1125 404 1125 540 1125 c 0,28,29
 651 1125 651 1125 747.5 1074 c 128,-1,30
 844 1023 844 1023 886 937 c 1,31,-1
 886 1243 l 1,32,-1
 636 1243 l 1,33,-1
 636 1351 l 1,34,-1
 886 1351 l 1,35,-1
 886 1490 l 1,36,-1
 1054 1510 l 1,37,-1
 1054 1351 l 1,38,-1
 1174 1351 l 1,39,-1
 1174 1243 l 1,40,-1
 1054 1243 l 1,41,-1
 1054 0 l 1,42,-1
 905 0 l 1,43,-1
 884 172 l 1,18,19
EndSplineSet
EndChar

StartChar: gcommaaccent
Encoding: 291 291 225
Width: 1268
GlyphClass: 2
Flags: W
LayerCount: 2
Fore
SplineSet
793 1749 m 1,0,-1
 683 1250 l 1,1,-1
 488 1250 l 1,2,-1
 653 1749 l 1,3,-1
 793 1749 l 1,0,-1
324 -502 m 1,4,-1
 302 -351 l 1,5,-1
 506 -351 l 2,6,7
 591 -351 591 -351 654 -339 c 128,-1,8
 717 -327 717 -327 759 -299.5 c 128,-1,9
 801 -272 801 -272 827 -238.5 c 128,-1,10
 853 -205 853 -205 866.5 -151.5 c 128,-1,11
 880 -98 880 -98 884.5 -45.5 c 128,-1,12
 889 7 889 7 889 83 c 2,13,-1
 889 180 l 1,14,15
 829 93 829 93 750.5 47 c 128,-1,16
 672 1 672 1 551 1 c 0,17,18
 457 1 457 1 378 33.5 c 128,-1,19
 299 66 299 66 245 120 c 128,-1,20
 191 174 191 174 153 245 c 128,-1,21
 115 316 115 316 97.5 392 c 128,-1,22
 80 468 80 468 80 545 c 0,23,24
 80 640 80 640 98 725 c 128,-1,25
 116 810 116 810 154.5 883.5 c 128,-1,26
 193 957 193 957 249 1010 c 128,-1,27
 305 1063 305 1063 385.5 1093.5 c 128,-1,28
 466 1124 466 1124 563 1124 c 0,29,30
 767 1124 767 1124 894 951 c 1,31,-1
 894 1098 l 1,32,-1
 1057 1098 l 1,33,-1
 1057 79 l 2,34,35
 1057 9 1057 9 1053.5 -43.5 c 128,-1,36
 1050 -96 1050 -96 1036.5 -160 c 128,-1,37
 1023 -224 1023 -224 1000 -270 c 128,-1,38
 977 -316 977 -316 935.5 -362.5 c 128,-1,39
 894 -409 894 -409 836.5 -437.5 c 128,-1,40
 779 -466 779 -466 694 -484 c 128,-1,41
 609 -502 609 -502 502 -502 c 2,42,-1
 324 -502 l 1,4,-1
576 143 m 0,43,44
 645 143 645 143 699.5 163 c 128,-1,45
 754 183 754 183 790 217.5 c 128,-1,46
 826 252 826 252 849.5 300 c 128,-1,47
 873 348 873 348 883.5 401.5 c 128,-1,48
 894 455 894 455 894 516 c 2,49,-1
 894 597 l 2,50,51
 894 678 894 678 876 745.5 c 128,-1,52
 858 813 858 813 821 867 c 128,-1,53
 784 921 784 921 721.5 951.5 c 128,-1,54
 659 982 659 982 577 982 c 0,55,56
 493 982 493 982 427.5 942.5 c 128,-1,57
 362 903 362 903 325.5 838.5 c 128,-1,58
 289 774 289 774 270.5 701.5 c 128,-1,59
 252 629 252 629 252 554 c 0,60,61
 252 496 252 496 263.5 439 c 128,-1,62
 275 382 275 382 301 328 c 128,-1,63
 327 274 327 274 364 233.5 c 128,-1,64
 401 193 401 193 456 168 c 128,-1,65
 511 143 511 143 576 143 c 0,43,44
EndSplineSet
EndChar

StartChar: Hbar
Encoding: 294 294 230
Width: 1463
GlyphClass: 2
Flags: W
LayerCount: 2
Fore
SplineSet
1141 696 m 1,0,-1
 324 696 l 1,1,-1
 324 0 l 1,2,-1
 147 0 l 1,3,-1
 147 1146 l 1,4,-1
 57 1146 l 1,5,-1
 57 1251 l 1,6,-1
 147 1251 l 1,7,-1
 147 1496 l 1,8,-1
 324 1496 l 1,9,-1
 324 1251 l 1,10,-1
 1141 1251 l 1,11,-1
 1141 1496 l 1,12,-1
 1318 1496 l 1,13,-1
 1318 1251 l 1,14,-1
 1408 1251 l 1,15,-1
 1408 1146 l 1,16,-1
 1318 1146 l 1,17,-1
 1318 0 l 1,18,-1
 1141 0 l 1,19,-1
 1141 696 l 1,0,-1
324 1146 m 1,20,-1
 324 848 l 1,21,-1
 1141 848 l 1,22,-1
 1141 1146 l 1,23,-1
 324 1146 l 1,20,-1
EndSplineSet
EndChar

StartChar: hbar
Encoding: 295 295 231
Width: 1115
GlyphClass: 2
Flags: W
LayerCount: 2
Fore
SplineSet
282 748 m 1,0,-1
 282 0 l 1,1,-1
 114 0 l 1,2,-1
 114 1243 l 1,3,-1
 21 1243 l 1,4,-1
 21 1351 l 1,5,-1
 114 1351 l 1,6,-1
 114 1490 l 1,7,-1
 282 1510 l 1,8,-1
 282 1351 l 1,9,-1
 558 1351 l 1,10,-1
 558 1243 l 1,11,-1
 282 1243 l 1,12,-1
 282 949 l 1,13,14
 427 1124 427 1124 674 1124 c 0,15,16
 842 1124 842 1124 924.5 1004.5 c 128,-1,17
 1007 885 1007 885 1007 664 c 2,18,-1
 1007 0 l 1,19,-1
 839 0 l 1,20,-1
 839 617 l 2,21,22
 839 697 839 697 834 751 c 128,-1,23
 829 805 829 805 815.5 851.5 c 128,-1,24
 802 898 802 898 777.5 924.5 c 128,-1,25
 753 951 753 951 714 965.5 c 128,-1,26
 675 980 675 980 619 980 c 0,27,28
 498 980 498 980 401 906.5 c 128,-1,29
 304 833 304 833 282 748 c 1,0,-1
EndSplineSet
EndChar

StartChar: dotlessi
Encoding: 305 305 241
Width: 430
GlyphClass: 2
Flags: W
LayerCount: 2
Fore
SplineSet
304 1098 m 1,0,-1
 304 0 l 1,1,-1
 135 0 l 1,2,-1
 135 1098 l 1,3,-1
 304 1098 l 1,0,-1
EndSplineSet
EndChar

StartChar: IJ
Encoding: 306 306 242
Width: 1464
GlyphClass: 2
Flags: W
LayerCount: 2
Fore
SplineSet
1133 409 m 2,0,-1
 1133 1557 l 1,1,-1
 1309 1557 l 1,2,-1
 1309 461 l 2,3,4
 1309 400 1309 400 1307.5 357 c 128,-1,5
 1306 314 1306 314 1301 267 c 128,-1,6
 1296 220 1296 220 1286.5 188 c 128,-1,7
 1277 156 1277 156 1261.5 122.5 c 128,-1,8
 1246 89 1246 89 1223.5 67.5 c 128,-1,9
 1201 46 1201 46 1170 26 c 128,-1,10
 1139 6 1139 6 1098 -4.5 c 128,-1,11
 1057 -15 1057 -15 1004.5 -21.5 c 128,-1,12
 952 -28 952 -28 887 -28 c 2,13,-1
 854 -28 l 1,14,-1
 854 139 l 1,15,-1
 907 139 l 1,16,17
 952 140 952 140 987 147.5 c 128,-1,18
 1022 155 1022 155 1045.5 166.5 c 128,-1,19
 1069 178 1069 178 1085.5 198 c 128,-1,20
 1102 218 1102 218 1111.5 237.5 c 128,-1,21
 1121 257 1121 257 1125.5 288 c 128,-1,22
 1130 319 1130 319 1131.5 344.5 c 128,-1,23
 1133 370 1133 370 1133 409 c 2,0,-1
334 1557 m 1,24,-1
 334 0 l 1,25,-1
 155 0 l 1,26,-1
 155 1557 l 1,27,-1
 334 1557 l 1,24,-1
EndSplineSet
EndChar

StartChar: ij
Encoding: 307 307 243
Width: 976
GlyphClass: 2
Flags: W
LayerCount: 2
Fore
SplineSet
817 1098 m 1,0,-1
 817 180 l 2,1,2
 817 111 817 111 815.5 66.5 c 128,-1,3
 814 22 814 22 808 -27 c 128,-1,4
 802 -76 802 -76 791 -106.5 c 128,-1,5
 780 -137 780 -137 761.5 -169 c 128,-1,6
 743 -201 743 -201 716 -220.5 c 128,-1,7
 689 -240 689 -240 650 -258.5 c 128,-1,8
 611 -277 611 -277 561 -288.5 c 128,-1,9
 511 -300 511 -300 445 -308 c 1,10,-1
 437 -310 l 1,11,-1
 437 -141 l 1,12,-1
 445 -141 l 1,13,14
 482 -137 482 -137 511 -130 c 128,-1,15
 540 -123 540 -123 560.5 -111 c 128,-1,16
 581 -99 581 -99 596 -88 c 128,-1,17
 611 -77 611 -77 620.5 -56.5 c 128,-1,18
 630 -36 630 -36 635.5 -21 c 128,-1,19
 641 -6 641 -6 643.5 22.5 c 128,-1,20
 646 51 646 51 646.5 70.5 c 128,-1,21
 647 90 647 90 647 126 c 2,22,-1
 647 1098 l 1,23,-1
 817 1098 l 1,0,-1
325 1098 m 1,24,-1
 325 0 l 1,25,-1
 155 0 l 1,26,-1
 155 1098 l 1,27,-1
 325 1098 l 1,24,-1
325 1557 m 1,28,-1
 325 1359 l 1,29,-1
 155 1359 l 1,30,-1
 155 1557 l 1,31,-1
 325 1557 l 1,28,-1
817 1557 m 1,32,-1
 817 1359 l 1,33,-1
 647 1359 l 1,34,-1
 647 1557 l 1,35,-1
 817 1557 l 1,32,-1
EndSplineSet
EndChar

StartChar: kgreenlandic
Encoding: 312 312 248
Width: 1104
GlyphClass: 2
Flags: W
LayerCount: 2
Fore
SplineSet
823 0 m 1,0,-1
 293 506 l 1,1,-1
 293 0 l 1,2,-1
 147 0 l 1,3,-1
 147 1105 l 1,4,-1
 293 1105 l 1,5,-1
 293 600 l 1,6,-1
 776 1105 l 1,7,-1
 981 1105 l 1,8,-1
 448 551 l 1,9,10
 799 231 799 231 1014 0 c 1,11,-1
 823 0 l 1,0,-1
EndSplineSet
EndChar

StartChar: Lslash
Encoding: 321 321 257
Width: 960
GlyphClass: 2
Flags: W
LayerCount: 2
Fore
SplineSet
0 527 m 1,0,-1
 0 675 l 1,1,-1
 148 756 l 1,2,-1
 148 1496 l 1,3,-1
 325 1496 l 1,4,-1
 325 853 l 1,5,-1
 675 1045 l 1,6,-1
 675 889 l 1,7,-1
 325 701 l 1,8,-1
 325 155 l 1,9,-1
 982 155 l 1,10,-1
 970 0 l 1,11,-1
 148 0 l 1,12,-1
 148 606 l 1,13,-1
 0 527 l 1,0,-1
EndSplineSet
EndChar

StartChar: lslash
Encoding: 322 322 258
Width: 589
GlyphClass: 2
Flags: W
LayerCount: 2
Fore
SplineSet
487 985 m 1,0,-1
 487 839 l 1,1,-1
 311 703 l 1,2,-1
 311 431 l 2,3,4
 311 363 311 363 312 324 c 128,-1,5
 313 285 313 285 317 244.5 c 128,-1,6
 321 204 321 204 328.5 184 c 128,-1,7
 336 164 336 164 350 146.5 c 128,-1,8
 364 129 364 129 383.5 123 c 128,-1,9
 403 117 403 117 432 117 c 0,10,11
 444 117 444 117 522 123 c 1,12,-1
 533 -8 l 1,13,14
 459 -21 459 -21 419 -21 c 0,15,16
 361 -21 361 -21 319 -11.5 c 128,-1,17
 277 -2 277 -2 246.5 11 c 128,-1,18
 216 24 216 24 197 58 c 128,-1,19
 178 92 178 92 166.5 121.5 c 128,-1,20
 155 151 155 151 150 213.5 c 128,-1,21
 145 276 145 276 144 325 c 128,-1,22
 143 374 143 374 143 468 c 2,23,-1
 143 573 l 1,24,-1
 31 486 l 1,25,-1
 31 631 l 1,26,-1
 143 718 l 1,27,-1
 143 1490 l 1,28,-1
 311 1510 l 1,29,-1
 311 848 l 1,30,-1
 487 985 l 1,0,-1
EndSplineSet
EndChar

StartChar: OE
Encoding: 338 338 271
Width: 1980
GlyphClass: 2
Flags: W
LayerCount: 2
Fore
SplineSet
1148 1259 m 1,0,1
 1009 1373 1009 1373 815 1373 c 0,2,3
 577 1373 577 1373 437 1206.5 c 128,-1,4
 297 1040 297 1040 291 773 c 1,5,6
 291 663 291 663 308.5 569.5 c 128,-1,7
 326 476 326 476 366 394.5 c 128,-1,8
 406 313 406 313 467 255 c 128,-1,9
 528 197 528 197 619 163.5 c 128,-1,10
 710 130 710 130 824 129 c 0,11,12
 909 129 909 129 1003.5 160.5 c 128,-1,13
 1098 192 1098 192 1148 222 c 1,14,-1
 1148 1259 l 1,0,1
800 1524 m 0,15,16
 908 1524 908 1524 999 1494 c 128,-1,17
 1090 1464 1090 1464 1148 1413 c 1,18,-1
 1148 1495 l 1,19,-1
 1874 1495 l 1,20,-1
 1857 1341 l 1,21,-1
 1325 1341 l 1,22,-1
 1325 845 l 1,23,-1
 1821 845 l 1,24,-1
 1821 692 l 1,25,-1
 1325 692 l 1,26,-1
 1325 156 l 1,27,-1
 1898 156 l 1,28,-1
 1883 0 l 1,29,-1
 1148 0 l 1,30,-1
 1148 82 l 1,31,32
 1114 46 1114 46 1011 11.5 c 128,-1,33
 908 -23 908 -23 823 -23 c 0,34,35
 590 -23 590 -23 426 78 c 128,-1,36
 262 179 262 179 181.5 356 c 128,-1,37
 101 533 101 533 101 771 c 1,38,39
 106 987 106 987 196 1158.5 c 128,-1,40
 286 1330 286 1330 444 1427 c 128,-1,41
 602 1524 602 1524 800 1524 c 0,15,16
EndSplineSet
EndChar

StartChar: oe
Encoding: 339 339 272
Width: 1916
GlyphClass: 2
Flags: W
LayerCount: 2
Fore
SplineSet
1425 -25 m 0,0,1
 1281 -25 1281 -25 1172 36 c 128,-1,2
 1063 97 1063 97 1000 211 c 1,3,4
 937 101 937 101 832.5 38 c 128,-1,5
 728 -25 728 -25 587 -25 c 0,6,7
 426 -25 426 -25 310 53 c 128,-1,8
 194 131 194 131 138 258.5 c 128,-1,9
 82 386 82 386 82 547 c 0,10,11
 82 666 82 666 115.5 770 c 128,-1,12
 149 874 149 874 211 953 c 128,-1,13
 273 1032 273 1032 371 1078 c 128,-1,14
 469 1124 469 1124 590 1124 c 0,15,16
 736 1124 736 1124 840.5 1062 c 128,-1,17
 945 1000 945 1000 1005 889 c 1,18,19
 1066 995 1066 995 1175 1057.5 c 128,-1,20
 1284 1120 1284 1120 1414 1124 c 1,21,22
 1616 1124 1616 1124 1725 982.5 c 128,-1,23
 1834 841 1834 841 1834 594 c 0,24,25
 1834 586 1834 586 1833 557.5 c 128,-1,26
 1832 529 1832 529 1832 519 c 1,27,-1
 1093 519 l 1,28,29
 1093 337 1093 337 1188 228 c 128,-1,30
 1283 119 1283 119 1430 119 c 0,31,32
 1535 119 1535 119 1613.5 149 c 128,-1,33
 1692 179 1692 179 1766 229 c 1,34,-1
 1818 107 l 1,35,36
 1664 -25 1664 -25 1425 -25 c 0,0,1
1099 634 m 1,37,-1
 1672 634 l 1,38,39
 1672 806 1672 806 1600.5 897 c 128,-1,40
 1529 988 1529 988 1404 988 c 128,-1,41
 1279 988 1279 988 1196 892 c 128,-1,42
 1113 796 1113 796 1099 634 c 1,37,-1
590 113 m 0,43,44
 676 113 676 113 741.5 149 c 128,-1,45
 807 185 807 185 845 246.5 c 128,-1,46
 883 308 883 308 902 384 c 128,-1,47
 921 460 921 460 921 547 c 0,48,49
 921 638 921 638 903 714.5 c 128,-1,50
 885 791 885 791 847 853.5 c 128,-1,51
 809 916 809 916 742.5 951 c 128,-1,52
 676 986 676 986 587 986 c 0,53,54
 518 986 518 986 462 961.5 c 128,-1,55
 406 937 406 937 368 895 c 128,-1,56
 330 853 330 853 304 796 c 128,-1,57
 278 739 278 739 266.5 676 c 128,-1,58
 255 613 255 613 255 544 c 0,59,60
 255 458 255 458 274 383 c 128,-1,61
 293 308 293 308 332 246 c 128,-1,62
 371 184 371 184 437 148.5 c 128,-1,63
 503 113 503 113 590 113 c 0,43,44
EndSplineSet
EndChar

StartChar: florin
Encoding: 402 402 309
Width: 978
GlyphClass: 2
Flags: W
LayerCount: 2
Fore
SplineSet
412 865 m 1,0,-1
 254 865 l 1,1,-1
 265 1015 l 1,2,-1
 438 1015 l 1,3,-1
 460 1178 l 1,4,5
 512 1547 512 1547 783 1547 c 0,6,7
 832 1547 832 1547 911 1525 c 1,8,-1
 903 1369 l 1,9,10
 849 1393 849 1393 807 1393 c 0,11,12
 733 1393 733 1393 700 1353 c 128,-1,13
 667 1313 667 1313 654 1227 c 1,14,-1
 615 1015 l 1,15,-1
 801 1015 l 1,16,-1
 790 865 l 1,17,-1
 593 865 l 1,18,-1
 460 130 l 2,19,20
 446 57 446 57 433.5 4 c 128,-1,21
 421 -49 421 -49 401.5 -109.5 c 128,-1,22
 382 -170 382 -170 357 -211 c 128,-1,23
 332 -252 332 -252 298.5 -287.5 c 128,-1,24
 265 -323 265 -323 219.5 -340.5 c 128,-1,25
 174 -358 174 -358 119 -358 c 0,26,27
 90 -358 90 -358 28 -339 c 1,28,-1
 39 -192 l 1,29,30
 83 -210 83 -210 108 -210 c 0,31,32
 148 -210 148 -210 178.5 -178.5 c 128,-1,33
 209 -147 209 -147 225.5 -103 c 128,-1,34
 242 -59 242 -59 255 6 c 1,35,36
 293 168 293 168 347 487.5 c 128,-1,37
 401 807 401 807 412 865 c 1,0,-1
EndSplineSet
EndChar

StartChar: uni0237
Encoding: 567 567 348
Width: 444
GlyphClass: 2
Flags: W
LayerCount: 2
Fore
SplineSet
330 1098 m 1,0,-1
 330 -139 l 2,1,2
 330 -245 330 -245 316.5 -310 c 128,-1,3
 303 -375 303 -375 265.5 -420.5 c 128,-1,4
 228 -466 228 -466 164 -484 c 128,-1,5
 100 -502 100 -502 -3 -502 c 2,6,-1
 -55 -502 l 1,7,-1
 -77 -351 l 1,8,-1
 -25 -351 l 2,9,10
 14 -351 14 -351 42.5 -346.5 c 128,-1,11
 71 -342 71 -342 91.5 -335 c 128,-1,12
 112 -328 112 -328 125 -312 c 128,-1,13
 138 -296 138 -296 145.5 -281.5 c 128,-1,14
 153 -267 153 -267 156.5 -238 c 128,-1,15
 160 -209 160 -209 161 -186 c 128,-1,16
 162 -163 162 -163 162 -121 c 2,17,-1
 162 1098 l 1,18,-1
 330 1098 l 1,0,-1
EndSplineSet
EndChar

StartChar: circumflex
Encoding: 710 710 349
Width: 800
GlyphClass: 2
Flags: W
LayerCount: 2
Fore
SplineSet
108 1251 m 1,0,-1
 295 1639 l 1,1,-1
 508 1639 l 1,2,-1
 695 1251 l 1,3,-1
 561 1251 l 1,4,-1
 400 1523 l 1,5,-1
 239 1251 l 1,6,-1
 108 1251 l 1,0,-1
EndSplineSet
EndChar

StartChar: caron
Encoding: 711 711 350
Width: 800
GlyphClass: 2
Flags: W
LayerCount: 2
Fore
SplineSet
108 1639 m 1,0,-1
 239 1639 l 1,1,-1
 400 1327 l 1,2,-1
 561 1639 l 1,3,-1
 695 1639 l 1,4,-1
 508 1251 l 1,5,-1
 295 1251 l 1,6,-1
 108 1639 l 1,0,-1
EndSplineSet
EndChar

StartChar: breve
Encoding: 728 728 351
Width: 754
GlyphClass: 2
Flags: W
LayerCount: 2
Fore
SplineSet
377 1299 m 0,0,1
 277 1299 277 1299 202.5 1367 c 128,-1,2
 128 1435 128 1435 128 1557 c 1,3,-1
 244 1557 l 1,4,5
 244 1488 244 1488 281.5 1452 c 128,-1,6
 319 1416 319 1416 377 1416 c 128,-1,7
 435 1416 435 1416 474 1452 c 128,-1,8
 513 1488 513 1488 513 1557 c 1,9,-1
 630 1557 l 1,10,11
 630 1436 630 1436 554 1367.5 c 128,-1,12
 478 1299 478 1299 377 1299 c 0,0,1
EndSplineSet
EndChar

StartChar: dotaccent
Encoding: 729 729 352
Width: 411
GlyphClass: 2
Flags: W
LayerCount: 2
Fore
SplineSet
208 1539 m 0,0,1
 271 1539 271 1539 306 1500 c 128,-1,2
 341 1461 341 1461 341 1407 c 128,-1,3
 341 1353 341 1353 306 1314 c 128,-1,4
 271 1275 271 1275 208 1275 c 0,5,6
 146 1275 146 1275 110.5 1314.5 c 128,-1,7
 75 1354 75 1354 75 1407 c 128,-1,8
 75 1460 75 1460 110.5 1499.5 c 128,-1,9
 146 1539 146 1539 208 1539 c 0,0,1
EndSplineSet
EndChar

StartChar: ring
Encoding: 730 730 353
Width: 634
GlyphClass: 2
Flags: W
LayerCount: 2
Fore
SplineSet
320 1638 m 128,-1,1
 399 1638 399 1638 456.5 1581.5 c 128,-1,2
 514 1525 514 1525 514 1442 c 128,-1,3
 514 1359 514 1359 457 1308 c 128,-1,4
 400 1257 400 1257 322 1257 c 0,5,6
 241 1257 241 1257 183 1308 c 128,-1,7
 125 1359 125 1359 125 1442 c 0,8,9
 125 1528 125 1528 183 1583 c 128,-1,0
 241 1638 241 1638 320 1638 c 128,-1,1
320 1330 m 0,10,11
 358 1330 358 1330 387 1363.5 c 128,-1,12
 416 1397 416 1397 416 1442 c 0,13,14
 416 1489 416 1489 388.5 1523 c 128,-1,15
 361 1557 361 1557 320 1557 c 0,16,17
 281 1557 281 1557 251 1522 c 128,-1,18
 221 1487 221 1487 221 1442 c 0,19,20
 221 1391 221 1391 248 1360.5 c 128,-1,21
 275 1330 275 1330 320 1330 c 0,10,11
EndSplineSet
EndChar

StartChar: ogonek
Encoding: 731 731 354
Width: 590
GlyphClass: 2
Flags: W
LayerCount: 2
Fore
SplineSet
331 -303 m 0,0,1
 388 -303 388 -303 468 -270 c 1,2,-1
 468 -387 l 1,3,4
 392 -419 392 -419 311 -419 c 0,5,6
 227 -419 227 -419 172.5 -372.5 c 128,-1,7
 118 -326 118 -326 118 -243 c 0,8,9
 118 -106 118 -106 309 5 c 1,10,-1
 423 5 l 1,11,12
 243 -128 243 -128 243 -214 c 0,13,14
 243 -252 243 -252 270.5 -277.5 c 128,-1,15
 298 -303 298 -303 331 -303 c 0,0,1
EndSplineSet
EndChar

StartChar: tilde
Encoding: 732 732 355
Width: 885
GlyphClass: 2
Flags: W
LayerCount: 2
Fore
SplineSet
222 1291 m 1,0,-1
 115 1291 l 1,1,2
 115 1401 115 1401 160 1455.5 c 128,-1,3
 205 1510 205 1510 287 1510 c 0,4,5
 341 1510 341 1510 406 1486.5 c 128,-1,6
 471 1463 471 1463 519 1439.5 c 128,-1,7
 567 1416 567 1416 580 1416 c 2,8,-1
 582 1416 l 1,9,10
 601 1417 601 1417 611.5 1433.5 c 128,-1,11
 622 1450 622 1450 624.5 1466 c 128,-1,12
 627 1482 627 1482 629 1510 c 1,13,-1
 738 1510 l 1,14,15
 738 1291 738 1291 589 1291 c 0,16,17
 542 1291 542 1291 429 1339.5 c 128,-1,18
 316 1388 316 1388 279 1388 c 2,19,-1
 277 1388 l 1,20,21
 253 1387 253 1387 238.5 1360.5 c 128,-1,22
 224 1334 224 1334 222 1291 c 1,0,-1
EndSplineSet
EndChar

StartChar: hungarumlaut
Encoding: 733 733 356
Width: 817
GlyphClass: 2
Flags: W
LayerCount: 2
Fore
SplineSet
713 1594 m 1,0,-1
 463 1259 l 1,1,-1
 361 1259 l 1,2,-1
 563 1594 l 1,3,-1
 713 1594 l 1,0,-1
479 1594 m 1,4,-1
 227 1259 l 1,5,-1
 128 1259 l 1,6,-1
 326 1594 l 1,7,-1
 479 1594 l 1,4,-1
EndSplineSet
EndChar

StartChar: uni0307
Encoding: 775 775 357
Width: 411
GlyphClass: 2
Flags: W
LayerCount: 2
Fore
SplineSet
209 1561 m 0,0,1
 272 1561 272 1561 307 1522 c 128,-1,2
 342 1483 342 1483 342 1429 c 128,-1,3
 342 1375 342 1375 307 1336 c 128,-1,4
 272 1297 272 1297 209 1297 c 0,5,6
 147 1297 147 1297 111.5 1336.5 c 128,-1,7
 76 1376 76 1376 76 1429 c 128,-1,8
 76 1482 76 1482 111.5 1521.5 c 128,-1,9
 147 1561 147 1561 209 1561 c 0,0,1
EndSplineSet
EndChar

StartChar: uni030F
Encoding: 783 783 358
Width: 855
GlyphClass: 2
Flags: W
LayerCount: 2
Fore
SplineSet
627 1259 m 1,0,-1
 380 1594 l 1,1,-1
 531 1594 l 1,2,-1
 729 1259 l 1,3,-1
 627 1259 l 1,0,-1
359 1259 m 1,4,-1
 109 1594 l 1,5,-1
 259 1594 l 1,6,-1
 461 1259 l 1,7,-1
 359 1259 l 1,4,-1
EndSplineSet
EndChar

StartChar: uni0311
Encoding: 785 785 359
Width: 767
GlyphClass: 2
Flags: W
LayerCount: 2
Fore
SplineSet
383 1557 m 0,0,1
 484 1557 484 1557 560 1488.5 c 128,-1,2
 636 1420 636 1420 636 1299 c 1,3,-1
 519 1299 l 1,4,5
 519 1368 519 1368 480 1404 c 128,-1,6
 441 1440 441 1440 383 1440 c 128,-1,7
 325 1440 325 1440 287.5 1404 c 128,-1,8
 250 1368 250 1368 250 1299 c 1,9,-1
 134 1299 l 1,10,11
 134 1421 134 1421 208.5 1489 c 128,-1,12
 283 1557 283 1557 383 1557 c 0,0,1
EndSplineSet
EndChar

StartChar: uni0326
Encoding: 806 806 360
Width: 555
GlyphClass: 2
Flags: W
LayerCount: 2
Fore
SplineSet
144 -672 m 1,0,-1
 238 -174 l 1,1,-1
 404 -174 l 1,2,-1
 261 -672 l 1,3,-1
 144 -672 l 1,0,-1
EndSplineSet
EndChar

StartChar: Omega
Encoding: 937 937 361
Width: 1528
GlyphClass: 2
Flags: W
LayerCount: 2
Fore
SplineSet
310 873 m 0,0,1
 310 799 310 799 325.5 730.5 c 128,-1,2
 341 662 341 662 377.5 590 c 128,-1,3
 414 518 414 518 486 459.5 c 128,-1,4
 558 401 558 401 660 368 c 1,5,-1
 660 0 l 1,6,-1
 200 0 l 1,7,-1
 188 155 l 1,8,-1
 505 155 l 1,9,-1
 505 286 l 1,10,11
 402 321 402 321 322 387 c 128,-1,12
 242 453 242 453 194.5 534 c 128,-1,13
 147 615 147 615 123 701 c 128,-1,14
 99 787 99 787 99 871 c 0,15,16
 99 1028 99 1028 156 1155 c 128,-1,17
 213 1282 213 1282 307.5 1360.5 c 128,-1,18
 402 1439 402 1439 520 1481 c 128,-1,19
 638 1523 638 1523 765 1523 c 0,20,21
 866 1523 866 1523 961.5 1497.5 c 128,-1,22
 1057 1472 1057 1472 1142 1418.5 c 128,-1,23
 1227 1365 1227 1365 1291 1289 c 128,-1,24
 1355 1213 1355 1213 1392 1105.5 c 128,-1,25
 1429 998 1429 998 1429 871 c 0,26,27
 1429 787 1429 787 1405 701 c 128,-1,28
 1381 615 1381 615 1333.5 534 c 128,-1,29
 1286 453 1286 453 1206 387 c 128,-1,30
 1126 321 1126 321 1023 286 c 1,31,-1
 1023 155 l 1,32,-1
 1340 155 l 1,33,-1
 1328 0 l 1,34,-1
 868 0 l 1,35,-1
 868 368 l 1,36,37
 970 401 970 401 1042 459.5 c 128,-1,38
 1114 518 1114 518 1150.5 590 c 128,-1,39
 1187 662 1187 662 1202.5 730.5 c 128,-1,40
 1218 799 1218 799 1218 873 c 0,41,42
 1218 972 1218 972 1192.5 1056 c 128,-1,43
 1167 1140 1167 1140 1123.5 1199.5 c 128,-1,44
 1080 1259 1080 1259 1022 1301 c 128,-1,45
 964 1343 964 1343 898.5 1363 c 128,-1,46
 833 1383 833 1383 764 1383 c 128,-1,47
 695 1383 695 1383 629.5 1363 c 128,-1,48
 564 1343 564 1343 506 1301 c 128,-1,49
 448 1259 448 1259 404.5 1199.5 c 128,-1,50
 361 1140 361 1140 335.5 1056 c 128,-1,51
 310 972 310 972 310 873 c 0,0,1
EndSplineSet
EndChar

StartChar: pi
Encoding: 960 960 362
Width: 1456
GlyphClass: 2
Flags: W
LayerCount: 2
Fore
SplineSet
570 954 m 1,0,1
 563 789 563 789 557.5 693 c 128,-1,2
 552 597 552 597 538 438 c 128,-1,3
 524 279 524 279 501 170 c 128,-1,4
 478 61 478 61 446 0 c 1,5,-1
 298 0 l 1,6,7
 401 216 401 216 420 954 c 1,8,9
 268 950 268 950 176 889 c 1,10,-1
 160 1031 l 1,11,12
 202 1071 202 1071 272.5 1084.5 c 128,-1,13
 343 1098 343 1098 470 1098 c 2,14,-1
 1296 1098 l 1,15,-1
 1296 954 l 1,16,-1
 1114 954 l 1,17,-1
 1114 268 l 2,18,19
 1114 243 1114 243 1115 227 c 128,-1,20
 1116 211 1116 211 1120.5 187 c 128,-1,21
 1125 163 1125 163 1134 149 c 128,-1,22
 1143 135 1143 135 1160 124.5 c 128,-1,23
 1177 114 1177 114 1202 114 c 0,24,25
 1226 114 1226 114 1282 128 c 1,26,-1
 1282 -8 l 1,27,28
 1203 -22 1203 -22 1160 -22 c 0,29,30
 1057 -22 1057 -22 1016.5 48 c 128,-1,31
 976 118 976 118 976 287 c 2,32,-1
 976 954 l 1,33,-1
 570 954 l 1,0,1
EndSplineSet
EndChar

StartChar: endash
Encoding: 8211 8211 363
Width: 1317
GlyphClass: 2
Flags: W
LayerCount: 2
Fore
SplineSet
1186 675 m 1,0,-1
 1186 527 l 1,1,-1
 139 527 l 1,2,-1
 139 675 l 1,3,-1
 1186 675 l 1,0,-1
EndSplineSet
EndChar

StartChar: emdash
Encoding: 8212 8212 364
Width: 2427
GlyphClass: 2
Flags: W
LayerCount: 2
Fore
SplineSet
2296 675 m 1,0,-1
 2296 527 l 1,1,-1
 139 527 l 1,2,-1
 139 675 l 1,3,-1
 2296 675 l 1,0,-1
EndSplineSet
EndChar

StartChar: quoteleft
Encoding: 8216 8216 365
Width: 510
GlyphClass: 2
Flags: W
LayerCount: 2
Fore
SplineSet
382 1574 m 1,0,-1
 291 1102 l 1,1,-1
 129 1102 l 1,2,-1
 265 1574 l 1,3,-1
 382 1574 l 1,0,-1
EndSplineSet
EndChar

StartChar: quoteright
Encoding: 8217 8217 366
Width: 504
GlyphClass: 2
Flags: W
LayerCount: 2
Fore
SplineSet
249 1102 m 1,0,-1
 133 1102 l 1,1,-1
 226 1574 l 1,2,-1
 383 1574 l 1,3,-1
 249 1102 l 1,0,-1
EndSplineSet
EndChar

StartChar: quotesinglbase
Encoding: 8218 8218 367
Width: 504
GlyphClass: 2
Flags: W
LayerCount: 2
Fore
SplineSet
126 -256 m 1,0,-1
 218 216 l 1,1,-1
 379 216 l 1,2,-1
 245 -256 l 1,3,-1
 126 -256 l 1,0,-1
EndSplineSet
EndChar

StartChar: quotedblleft
Encoding: 8220 8220 368
Width: 818
GlyphClass: 2
Flags: W
LayerCount: 2
Fore
SplineSet
129 1102 m 1,0,-1
 263 1574 l 1,1,-1
 383 1574 l 1,2,-1
 289 1102 l 1,3,-1
 129 1102 l 1,0,-1
438 1102 m 1,4,-1
 573 1574 l 1,5,-1
 690 1574 l 1,6,-1
 600 1102 l 1,7,-1
 438 1102 l 1,4,-1
EndSplineSet
EndChar

StartChar: quotedblright
Encoding: 8221 8221 369
Width: 795
GlyphClass: 2
Flags: W
LayerCount: 2
Fore
SplineSet
420 1102 m 1,0,-1
 511 1574 l 1,1,-1
 674 1574 l 1,2,-1
 537 1102 l 1,3,-1
 420 1102 l 1,0,-1
133 1102 m 1,4,-1
 226 1574 l 1,5,-1
 385 1574 l 1,6,-1
 250 1102 l 1,7,-1
 133 1102 l 1,4,-1
EndSplineSet
EndChar

StartChar: quotedblbase
Encoding: 8222 8222 370
Width: 819
GlyphClass: 2
Flags: W
LayerCount: 2
Fore
SplineSet
441 -256 m 1,0,-1
 532 216 l 1,1,-1
 694 216 l 1,2,-1
 559 -256 l 1,3,-1
 441 -256 l 1,0,-1
126 -256 m 1,4,-1
 216 216 l 1,5,-1
 377 216 l 1,6,-1
 244 -256 l 1,7,-1
 126 -256 l 1,4,-1
EndSplineSet
EndChar

StartChar: dagger
Encoding: 8224 8224 371
Width: 877
GlyphClass: 2
Flags: W
LayerCount: 2
Fore
SplineSet
372 121 m 1,0,-1
 372 990 l 1,1,-1
 77 990 l 1,2,-1
 77 1098 l 1,3,-1
 372 1098 l 1,4,-1
 372 1495 l 1,5,-1
 502 1495 l 1,6,-1
 502 1098 l 1,7,-1
 800 1098 l 1,8,-1
 800 990 l 1,9,-1
 502 990 l 1,10,-1
 502 121 l 1,11,-1
 372 121 l 1,0,-1
EndSplineSet
EndChar

StartChar: daggerdbl
Encoding: 8225 8225 372
Width: 950
GlyphClass: 2
Flags: W
LayerCount: 2
Fore
SplineSet
505 121 m 1,0,-1
 375 121 l 1,1,-1
 375 518 l 1,2,-1
 77 518 l 1,3,-1
 77 626 l 1,4,-1
 375 626 l 1,5,-1
 375 990 l 1,6,-1
 80 990 l 1,7,-1
 80 1098 l 1,8,-1
 375 1098 l 1,9,-1
 375 1495 l 1,10,-1
 505 1495 l 1,11,-1
 505 1098 l 1,12,-1
 803 1098 l 1,13,-1
 803 990 l 1,14,-1
 505 990 l 1,15,-1
 505 626 l 1,16,-1
 800 626 l 1,17,-1
 800 518 l 1,18,-1
 505 518 l 1,19,-1
 505 121 l 1,0,-1
EndSplineSet
EndChar

StartChar: bullet
Encoding: 8226 8226 373
Width: 868
GlyphClass: 2
Flags: W
LayerCount: 2
Fore
SplineSet
731 746 m 0,0,1
 731 611 731 611 645.5 526 c 128,-1,2
 560 441 560 441 436 441 c 0,3,4
 310 441 310 441 223.5 527.5 c 128,-1,5
 137 614 137 614 137 747 c 0,6,7
 137 882 137 882 225.5 971.5 c 128,-1,8
 314 1061 314 1061 436 1061 c 128,-1,9
 558 1061 558 1061 644.5 970.5 c 128,-1,10
 731 880 731 880 731 746 c 0,0,1
EndSplineSet
EndChar

StartChar: perthousand
Encoding: 8240 8240 375
Width: 2716
GlyphClass: 2
Flags: W
LayerCount: 2
Fore
SplineSet
443 1403 m 0,0,1
 371 1403 371 1403 318.5 1362.5 c 128,-1,2
 266 1322 266 1322 241.5 1260.5 c 128,-1,3
 217 1199 217 1199 217 1126 c 0,4,5
 217 1010 217 1010 277 930 c 128,-1,6
 337 850 337 850 443 850 c 0,7,8
 550 850 550 850 609.5 931 c 128,-1,9
 669 1012 669 1012 669 1126 c 0,10,11
 669 1242 669 1242 609 1322.5 c 128,-1,12
 549 1403 549 1403 443 1403 c 0,0,1
443 1511 m 0,13,14
 612 1511 612 1511 704 1404.5 c 128,-1,15
 796 1298 796 1298 796 1126 c 0,16,17
 796 958 796 958 702.5 850 c 128,-1,18
 609 742 609 742 443 742 c 0,19,20
 275 742 275 742 183 849.5 c 128,-1,21
 91 957 91 957 91 1126 c 128,-1,22
 91 1295 91 1295 184 1403 c 128,-1,23
 277 1511 277 1511 443 1511 c 0,13,14
403 0 m 1,24,-1
 1331 1496 l 1,25,-1
 1475 1496 l 1,26,-1
 544 0 l 1,27,-1
 403 0 l 1,24,-1
1433 646 m 0,28,29
 1361 646 1361 646 1308.5 605.5 c 128,-1,30
 1256 565 1256 565 1231.5 503.5 c 128,-1,31
 1207 442 1207 442 1207 369 c 0,32,33
 1207 253 1207 253 1267 173 c 128,-1,34
 1327 93 1327 93 1433 93 c 0,35,36
 1540 93 1540 93 1599.5 174 c 128,-1,37
 1659 255 1659 255 1659 369 c 0,38,39
 1659 485 1659 485 1599 565.5 c 128,-1,40
 1539 646 1539 646 1433 646 c 0,28,29
1433 754 m 0,41,42
 1602 754 1602 754 1694 647.5 c 128,-1,43
 1786 541 1786 541 1786 369 c 0,44,45
 1786 201 1786 201 1692.5 93 c 128,-1,46
 1599 -15 1599 -15 1433 -15 c 0,47,48
 1265 -15 1265 -15 1173 92.5 c 128,-1,49
 1081 200 1081 200 1081 369 c 128,-1,50
 1081 538 1081 538 1174 646 c 128,-1,51
 1267 754 1267 754 1433 754 c 0,41,42
2275 646 m 0,52,53
 2203 646 2203 646 2150.5 605.5 c 128,-1,54
 2098 565 2098 565 2073.5 503.5 c 128,-1,55
 2049 442 2049 442 2049 369 c 0,56,57
 2049 253 2049 253 2109 173 c 128,-1,58
 2169 93 2169 93 2275 93 c 0,59,60
 2382 93 2382 93 2441.5 174 c 128,-1,61
 2501 255 2501 255 2501 369 c 0,62,63
 2501 485 2501 485 2441 565.5 c 128,-1,64
 2381 646 2381 646 2275 646 c 0,52,53
2275 754 m 0,65,66
 2444 754 2444 754 2536 647.5 c 128,-1,67
 2628 541 2628 541 2628 369 c 0,68,69
 2628 201 2628 201 2534.5 93 c 128,-1,70
 2441 -15 2441 -15 2275 -15 c 0,71,72
 2107 -15 2107 -15 2015 92.5 c 128,-1,73
 1923 200 1923 200 1923 369 c 128,-1,74
 1923 538 1923 538 2016 646 c 128,-1,75
 2109 754 2109 754 2275 754 c 0,65,66
EndSplineSet
EndChar

StartChar: guilsinglleft
Encoding: 8249 8249 376
Width: 620
GlyphClass: 2
Flags: W
LayerCount: 2
Fore
SplineSet
361 982 m 1,0,-1
 501 982 l 1,1,-1
 269 583 l 1,2,-1
 495 182 l 1,3,-1
 356 182 l 1,4,-1
 120 583 l 1,5,-1
 361 982 l 1,0,-1
EndSplineSet
EndChar

StartChar: guilsinglright
Encoding: 8250 8250 377
Width: 617
GlyphClass: 2
Flags: W
LayerCount: 2
Fore
SplineSet
505 585 m 1,0,-1
 264 182 l 1,1,-1
 124 182 l 1,2,-1
 355 585 l 1,3,-1
 130 982 l 1,4,-1
 269 982 l 1,5,-1
 505 585 l 1,0,-1
EndSplineSet
EndChar

StartChar: fraction
Encoding: 8260 8260 378
Width: 1135
GlyphClass: 2
Flags: W
LayerCount: 2
Fore
SplineSet
936 1547 m 1,0,-1
 1066 1547 l 1,1,-1
 191 0 l 1,2,-1
 60 0 l 1,3,-1
 936 1547 l 1,0,-1
EndSplineSet
EndChar

StartChar: uni2074
Encoding: 8308 8308 379
Width: 756
GlyphClass: 2
Flags: W
LayerCount: 2
Fore
SplineSet
214 928 m 1,0,-1
 434 928 l 1,1,-1
 434 1296 l 1,2,-1
 214 928 l 1,0,-1
572 608 m 1,3,-1
 434 608 l 1,4,-1
 434 821 l 1,5,-1
 83 821 l 1,6,-1
 83 941 l 1,7,-1
 424 1496 l 1,8,-1
 572 1496 l 1,9,-1
 572 928 l 1,10,-1
 666 928 l 1,11,-1
 676 821 l 1,12,-1
 572 821 l 1,13,-1
 572 608 l 1,3,-1
EndSplineSet
EndChar

StartChar: Euro
Encoding: 8364 8364 380
Width: 1194
GlyphClass: 2
Flags: W
LayerCount: 2
Fore
SplineSet
84 580 m 1,0,-1
 101 683 l 1,1,-1
 193 683 l 1,2,3
 191 715 191 715 191 731 c 0,4,5
 191 752 191 752 196 845 c 1,6,-1
 83 845 l 1,7,-1
 102 957 l 1,8,-1
 212 957 l 1,9,10
 231 1083 231 1083 275.5 1185.5 c 128,-1,11
 320 1288 320 1288 388.5 1364.5 c 128,-1,12
 457 1441 457 1441 555.5 1482.5 c 128,-1,13
 654 1524 654 1524 774 1524 c 0,14,15
 955 1524 955 1524 1066 1429 c 1,16,-1
 1065 1249 l 1,17,18
 955 1369 955 1369 796 1369 c 0,19,20
 631 1369 631 1369 533 1259.5 c 128,-1,21
 435 1150 435 1150 403 957 c 1,22,-1
 961 957 l 1,23,-1
 944 845 l 1,24,-1
 385 845 l 1,25,26
 383 824 383 824 382 783 c 128,-1,27
 381 742 381 742 381 712.5 c 128,-1,28
 381 683 381 683 380 683 c 2,29,-1
 929 683 l 1,30,-1
 919 580 l 1,31,-1
 397 580 l 1,32,33
 408 489 408 489 436 411 c 128,-1,34
 464 333 464 333 509 270 c 128,-1,35
 554 207 554 207 623 171 c 128,-1,36
 692 135 692 135 778 135 c 0,37,38
 926 135 926 135 1066 244 c 1,39,-1
 1065 69 l 1,40,41
 940 -22 940 -22 759 -22 c 0,42,43
 658 -22 658 -22 572 13 c 128,-1,44
 486 48 486 48 425.5 105.5 c 128,-1,45
 365 163 365 163 318.5 242 c 128,-1,46
 272 321 272 321 245 404.5 c 128,-1,47
 218 488 218 488 205 580 c 1,48,-1
 84 580 l 1,0,-1
EndSplineSet
EndChar

StartChar: trademark
Encoding: 8482 8482 381
Width: 1812
GlyphClass: 2
Flags: W
LayerCount: 2
Fore
SplineSet
90 1496 m 1,0,-1
 727 1496 l 1,1,-1
 727 1394 l 1,2,-1
 463 1394 l 1,3,-1
 463 609 l 1,4,-1
 349 609 l 1,5,-1
 349 1394 l 1,6,-1
 90 1394 l 1,7,-1
 90 1496 l 1,0,-1
849 1496 m 1,8,-1
 1006 1496 l 1,9,-1
 1274 824 l 1,10,-1
 1555 1496 l 1,11,-1
 1704 1496 l 1,12,-1
 1704 609 l 1,13,-1
 1590 609 l 1,14,-1
 1590 1349 l 1,15,-1
 1310 680 l 1,16,-1
 1224 680 l 1,17,-1
 960 1349 l 1,18,-1
 960 609 l 1,19,-1
 849 609 l 1,20,-1
 849 1496 l 1,8,-1
EndSplineSet
EndChar

StartChar: partialdiff
Encoding: 8706 8706 382
Width: 1208
GlyphClass: 2
Flags: W
LayerCount: 2
Fore
SplineSet
301 1405 m 1,0,-1
 288 1553 l 1,1,2
 434 1652 434 1652 609 1652 c 0,3,4
 1069 1652 1069 1652 1069 917 c 0,5,6
 1069 774 1069 774 1049 640.5 c 128,-1,7
 1029 507 1029 507 985.5 384.5 c 128,-1,8
 942 262 942 262 878 171 c 128,-1,9
 814 80 814 80 719.5 26 c 128,-1,10
 625 -28 625 -28 510 -28 c 0,11,12
 409 -28 409 -28 332 8.5 c 128,-1,13
 255 45 255 45 207.5 111 c 128,-1,14
 160 177 160 177 136.5 263 c 128,-1,15
 113 349 113 349 113 452 c 0,16,17
 113 627 113 627 175.5 770 c 128,-1,18
 238 913 238 913 351 995 c 128,-1,19
 464 1077 464 1077 606 1077 c 0,20,21
 811 1077 811 1077 917 901 c 1,22,23
 917 909 917 909 917.5 937 c 128,-1,24
 918 965 918 965 918 980 c 0,25,26
 918 1227 918 1227 832 1367 c 128,-1,27
 746 1507 746 1507 585 1507 c 0,28,29
 447 1507 447 1507 301 1405 c 1,0,-1
511 119 m 0,30,31
 616 119 616 119 701 199 c 128,-1,32
 786 279 786 279 837 410 c 128,-1,33
 888 541 888 541 904 705 c 1,34,35
 876 803 876 803 804.5 869 c 128,-1,36
 733 935 733 935 631 935 c 128,-1,37
 529 935 529 935 443.5 868.5 c 128,-1,38
 358 802 358 802 309.5 690.5 c 128,-1,39
 261 579 261 579 261 450 c 0,40,41
 261 300 261 300 329 209.5 c 128,-1,42
 397 119 397 119 511 119 c 0,30,31
EndSplineSet
EndChar

StartChar: uni2206
Encoding: 8710 8710 383
Width: 1339
GlyphClass: 2
Flags: W
LayerCount: 2
Fore
SplineSet
284 174 m 1,0,-1
 1062 174 l 1,1,2
 1027 276 1027 276 883.5 682 c 128,-1,3
 740 1088 740 1088 668 1312 c 1,4,5
 601 1085 601 1085 459.5 680.5 c 128,-1,6
 318 276 318 276 284 174 c 1,0,-1
1263 86 m 1,7,-1
 1263 0 l 1,8,-1
 83 0 l 1,9,-1
 83 86 l 1,10,-1
 578 1541 l 1,11,-1
 768 1541 l 1,12,-1
 1263 86 l 1,7,-1
EndSplineSet
EndChar

StartChar: product
Encoding: 8719 8719 384
Width: 1463
GlyphClass: 2
Flags: W
LayerCount: 2
Fore
SplineSet
1139 1342 m 1,0,-1
 324 1342 l 1,1,-1
 324 0 l 1,2,-1
 147 0 l 1,3,-1
 147 1496 l 1,4,-1
 1316 1496 l 1,5,-1
 1316 0 l 1,6,-1
 1139 0 l 1,7,-1
 1139 1342 l 1,0,-1
EndSplineSet
EndChar

StartChar: summation
Encoding: 8721 8721 385
Width: 1064
GlyphClass: 2
Flags: W
LayerCount: 2
Fore
SplineSet
1013 161 m 1,0,-1
 1000 0 l 1,1,-1
 82 0 l 1,2,-1
 82 139 l 1,3,-1
 524 833 l 1,4,-1
 104 1354 l 1,5,-1
 104 1496 l 1,6,-1
 960 1496 l 1,7,-1
 960 1343 l 1,8,-1
 304 1343 l 1,9,-1
 721 832 l 1,10,-1
 287 161 l 1,11,-1
 1013 161 l 1,0,-1
EndSplineSet
EndChar

StartChar: radical
Encoding: 8730 8730 386
Width: 1216
GlyphClass: 2
Flags: W
LayerCount: 2
Fore
SplineSet
1035 1718 m 1,0,-1
 1148 1718 l 1,1,-1
 708 -166 l 1,2,-1
 569 -166 l 1,3,-1
 236 743 l 1,4,-1
 84 712 l 1,5,-1
 68 833 l 1,6,-1
 328 889 l 1,7,-1
 569 230 l 1,8,-1
 628 44 l 1,9,10
 763 602 763 602 1035 1718 c 1,0,-1
EndSplineSet
EndChar

StartChar: infinity
Encoding: 8734 8734 387
Width: 1811
GlyphClass: 2
Flags: W
LayerCount: 2
Fore
SplineSet
1678 642 m 0,0,1
 1678 472 1678 472 1576 363 c 128,-1,2
 1474 254 1474 254 1323 254 c 0,3,4
 1211 254 1211 254 1112 320 c 128,-1,5
 1013 386 1013 386 909 525 c 1,6,7
 810 395 810 395 710 324.5 c 128,-1,8
 610 254 610 254 493 254 c 0,9,10
 383 254 383 254 300.5 310 c 128,-1,11
 218 366 218 366 176.5 457 c 128,-1,12
 135 548 135 548 135 659 c 0,13,14
 135 808 135 808 237.5 912.5 c 128,-1,15
 340 1017 340 1017 488 1017 c 0,16,17
 609 1017 609 1017 709 947.5 c 128,-1,18
 809 878 809 878 909 745 c 1,19,20
 1004 876 1004 876 1103.5 946.5 c 128,-1,21
 1203 1017 1203 1017 1326 1017 c 0,22,23
 1493 1017 1493 1017 1585.5 913.5 c 128,-1,24
 1678 810 1678 810 1678 642 c 0,0,1
248 638 m 0,25,26
 248 536 248 536 318 458.5 c 128,-1,27
 388 381 388 381 495 381 c 0,28,29
 666 381 666 381 838 636 c 1,30,31
 675 893 675 893 487 893 c 0,32,33
 379 893 379 893 313.5 819 c 128,-1,34
 248 745 248 745 248 638 c 0,25,26
1555 665 m 0,35,36
 1555 760 1555 760 1488.5 826.5 c 128,-1,37
 1422 893 1422 893 1321 893 c 0,38,39
 1226 893 1226 893 1143 823.5 c 128,-1,40
 1060 754 1060 754 982 638 c 1,41,42
 1081 503 1081 503 1158 442 c 128,-1,43
 1235 381 1235 381 1326 381 c 0,44,45
 1438 381 1438 381 1496.5 460.5 c 128,-1,46
 1555 540 1555 540 1555 665 c 0,35,36
EndSplineSet
EndChar

StartChar: integral
Encoding: 8747 8747 388
Width: 698
GlyphClass: 2
Flags: W
LayerCount: 2
Fore
SplineSet
277 -50 m 2,0,-1
 277 1351 l 2,1,2
 277 1756 277 1756 540 1756 c 0,3,4
 582 1756 582 1756 661 1733 c 1,5,-1
 662 1594 l 1,6,7
 629 1610 629 1610 566 1610 c 0,8,9
 481 1610 481 1610 451 1555.5 c 128,-1,10
 421 1501 421 1501 421 1379 c 2,11,-1
 421 -25 l 2,12,13
 421 -116 421 -116 408 -186.5 c 128,-1,14
 395 -257 395 -257 366.5 -313 c 128,-1,15
 338 -369 338 -369 286.5 -399 c 128,-1,16
 235 -429 235 -429 162 -429 c 0,17,18
 109 -429 109 -429 41 -409 c 1,19,-1
 40 -270 l 1,20,21
 69 -284 69 -284 133 -284 c 0,22,23
 218 -284 218 -284 247.5 -228.5 c 128,-1,24
 277 -173 277 -173 277 -50 c 2,0,-1
EndSplineSet
EndChar

StartChar: approxequal
Encoding: 8776 8776 389
Width: 1314
GlyphClass: 2
Flags: W
LayerCount: 2
Fore
SplineSet
427 988 m 0,0,1
 473 988 473 988 541 960 c 128,-1,2
 609 932 609 932 667.5 899 c 128,-1,3
 726 866 726 866 791 838 c 128,-1,4
 856 810 856 810 896 810 c 0,5,6
 960 810 960 810 1003.5 854.5 c 128,-1,7
 1047 899 1047 899 1077 988 c 1,8,-1
 1176 959 l 1,9,10
 1123 684 1123 684 892 684 c 0,11,12
 848 684 848 684 783 711.5 c 128,-1,13
 718 739 718 739 661.5 772 c 128,-1,14
 605 805 605 805 538 832.5 c 128,-1,15
 471 860 471 860 424 860 c 0,16,17
 286 860 286 860 239 684 c 1,18,-1
 136 712 l 1,19,20
 160 842 160 842 235 915 c 128,-1,21
 310 988 310 988 427 988 c 0,0,1
1080 589 m 1,22,-1
 1178 558 l 1,23,24
 1152 426 1152 426 1085 354 c 128,-1,25
 1018 282 1018 282 895 282 c 0,26,27
 853 282 853 282 787.5 309.5 c 128,-1,28
 722 337 722 337 664.5 370.5 c 128,-1,29
 607 404 607 404 540 431.5 c 128,-1,30
 473 459 473 459 427 459 c 0,31,32
 292 459 292 459 239 280 c 1,33,-1
 138 312 l 1,34,35
 163 444 163 444 237 516.5 c 128,-1,36
 311 589 311 589 428 589 c 0,37,38
 490 589 490 589 562 561 c 128,-1,39
 634 533 634 533 687 500 c 128,-1,40
 740 467 740 467 799 439 c 128,-1,41
 858 411 858 411 898 411 c 0,42,43
 962 411 962 411 1005.5 456 c 128,-1,44
 1049 501 1049 501 1080 589 c 1,22,-1
EndSplineSet
EndChar

StartChar: notequal
Encoding: 8800 8800 390
Width: 1191
GlyphClass: 2
Flags: W
LayerCount: 2
Fore
SplineSet
798 1207 m 1,0,-1
 913 1191 l 1,1,-1
 796 915 l 1,2,-1
 1074 915 l 1,3,-1
 1083 783 l 1,4,-1
 737 783 l 1,5,-1
 581 479 l 1,6,-1
 1076 479 l 1,7,-1
 1083 352 l 1,8,-1
 521 352 l 1,9,-1
 376 48 l 1,10,-1
 263 68 l 1,11,-1
 382 352 l 1,12,-1
 121 352 l 1,13,-1
 114 479 l 1,14,-1
 446 479 l 1,15,-1
 598 783 l 1,16,-1
 121 783 l 1,17,-1
 112 915 l 1,18,-1
 657 915 l 1,19,-1
 798 1207 l 1,0,-1
EndSplineSet
EndChar

StartChar: lessequal
Encoding: 8804 8804 391
Width: 1183
GlyphClass: 2
Flags: W
LayerCount: 2
Fore
SplineSet
1066 141 m 1,0,-1
 1066 8 l 1,1,-1
 101 8 l 1,2,-1
 101 141 l 1,3,-1
 1066 141 l 1,0,-1
1041 383 m 1,4,-1
 1041 232 l 1,5,-1
 131 716 l 1,6,-1
 131 806 l 1,7,-1
 1041 1312 l 1,8,-1
 1041 1162 l 1,9,-1
 285 766 l 1,10,-1
 1041 383 l 1,4,-1
EndSplineSet
EndChar

StartChar: greaterequal
Encoding: 8805 8805 392
Width: 1183
GlyphClass: 2
Flags: W
LayerCount: 2
Fore
SplineSet
150 1164 m 1,0,-1
 150 1314 l 1,1,-1
 1063 806 l 1,2,-1
 1063 719 l 1,3,-1
 146 234 l 1,4,-1
 146 385 l 1,5,-1
 908 762 l 1,6,-1
 150 1164 l 1,0,-1
1080 141 m 1,7,-1
 1080 8 l 1,8,-1
 120 8 l 1,9,-1
 120 141 l 1,10,-1
 1080 141 l 1,7,-1
EndSplineSet
EndChar

StartChar: lozenge
Encoding: 9674 9674 393
Width: 1142
GlyphClass: 2
Flags: W
LayerCount: 2
Fore
SplineSet
630 1583 m 1,0,-1
 1055 768 l 1,1,-1
 621 -48 l 1,2,-1
 512 -48 l 1,3,-1
 87 766 l 1,4,-1
 519 1583 l 1,5,-1
 630 1583 l 1,0,-1
565 106 m 1,6,7
 624 216 624 216 743.5 436 c 128,-1,8
 863 656 863 656 923 766 c 1,9,10
 909 792 909 792 776.5 1042.5 c 128,-1,11
 644 1293 644 1293 577 1424 c 1,12,13
 457 1206 457 1206 219 768 c 1,14,15
 252 705 252 705 374 468.5 c 128,-1,16
 496 232 496 232 565 106 c 1,6,7
EndSplineSet
EndChar

StartChar: uniFB01
Encoding: 64257 64257 394
Width: 1088
GlyphClass: 3
Flags: W
LayerCount: 2
Fore
SplineSet
181 0 m 1,0,-1
 181 980 l 1,1,-1
 20 980 l 1,2,-1
 20 1098 l 1,3,-1
 181 1098 l 1,4,5
 181 1206 181 1206 192.5 1279.5 c 128,-1,6
 204 1353 204 1353 228 1404 c 128,-1,7
 252 1455 252 1455 295.5 1483.5 c 128,-1,8
 339 1512 339 1512 396.5 1524 c 128,-1,9
 454 1536 454 1536 539 1536 c 2,10,-1
 612 1536 l 1,11,-1
 632 1408 l 1,12,-1
 538 1408 l 2,13,14
 507 1408 507 1408 483 1404.5 c 128,-1,15
 459 1401 459 1401 440 1396 c 128,-1,16
 421 1391 421 1391 407.5 1379 c 128,-1,17
 394 1367 394 1367 384 1356 c 128,-1,18
 374 1345 374 1345 367.5 1323 c 128,-1,19
 361 1301 361 1301 357.5 1282.5 c 128,-1,20
 354 1264 354 1264 352 1230.5 c 128,-1,21
 350 1197 350 1197 349.5 1170.5 c 128,-1,22
 349 1144 349 1144 349 1098 c 1,23,-1
 956 1098 l 1,24,-1
 956 0 l 1,25,-1
 788 0 l 1,26,-1
 788 980 l 1,27,-1
 349 980 l 1,28,-1
 349 0 l 1,29,-1
 181 0 l 1,0,-1
788 1496 m 1,30,-1
 956 1496 l 1,31,-1
 956 1298 l 1,32,-1
 788 1298 l 1,33,-1
 788 1496 l 1,30,-1
EndSplineSet
Ligature2: "'liga' Standard Ligatures in Latin lookup 0 subtable" f i
EndChar

StartChar: uniFB02
Encoding: 64258 64258 395
Width: 1237
GlyphClass: 3
Flags: W
LayerCount: 2
Fore
SplineSet
1094 -12 m 0,0,1
 1053 -12 1053 -12 1020 -8.5 c 128,-1,2
 987 -5 987 -5 960 5 c 128,-1,3
 933 15 933 15 912.5 26.5 c 128,-1,4
 892 38 892 38 876 59.5 c 128,-1,5
 860 81 860 81 849 101 c 128,-1,6
 838 121 838 121 830.5 154.5 c 128,-1,7
 823 188 823 188 818.5 218 c 128,-1,8
 814 248 814 248 811.5 295.5 c 128,-1,9
 809 343 809 343 808.5 384 c 128,-1,10
 808 425 808 425 808 487 c 2,11,-1
 808 1376 l 1,12,13
 690 1383 690 1383 617 1383 c 0,14,15
 562 1383 562 1383 526 1379.5 c 128,-1,16
 490 1376 490 1376 457.5 1365 c 128,-1,17
 425 1354 425 1354 406.5 1335.5 c 128,-1,18
 388 1317 388 1317 374 1284.5 c 128,-1,19
 360 1252 360 1252 354.5 1207 c 128,-1,20
 349 1162 349 1162 349 1098 c 1,21,-1
 598 1098 l 1,22,-1
 598 980 l 1,23,-1
 349 980 l 1,24,-1
 349 0 l 1,25,-1
 181 0 l 1,26,-1
 181 980 l 1,27,-1
 20 980 l 1,28,-1
 20 1098 l 1,29,-1
 181 1098 l 1,30,31
 181 1218 181 1218 205 1299.5 c 128,-1,32
 229 1381 229 1381 278 1427 c 128,-1,33
 327 1473 327 1473 392.5 1492.5 c 128,-1,34
 458 1512 458 1512 550 1512 c 0,35,36
 590 1512 590 1512 976 1490 c 1,37,-1
 976 450 l 2,38,39
 976 251 976 251 1000 189.5 c 128,-1,40
 1024 128 1024 128 1134 128 c 0,41,42
 1155 128 1155 128 1207 132 c 1,43,-1
 1218 1 l 1,44,45
 1103 -12 1103 -12 1094 -12 c 0,0,1
EndSplineSet
Ligature2: "'liga' Standard Ligatures in Latin lookup 0 subtable" f l
EndChar

StartChar: uniFB00
Encoding: 64256 64256 396
Width: 1187
GlyphClass: 3
Flags: W
LayerCount: 2
Fore
SplineSet
181 0 m 1,0,-1
 181 980 l 1,1,-1
 20 980 l 1,2,-1
 20 1098 l 1,3,-1
 181 1098 l 1,4,5
 181 1206 181 1206 192.5 1279.5 c 128,-1,6
 204 1353 204 1353 228 1404 c 128,-1,7
 252 1455 252 1455 295.5 1483.5 c 128,-1,8
 339 1512 339 1512 396.5 1524 c 128,-1,9
 454 1536 454 1536 539 1536 c 2,10,-1
 612 1536 l 1,11,-1
 632 1408 l 1,12,-1
 538 1408 l 2,13,14
 507 1408 507 1408 483 1404.5 c 128,-1,15
 459 1401 459 1401 440 1396 c 128,-1,16
 421 1391 421 1391 407.5 1379 c 128,-1,17
 394 1367 394 1367 384 1356 c 128,-1,18
 374 1345 374 1345 367.5 1323 c 128,-1,19
 361 1301 361 1301 357.5 1282.5 c 128,-1,20
 354 1264 354 1264 352 1230.5 c 128,-1,21
 350 1197 350 1197 349.5 1170.5 c 128,-1,22
 349 1144 349 1144 349 1098 c 1,23,-1
 766 1098 l 1,24,25
 766 1206 766 1206 777.5 1279.5 c 128,-1,26
 789 1353 789 1353 813 1404 c 128,-1,27
 837 1455 837 1455 880.5 1483.5 c 128,-1,28
 924 1512 924 1512 981.5 1524 c 128,-1,29
 1039 1536 1039 1536 1124 1536 c 2,30,-1
 1197 1536 l 1,31,-1
 1217 1408 l 1,32,-1
 1123 1408 l 2,33,34
 1092 1408 1092 1408 1068 1404.5 c 128,-1,35
 1044 1401 1044 1401 1025 1396 c 128,-1,36
 1006 1391 1006 1391 992.5 1379 c 128,-1,37
 979 1367 979 1367 969 1356 c 128,-1,38
 959 1345 959 1345 952.5 1323 c 128,-1,39
 946 1301 946 1301 942.5 1282.5 c 128,-1,40
 939 1264 939 1264 937 1230.5 c 128,-1,41
 935 1197 935 1197 934.5 1170.5 c 128,-1,42
 934 1144 934 1144 934 1098 c 1,43,-1
 1183 1098 l 1,44,-1
 1183 980 l 1,45,-1
 934 980 l 1,46,-1
 934 0 l 1,47,-1
 766 0 l 1,48,-1
 766 980 l 1,49,-1
 349 980 l 1,50,-1
 349 0 l 1,51,-1
 181 0 l 1,0,-1
EndSplineSet
Ligature2: "'liga' Standard Ligatures in Latin lookup 0 subtable" f f
EndChar

StartChar: uniFB03
Encoding: 64259 64259 397
Width: 1585
GlyphClass: 3
Flags: W
LayerCount: 2
Fore
SplineSet
349 980 m 1,0,-1
 349 0 l 1,1,-1
 181 0 l 1,2,-1
 181 980 l 1,3,-1
 20 980 l 1,4,-1
 20 1098 l 1,5,-1
 181 1098 l 1,6,7
 181 1206 181 1206 192.5 1279.5 c 128,-1,8
 204 1353 204 1353 228 1404 c 128,-1,9
 252 1455 252 1455 295.5 1483.5 c 128,-1,10
 339 1512 339 1512 396.5 1524 c 128,-1,11
 454 1536 454 1536 539 1536 c 2,12,-1
 612 1536 l 1,13,-1
 632 1408 l 1,14,-1
 538 1408 l 2,15,16
 507 1408 507 1408 483 1404.5 c 128,-1,17
 459 1401 459 1401 440 1396 c 128,-1,18
 421 1391 421 1391 407.5 1379 c 128,-1,19
 394 1367 394 1367 384 1356 c 128,-1,20
 374 1345 374 1345 367.5 1323 c 128,-1,21
 361 1301 361 1301 357.5 1282.5 c 128,-1,22
 354 1264 354 1264 352 1230.5 c 128,-1,23
 350 1197 350 1197 349.5 1170.5 c 128,-1,24
 349 1144 349 1144 349 1098 c 1,25,-1
 738 1098 l 1,26,27
 738 1208 738 1208 747 1279.5 c 128,-1,28
 756 1351 756 1351 776.5 1403.5 c 128,-1,29
 797 1456 797 1456 837 1483.5 c 128,-1,30
 877 1511 877 1511 932 1523.5 c 128,-1,31
 987 1536 987 1536 1072 1536 c 2,32,-1
 1149 1536 l 1,33,-1
 1156 1408 l 1,34,-1
 1071 1408 l 2,35,36
 1013 1408 1013 1408 980.5 1398.5 c 128,-1,37
 948 1389 948 1389 931 1361 c 128,-1,38
 914 1333 914 1333 910 1299.5 c 128,-1,39
 906 1266 906 1266 906 1201 c 2,40,-1
 906 1098 l 1,41,-1
 1453 1098 l 1,42,-1
 1453 0 l 1,43,-1
 1285 0 l 1,44,-1
 1285 980 l 1,45,-1
 906 980 l 1,46,-1
 906 0 l 1,47,-1
 738 0 l 1,48,-1
 738 980 l 1,49,-1
 349 980 l 1,0,-1
1285 1496 m 1,50,-1
 1453 1496 l 1,51,-1
 1453 1298 l 1,52,-1
 1285 1298 l 1,53,-1
 1285 1496 l 1,50,-1
EndSplineSet
Ligature2: "'liga' Standard Ligatures in Latin lookup 0 subtable" f f i
EndChar

StartChar: f_j.liga
Encoding: 65539 -1 398
Width: 1033
GlyphClass: 3
Flags: W
LayerCount: 2
Fore
SplineSet
751 1496 m 1,0,-1
 919 1496 l 1,1,-1
 919 1298 l 1,2,-1
 751 1298 l 1,3,-1
 751 1496 l 1,0,-1
534 -502 m 1,4,-1
 512 -351 l 1,5,-1
 564 -351 l 2,6,7
 603 -351 603 -351 631.5 -346.5 c 128,-1,8
 660 -342 660 -342 680.5 -335 c 128,-1,9
 701 -328 701 -328 714 -312 c 128,-1,10
 727 -296 727 -296 734.5 -281.5 c 128,-1,11
 742 -267 742 -267 745.5 -238 c 128,-1,12
 749 -209 749 -209 750 -186 c 128,-1,13
 751 -163 751 -163 751 -121 c 2,14,-1
 751 980 l 1,15,-1
 348 980 l 1,16,-1
 348 0 l 1,17,-1
 180 0 l 1,18,-1
 180 980 l 1,19,-1
 20 980 l 1,20,-1
 20 1098 l 1,21,-1
 180 1098 l 1,22,23
 180 1206 180 1206 191.5 1279.5 c 128,-1,24
 203 1353 203 1353 227 1404 c 128,-1,25
 251 1455 251 1455 294.5 1483.5 c 128,-1,26
 338 1512 338 1512 395.5 1524 c 128,-1,27
 453 1536 453 1536 538 1536 c 2,28,-1
 611 1536 l 1,29,-1
 631 1408 l 1,30,-1
 537 1408 l 2,31,32
 506 1408 506 1408 482 1404.5 c 128,-1,33
 458 1401 458 1401 439 1396 c 128,-1,34
 420 1391 420 1391 406.5 1379 c 128,-1,35
 393 1367 393 1367 383 1356 c 128,-1,36
 373 1345 373 1345 366.5 1323 c 128,-1,37
 360 1301 360 1301 356.5 1282.5 c 128,-1,38
 353 1264 353 1264 351 1230.5 c 128,-1,39
 349 1197 349 1197 348.5 1170.5 c 128,-1,40
 348 1144 348 1144 348 1098 c 1,41,-1
 919 1098 l 1,42,-1
 919 -139 l 2,43,44
 919 -245 919 -245 905.5 -310 c 128,-1,45
 892 -375 892 -375 854.5 -420.5 c 128,-1,46
 817 -466 817 -466 753 -484 c 128,-1,47
 689 -502 689 -502 586 -502 c 2,48,-1
 534 -502 l 1,4,-1
EndSplineSet
Ligature2: "'liga' Standard Ligatures in Latin lookup 0 subtable" f j
EndChar

StartChar: glyph403
Encoding: 65540 -1 403
Width: 554
GlyphClass: 2
Flags: W
LayerCount: 2
Fore
SplineSet
274 0 m 0,0,-1
144 -648 m 1,1,-1
 239 -150 l 1,2,-1
 404 -150 l 1,3,-1
 260 -648 l 1,4,-1
 144 -648 l 1,1,-1
EndSplineSet
EndChar

StartChar: glyph404
Encoding: 65541 -1 404
Width: 770
GlyphClass: 2
Flags: W
LayerCount: 2
Fore
SplineSet
387 1098 m 0,0,-1
637 1275 m 1,1,-1
 136 1275 l 1,2,-1
 136 1418 l 1,3,-1
 637 1418 l 1,4,-1
 637 1275 l 1,1,-1
386 1098 m 0,5,-1
386 1098 m 0,6,-1
386 1098 m 0,7,-1
386 1098 m 0,8,-1
386 1098 m 0,9,-1
386 1098 m 0,10,-1
386 1098 m 0,11,-1
386 1098 m 0,12,-1
EndSplineSet
EndChar

StartChar: glyph405
Encoding: 65542 -1 405
Width: 468
GlyphClass: 2
Flags: W
LayerCount: 2
Fore
SplineSet
235 793 m 0,0,1
 298 793 298 793 333 754 c 128,-1,2
 368 715 368 715 368 661 c 128,-1,3
 368 607 368 607 333 568 c 128,-1,4
 298 529 298 529 235 529 c 0,5,6
 173 529 173 529 137.5 568.5 c 128,-1,7
 102 608 102 608 102 661 c 128,-1,8
 102 714 102 714 137.5 753.5 c 128,-1,9
 173 793 173 793 235 793 c 0,0,1
EndSplineSet
EndChar

